AnekOdia-Medium.ufo
<glyph name="numbersign" format="2">
  <advance width="1180"/>
  <unicode hex="0023"/>
  <outline>
    <contour>
      <point x="204" y="0" type="line"/>
      <point x="363" y="0" type="line"/>
      <point x="525" y="1278" type="line"/>
      <point x="366" y="1278" type="line"/>
    </contour>
    <contour>
      <point x="61" y="319" type="line"/>
      <point x="1062" y="319" type="line"/>
      <point x="1062" y="462" type="line"/>
      <point x="61" y="462" type="line"/>
    </contour>
    <contour>
      <point x="660" y="0" type="line"/>
      <point x="820" y="0" type="line"/>
      <point x="978" y="1278" type="line"/>
      <point x="818" y="1278" type="line"/>
    </contour>
    <contour>
      <point x="121" y="819" type="line"/>
      <point x="1120" y="819" type="line"/>
      <point x="1120" y="962" type="line"/>
      <point x="121" y="962" type="line"/>
    </contour>
  </outline>
</glyph>
<glyph name="at" format="2">
  <advance width="1690"/>
  <unicode hex="0040"/>
  <outline>
    <contour>
      <point x="734" y="69" type="curve" smooth="yes"/>
      <point x="877" y="69"/>
      <point x="946" y="141"/>
      <point x="984" y="243" type="curve"/>
      <point x="1027" y="243" type="line"/>
      <point x="1005" y="375" type="line"/>
      <point x="978" y="284"/>
      <point x="909" y="224"/>
      <point x="821" y="224" type="curve" smooth="yes"/>
      <point x="732" y="224"/>
      <point x="685" y="273"/>
      <point x="685" y="372" type="curve" smooth="yes"/>
      <point x="685" y="390"/>
      <point x="685" y="412"/>
      <point x="700" y="548" type="curve" smooth="yes"/>
      <point x="715" y="681"/>
      <point x="766" y="763"/>
      <point x="882" y="763" type="curve" smooth="yes"/>
      <point x="975" y="763"/>
      <point x="1032" y="704"/>
      <point x="1032" y="594" type="curve" smooth="yes"/>
      <point x="1032" y="586"/>
      <point x="1032" y="577"/>
      <point x="1031" y="568" type="curve"/>
      <point x="1085" y="740" type="line"/>
      <point x="1037" y="740" type="line"/>
      <point x="1019" y="845"/>
      <point x="958" y="913"/>
      <point x="824" y="913" type="curve" smooth="yes"/>
      <point x="624" y="913"/>
      <point x="536" y="765"/>
      <point x="510" y="523" type="curve" smooth="yes"/>
      <point x="495" y="386"/>
      <point x="495" y="364"/>
      <point x="495" y="340" type="curve" smooth="yes"/>
      <point x="495" y="164"/>
      <point x="582" y="69"/>
    </contour>
    <contour>
      <point x="971" y="82" type="line"/>
      <point x="1145" y="104" type="line"/>
      <point x="1238" y="896" type="line"/>
      <point x="1060" y="896" type="line"/>
      <point x="1059" y="885" type="line"/>
      <point x="1042" y="694" type="line"/>
      <point x="1038" y="666" type="line"/>
      <point x="997" y="326" type="line"/>
      <point x="1000" y="295" type="line"/>
    </contour>
    <contour>
      <point x="1108" y="220" type="curve"/>
      <point x="971" y="82" type="line"/>
      <point x="1018" y="74"/>
      <point x="1066" y="72"/>
      <point x="1118" y="73" type="curve" smooth="yes"/>
      <point x="1413" y="76"/>
      <point x="1537" y="195"/>
      <point x="1573" y="457" type="curve" smooth="yes"/>
      <point x="1591" y="588"/>
      <point x="1597" y="650"/>
      <point x="1599" y="697" type="curve" smooth="yes"/>
      <point x="1617" y="1113"/>
      <point x="1359" y="1333"/>
      <point x="907" y="1333" type="curve" smooth="yes"/>
      <point x="418" y="1333"/>
      <point x="165" y="1062"/>
      <point x="112" y="571" type="curve" smooth="yes"/>
      <point x="95" y="416"/>
      <point x="90" y="346"/>
      <point x="90" y="267" type="curve" smooth="yes"/>
      <point x="90" y="-133"/>
      <point x="339" y="-345"/>
      <point x="811" y="-345" type="curve" smooth="yes"/>
      <point x="1065" y="-345"/>
      <point x="1242" y="-293"/>
      <point x="1382" y="-220" type="curve"/>
      <point x="1407" y="-64" type="line"/>
      <point x="1272" y="-144"/>
      <point x="1078" y="-205"/>
      <point x="822" y="-205" type="curve" smooth="yes"/>
      <point x="440" y="-205"/>
      <point x="254" y="-35"/>
      <point x="254" y="274" type="curve" smooth="yes"/>
      <point x="254" y="346"/>
      <point x="259" y="405"/>
      <point x="278" y="577" type="curve" smooth="yes"/>
      <point x="320" y="956"/>
      <point x="502" y="1195"/>
      <point x="901" y="1195" type="curve" smooth="yes"/>
      <point x="1269" y="1195"/>
      <point x="1451" y="1009"/>
      <point x="1435" y="694" type="curve" smooth="yes"/>
      <point x="1433" y="654"/>
      <point x="1425" y="576"/>
      <point x="1408" y="464" type="curve" smooth="yes"/>
      <point x="1383" y="296"/>
      <point x="1322" y="217"/>
      <point x="1181" y="217" type="curve" smooth="yes"/>
      <point x="1147" y="217"/>
      <point x="1133" y="218"/>
    </contour>
  </outline>
</glyph>
<glyph name="Candrabindu.or" format="2">
  <unicode hex="0B01"/>
  <anchor x="-344" y="1431" name="_top2"/>
  <outline>
    <contour>
      <point x="-342" y="1684" type="curve" smooth="yes"/>
      <point x="-405" y="1684"/>
      <point x="-430" y="1724"/>
      <point x="-430" y="1788" type="curve" smooth="yes"/>
      <point x="-430" y="1797" type="line" smooth="yes"/>
      <point x="-430" y="1859"/>
      <point x="-405" y="1900"/>
      <point x="-342" y="1900" type="curve" smooth="yes"/>
      <point x="-280" y="1900"/>
      <point x="-255" y="1859"/>
      <point x="-255" y="1797" type="curve" smooth="yes"/>
      <point x="-255" y="1788" type="line" smooth="yes"/>
      <point x="-255" y="1724"/>
      <point x="-280" y="1684"/>
    </contour>
    <contour>
      <point x="-130" y="1779" type="line"/>
      <point x="10" y="1779" type="line"/>
      <point x="12" y="1755"/>
      <point x="12" y="1742"/>
      <point x="12" y="1731" type="curve" smooth="yes"/>
      <point x="12" y="1532"/>
      <point x="-109" y="1432"/>
      <point x="-343" y="1432" type="curve" smooth="yes"/>
      <point x="-574" y="1432"/>
      <point x="-697" y="1532"/>
      <point x="-697" y="1731" type="curve" smooth="yes"/>
      <point x="-697" y="1742"/>
      <point x="-698" y="1753"/>
      <point x="-696" y="1779" type="curve"/>
      <point x="-554" y="1779" type="line"/>
      <point x="-554" y="1749" type="line" smooth="yes"/>
      <point x="-554" y="1617"/>
      <point x="-483" y="1556"/>
      <point x="-343" y="1556" type="curve" smooth="yes"/>
      <point x="-200" y="1556"/>
      <point x="-130" y="1618"/>
      <point x="-130" y="1749" type="curve" smooth="yes"/>
    </contour>
  </outline>
</glyph>
<glyph name="Anusvara.or" format="2">
  <advance width="627"/>
  <unicode hex="0B02"/>
  <outline>
    <contour>
      <point x="314" y="751" type="curve" smooth="yes"/>
      <point x="500" y="751"/>
      <point x="608" y="851"/>
      <point x="608" y="1027" type="curve" smooth="yes"/>
      <point x="608" y="1068" type="line" smooth="yes"/>
      <point x="608" y="1244"/>
      <point x="500" y="1344"/>
      <point x="314" y="1344" type="curve" smooth="yes"/>
      <point x="128" y="1344"/>
      <point x="20" y="1244"/>
      <point x="20" y="1068" type="curve" smooth="yes"/>
      <point x="20" y="1027" type="line" smooth="yes"/>
      <point x="20" y="852"/>
      <point x="128" y="751"/>
    </contour>
    <contour>
      <point x="314" y="887" type="curve" smooth="yes"/>
      <point x="227" y="887"/>
      <point x="182" y="936"/>
      <point x="182" y="1024" type="curve" smooth="yes"/>
      <point x="182" y="1071" type="line" smooth="yes"/>
      <point x="182" y="1159"/>
      <point x="227" y="1208"/>
      <point x="314" y="1208" type="curve" smooth="yes"/>
      <point x="402" y="1208"/>
      <point x="446" y="1159"/>
      <point x="446" y="1071" type="curve" smooth="yes"/>
      <point x="446" y="1024" type="line" smooth="yes"/>
      <point x="446" y="936"/>
      <point x="402" y="887"/>
    </contour>
  </outline>
</glyph>
<glyph name="Visarga.or" format="2">
  <advance width="909"/>
  <unicode hex="0B03"/>
  <outline>
    <contour>
      <point x="452" y="-12" type="curve" smooth="yes"/>
      <point x="689" y="-12"/>
      <point x="820" y="100"/>
      <point x="820" y="302" type="curve" smooth="yes"/>
      <point x="820" y="325" type="line" smooth="yes"/>
      <point x="820" y="494"/>
      <point x="726" y="591"/>
      <point x="560" y="696" type="curve"/>
      <point x="488" y="742" type="line"/>
      <point x="343" y="822"/>
      <point x="268" y="894"/>
      <point x="268" y="1014" type="curve" smooth="yes"/>
      <point x="268" y="1035" type="line" smooth="yes"/>
      <point x="268" y="1149"/>
      <point x="332" y="1208"/>
      <point x="449" y="1208" type="curve" smooth="yes"/>
      <point x="570" y="1208"/>
      <point x="634" y="1146"/>
      <point x="634" y="1030" type="curve" smooth="yes"/>
      <point x="634" y="1009" type="line" smooth="yes"/>
      <point x="634" y="897"/>
      <point x="559" y="821"/>
      <point x="416" y="735" type="curve"/>
      <point x="349" y="695" type="line"/>
      <point x="173" y="586"/>
      <point x="91" y="486"/>
      <point x="91" y="323" type="curve" smooth="yes"/>
      <point x="91" y="300" type="line" smooth="yes"/>
      <point x="91" y="101"/>
      <point x="219" y="-12"/>
    </contour>
    <contour>
      <point x="455" y="138" type="curve" smooth="yes"/>
      <point x="335" y="138"/>
      <point x="271" y="202"/>
      <point x="271" y="313" type="curve" smooth="yes"/>
      <point x="271" y="330" type="line" smooth="yes"/>
      <point x="271" y="441"/>
      <point x="338" y="515"/>
      <point x="479" y="595" type="curve"/>
      <point x="552" y="641" type="line"/>
      <point x="720" y="748"/>
      <point x="814" y="846"/>
      <point x="814" y="1019" type="curve" smooth="yes"/>
      <point x="814" y="1041" type="line" smooth="yes"/>
      <point x="814" y="1244"/>
      <point x="685" y="1358"/>
      <point x="454" y="1358" type="curve" smooth="yes"/>
      <point x="219" y="1358"/>
      <point x="89" y="1244"/>
      <point x="89" y="1038" type="curve" smooth="yes"/>
      <point x="89" y="1015" type="line" smooth="yes"/>
      <point x="89" y="844"/>
      <point x="174" y="739"/>
      <point x="350" y="642" type="curve"/>
      <point x="415" y="597" type="line"/>
      <point x="557" y="518"/>
      <point x="640" y="446"/>
      <point x="640" y="328" type="curve" smooth="yes"/>
      <point x="640" y="312" type="line" smooth="yes"/>
      <point x="640" y="199"/>
      <point x="576" y="138"/>
    </contour>
  </outline>
</glyph>
<glyph name="VowelA.or" format="2">
  <advance width="1585"/>
  <unicode hex="0B05"/>
  <anchor x="1338" y="1431" name="top2"/>
  <outline>
    <contour>
      <point x="1267" y="0" type="line"/>
      <point x="1445" y="0" type="line"/>
      <point x="1445" y="1344" type="line"/>
      <point x="1267" y="1344" type="line"/>
      <point x="1267" y="320" type="line"/>
      <point x="1274" y="295" type="line"/>
    </contour>
    <contour>
      <point x="664" y="-21" type="curve" smooth="yes"/>
      <point x="1021" y="-21"/>
      <point x="1191" y="90"/>
      <point x="1264" y="242" type="curve"/>
      <point x="1355" y="242" type="line"/>
      <point x="1276" y="428" type="line"/>
      <point x="1200" y="256"/>
      <point x="1005" y="146"/>
      <point x="692" y="146" type="curve" smooth="yes"/>
      <point x="414" y="146"/>
      <point x="292" y="214"/>
      <point x="292" y="350" type="curve" smooth="yes"/>
      <point x="292" y="363" type="line" smooth="yes"/>
      <point x="292" y="469"/>
      <point x="349" y="517"/>
      <point x="505" y="551" type="curve" smooth="yes"/>
      <point x="689" y="591" type="line" smooth="yes"/>
      <point x="984" y="655"/>
      <point x="1078" y="761"/>
      <point x="1078" y="971" type="curve" smooth="yes"/>
      <point x="1078" y="1072" type="line" smooth="yes"/>
      <point x="1078" y="1261"/>
      <point x="994" y="1356"/>
      <point x="827" y="1356" type="curve" smooth="yes"/>
      <point x="693" y="1356"/>
      <point x="621" y="1297"/>
      <point x="597" y="1204" type="curve"/>
      <point x="590" y="1204" type="line"/>
      <point x="568" y="1297"/>
      <point x="498" y="1356"/>
      <point x="368" y="1356" type="curve" smooth="yes"/>
      <point x="198" y="1356"/>
      <point x="108" y="1261"/>
      <point x="108" y="1083" type="curve" smooth="yes"/>
      <point x="108" y="1002" type="line" smooth="yes"/>
      <point x="108" y="935"/>
      <point x="120" y="879"/>
      <point x="145" y="825" type="curve"/>
      <point x="321" y="815" type="line"/>
      <point x="298" y="874"/>
      <point x="286" y="926"/>
      <point x="286" y="987" type="curve" smooth="yes"/>
      <point x="286" y="1080" type="line" smooth="yes"/>
      <point x="286" y="1160"/>
      <point x="321" y="1206"/>
      <point x="394" y="1206" type="curve" smooth="yes"/>
      <point x="466" y="1206"/>
      <point x="503" y="1157"/>
      <point x="503" y="1073" type="curve" smooth="yes"/>
      <point x="504" y="880" type="line"/>
      <point x="680" y="880" type="line"/>
      <point x="681" y="1073" type="line" smooth="yes"/>
      <point x="681" y="1157"/>
      <point x="719" y="1206"/>
      <point x="792" y="1206" type="curve" smooth="yes"/>
      <point x="866" y="1206"/>
      <point x="900" y="1156"/>
      <point x="900" y="1071" type="curve" smooth="yes"/>
      <point x="900" y="971" type="line" smooth="yes"/>
      <point x="900" y="838"/>
      <point x="849" y="780"/>
      <point x="661" y="740" type="curve" smooth="yes"/>
      <point x="454" y="696" type="line" smooth="yes"/>
      <point x="198" y="642"/>
      <point x="98" y="547"/>
      <point x="98" y="359" type="curve" smooth="yes"/>
      <point x="98" y="343" type="line" smooth="yes"/>
      <point x="98" y="103"/>
      <point x="282" y="-21"/>
    </contour>
  </outline>
</glyph>
<glyph name="VowelI.or" format="2">
  <advance width="1751"/>
  <unicode hex="0B07"/>
  <anchor x="1322" y="1445" name="top2"/>
  <outline>
    <contour>
      <point x="1802" y="-175" type="line"/>
      <point x="1802" y="10" type="line"/>
      <point x="1487" y="111" type="line"/>
      <point x="1524" y="56" type="line"/>
      <point x="1604" y="141"/>
      <point x="1637" y="262"/>
      <point x="1637" y="386" type="curve" smooth="yes"/>
      <point x="1637" y="696" type="line" smooth="yes"/>
      <point x="1637" y="1138"/>
      <point x="1354" y="1379"/>
      <point x="838" y="1379" type="curve" smooth="yes"/>
      <point x="352" y="1379"/>
      <point x="87" y="1181"/>
      <point x="87" y="824" type="curve" smooth="yes"/>
      <point x="87" y="766" type="line" smooth="yes"/>
      <point x="87" y="574"/>
      <point x="168" y="458"/>
      <point x="310" y="403" type="curve"/>
      <point x="382" y="552" type="line"/>
      <point x="308" y="595"/>
      <point x="273" y="658"/>
      <point x="273" y="766" type="curve" smooth="yes"/>
      <point x="273" y="822" type="line" smooth="yes"/>
      <point x="273" y="1076"/>
      <point x="458" y="1215"/>
      <point x="837" y="1215" type="curve" smooth="yes"/>
      <point x="1246" y="1215"/>
      <point x="1453" y="1034"/>
      <point x="1453" y="684" type="curve" smooth="yes"/>
      <point x="1453" y="377" type="line" smooth="yes"/>
      <point x="1453" y="250"/>
      <point x="1422" y="122"/>
      <point x="1352" y="16" type="curve"/>
    </contour>
    <contour>
      <point x="543" y="131" type="curve" smooth="yes"/>
      <point x="458" y="131"/>
      <point x="421" y="181"/>
      <point x="421" y="285" type="curve" smooth="yes"/>
      <point x="421" y="439" type="line" smooth="yes"/>
      <point x="421" y="543"/>
      <point x="458" y="593"/>
      <point x="543" y="593" type="curve" smooth="yes"/>
      <point x="626" y="593"/>
      <point x="665" y="540"/>
      <point x="665" y="437" type="curve" smooth="yes"/>
      <point x="665" y="287" type="line" smooth="yes"/>
      <point x="665" y="184"/>
      <point x="626" y="131"/>
    </contour>
    <contour>
      <point x="514" y="-19" type="curve" smooth="yes"/>
      <point x="654" y="-19"/>
      <point x="729" y="41"/>
      <point x="752" y="136" type="curve"/>
      <point x="759" y="136" type="line"/>
      <point x="783" y="41"/>
      <point x="857" y="-19"/>
      <point x="995" y="-19" type="curve" smooth="yes"/>
      <point x="1176" y="-19"/>
      <point x="1265" y="82"/>
      <point x="1265" y="285" type="curve" smooth="yes"/>
      <point x="1265" y="439" type="line" smooth="yes"/>
      <point x="1265" y="641"/>
      <point x="1177" y="743"/>
      <point x="997" y="743" type="curve" smooth="yes"/>
      <point x="863" y="743"/>
      <point x="784" y="683"/>
      <point x="759" y="588" type="curve"/>
      <point x="752" y="588" type="line"/>
      <point x="729" y="683"/>
      <point x="658" y="743"/>
      <point x="530" y="743" type="curve" smooth="yes"/>
      <point x="390" y="743"/>
      <point x="308" y="676"/>
      <point x="280" y="554" type="curve"/>
      <point x="265" y="533" type="line"/>
      <point x="251" y="502"/>
      <point x="243" y="465"/>
      <point x="243" y="423" type="curve" smooth="yes"/>
      <point x="243" y="287" type="line" smooth="yes"/>
      <point x="243" y="86"/>
      <point x="333" y="-19"/>
    </contour>
    <contour>
      <point x="965" y="131" type="curve" smooth="yes"/>
      <point x="882" y="131"/>
      <point x="843" y="184"/>
      <point x="843" y="287" type="curve" smooth="yes"/>
      <point x="843" y="437" type="line" smooth="yes"/>
      <point x="843" y="540"/>
      <point x="882" y="593"/>
      <point x="965" y="593" type="curve" smooth="yes"/>
      <point x="1050" y="593"/>
      <point x="1087" y="543"/>
      <point x="1087" y="439" type="curve" smooth="yes"/>
      <point x="1087" y="285" type="line" smooth="yes"/>
      <point x="1087" y="181"/>
      <point x="1050" y="131"/>
    </contour>
  </outline>
</glyph>
<glyph name="VowelIi.or" format="2">
  <advance width="1735"/>
  <unicode hex="0B08"/>
  <anchor x="1345" y="1431" name="top2"/>
  <outline>
    <contour>
      <point x="1786" y="-175" type="line"/>
      <point x="1786" y="10" type="line"/>
      <point x="1471" y="111" type="line"/>
      <point x="1508" y="56" type="line"/>
      <point x="1588" y="141"/>
      <point x="1621" y="262"/>
      <point x="1621" y="386" type="curve" smooth="yes"/>
      <point x="1621" y="696" type="line" smooth="yes"/>
      <point x="1621" y="1145"/>
      <point x="1365" y="1379"/>
      <point x="902" y="1379" type="curve" smooth="yes"/>
      <point x="541" y="1379"/>
      <point x="348" y="1215"/>
      <point x="316" y="1010" type="curve" smooth="yes"/>
      <point x="312" y="985"/>
      <point x="315" y="951"/>
      <point x="322" y="931" type="curve"/>
      <point x="516" y="936" type="line"/>
      <point x="512" y="953"/>
      <point x="507" y="974"/>
      <point x="510" y="996" type="curve" smooth="yes"/>
      <point x="530" y="1131"/>
      <point x="648" y="1215"/>
      <point x="899" y="1215" type="curve" smooth="yes"/>
      <point x="1255" y="1215"/>
      <point x="1437" y="1041"/>
      <point x="1437" y="684" type="curve" smooth="yes"/>
      <point x="1437" y="377" type="line" smooth="yes"/>
      <point x="1437" y="250"/>
      <point x="1406" y="122"/>
      <point x="1336" y="16" type="curve"/>
    </contour>
    <contour>
      <point x="527" y="131" type="curve" smooth="yes"/>
      <point x="442" y="131"/>
      <point x="405" y="181"/>
      <point x="405" y="285" type="curve" smooth="yes"/>
      <point x="405" y="439" type="line" smooth="yes"/>
      <point x="405" y="543"/>
      <point x="442" y="593"/>
      <point x="527" y="593" type="curve" smooth="yes"/>
      <point x="610" y="593"/>
      <point x="649" y="540"/>
      <point x="649" y="437" type="curve" smooth="yes"/>
      <point x="649" y="287" type="line" smooth="yes"/>
      <point x="649" y="184"/>
      <point x="610" y="131"/>
    </contour>
    <contour>
      <point x="498" y="-19" type="curve" smooth="yes"/>
      <point x="638" y="-19"/>
      <point x="713" y="41"/>
      <point x="736" y="136" type="curve"/>
      <point x="743" y="136" type="line"/>
      <point x="767" y="41"/>
      <point x="841" y="-19"/>
      <point x="979" y="-19" type="curve" smooth="yes"/>
      <point x="1160" y="-19"/>
      <point x="1249" y="82"/>
      <point x="1249" y="285" type="curve" smooth="yes"/>
      <point x="1249" y="439" type="line" smooth="yes"/>
      <point x="1249" y="641"/>
      <point x="1161" y="743"/>
      <point x="981" y="743" type="curve" smooth="yes"/>
      <point x="847" y="743"/>
      <point x="768" y="683"/>
      <point x="743" y="588" type="curve"/>
      <point x="736" y="588" type="line"/>
      <point x="713" y="683"/>
      <point x="642" y="743"/>
      <point x="514" y="743" type="curve" smooth="yes"/>
      <point x="374" y="743"/>
      <point x="292" y="676"/>
      <point x="264" y="554" type="curve"/>
      <point x="249" y="533" type="line"/>
      <point x="235" y="502"/>
      <point x="227" y="465"/>
      <point x="227" y="423" type="curve" smooth="yes"/>
      <point x="227" y="287" type="line" smooth="yes"/>
      <point x="227" y="86"/>
      <point x="317" y="-19"/>
    </contour>
    <contour>
      <point x="259" y="414" type="curve"/>
      <point x="350" y="554" type="line"/>
      <point x="280" y="581"/>
      <point x="246" y="629"/>
      <point x="246" y="704" type="curve" smooth="yes"/>
      <point x="246" y="717" type="line" smooth="yes"/>
      <point x="246" y="832"/>
      <point x="325" y="894"/>
      <point x="488" y="894" type="curve" smooth="yes"/>
      <point x="495" y="894" type="line" smooth="yes"/>
      <point x="592" y="894"/>
      <point x="680" y="873"/>
      <point x="747" y="848" type="curve"/>
      <point x="733" y="998" type="line"/>
      <point x="674" y="1021"/>
      <point x="599" y="1038"/>
      <point x="502" y="1046" type="curve"/>
      <point x="412" y="1049" type="line"/>
      <point x="197" y="1038"/>
      <point x="62" y="919"/>
      <point x="62" y="716" type="curve" smooth="yes"/>
      <point x="62" y="699" type="line" smooth="yes"/>
      <point x="62" y="550"/>
      <point x="135" y="458"/>
    </contour>
    <contour>
      <point x="949" y="131" type="curve" smooth="yes"/>
      <point x="866" y="131"/>
      <point x="827" y="184"/>
      <point x="827" y="287" type="curve" smooth="yes"/>
      <point x="827" y="437" type="line" smooth="yes"/>
      <point x="827" y="540"/>
      <point x="866" y="593"/>
      <point x="949" y="593" type="curve" smooth="yes"/>
      <point x="1034" y="593"/>
      <point x="1071" y="543"/>
      <point x="1071" y="439" type="curve" smooth="yes"/>
      <point x="1071" y="285" type="line" smooth="yes"/>
      <point x="1071" y="181"/>
      <point x="1034" y="131"/>
    </contour>
  </outline>
</glyph>
<glyph name="VowelU.or" format="2">
  <advance width="1681"/>
  <unicode hex="0B09"/>
  <anchor x="1281" y="1431" name="top2"/>
  <outline>
    <contour>
      <point x="1719" y="-175" type="line"/>
      <point x="1719" y="10" type="line"/>
      <point x="1414" y="111" type="line"/>
      <point x="1441" y="61" type="line"/>
      <point x="1529" y="146"/>
      <point x="1567" y="280"/>
      <point x="1567" y="415" type="curve" smooth="yes"/>
      <point x="1567" y="713" type="line" smooth="yes"/>
      <point x="1567" y="1147"/>
      <point x="1291" y="1379"/>
      <point x="795" y="1379" type="curve" smooth="yes"/>
      <point x="363" y="1379"/>
      <point x="87" y="1180"/>
      <point x="87" y="837" type="curve" smooth="yes"/>
      <point x="87" y="795" type="line" smooth="yes"/>
      <point x="87" y="570"/>
      <point x="197" y="430"/>
      <point x="425" y="369" type="curve"/>
      <point x="472" y="531" type="line"/>
      <point x="335" y="572"/>
      <point x="273" y="659"/>
      <point x="273" y="797" type="curve" smooth="yes"/>
      <point x="273" y="837" type="line" smooth="yes"/>
      <point x="273" y="1082"/>
      <point x="459" y="1215"/>
      <point x="795" y="1215" type="curve" smooth="yes"/>
      <point x="1185" y="1215"/>
      <point x="1383" y="1041"/>
      <point x="1383" y="709" type="curve" smooth="yes"/>
      <point x="1383" y="398" type="line" smooth="yes"/>
      <point x="1383" y="247"/>
      <point x="1341" y="124"/>
      <point x="1255" y="13" type="curve"/>
    </contour>
    <contour>
      <point x="746" y="-22" type="curve" smooth="yes"/>
      <point x="1000" y="-22"/>
      <point x="1141" y="114"/>
      <point x="1141" y="296" type="curve" smooth="yes"/>
      <point x="1141" y="325" type="line" smooth="yes"/>
      <point x="1141" y="437"/>
      <point x="1118" y="495"/>
      <point x="1034" y="543" type="curve"/>
      <point x="1034" y="594" type="line"/>
      <point x="897" y="492" type="line"/>
      <point x="940" y="465"/>
      <point x="961" y="429"/>
      <point x="961" y="343" type="curve" smooth="yes"/>
      <point x="961" y="307" type="line" smooth="yes"/>
      <point x="961" y="198"/>
      <point x="881" y="129"/>
      <point x="750" y="129" type="curve" smooth="yes"/>
      <point x="601" y="129"/>
      <point x="523" y="206"/>
      <point x="523" y="347" type="curve" smooth="yes"/>
      <point x="523" y="421" type="line" smooth="yes"/>
      <point x="523" y="512"/>
      <point x="557" y="574"/>
      <point x="641" y="608" type="curve"/>
      <point x="641" y="777" type="line"/>
      <point x="491" y="741"/>
      <point x="390" y="648"/>
      <point x="359" y="517" type="curve"/>
      <point x="348" y="492" type="line"/>
      <point x="341" y="465"/>
      <point x="338" y="442"/>
      <point x="338" y="412" type="curve" smooth="yes"/>
      <point x="338" y="347" type="line" smooth="yes"/>
      <point x="338" y="110"/>
      <point x="479" y="-22"/>
    </contour>
    <contour>
      <point x="739" y="361" type="line"/>
      <point x="949" y="492" type="line"/>
      <point x="995" y="523" type="line"/>
      <point x="1175" y="634" type="line"/>
      <point x="1175" y="815" type="line"/>
      <point x="739" y="547" type="line"/>
    </contour>
  </outline>
</glyph>
<glyph name="VowelUu.or" format="2">
  <advance width="1697"/>
  <unicode hex="0B0A"/>
  <anchor x="1312" y="1431" name="top2"/>
  <outline>
    <contour>
      <point x="1679" y="-175" type="line"/>
      <point x="1679" y="10" type="line"/>
      <point x="1372" y="108" type="line"/>
      <point x="1350" y="60" type="line"/>
      <point x="1395" y="60" type="line"/>
      <point x="1555" y="69"/>
      <point x="1629" y="152"/>
      <point x="1629" y="297" type="curve" smooth="yes"/>
      <point x="1629" y="335" type="line" smooth="yes"/>
      <point x="1629" y="485"/>
      <point x="1561" y="564"/>
      <point x="1432" y="581" type="curve"/>
      <point x="1434" y="555" type="line"/>
      <point x="1528" y="585"/>
      <point x="1567" y="675"/>
      <point x="1567" y="787" type="curve" smooth="yes"/>
      <point x="1567" y="818" type="line" smooth="yes"/>
      <point x="1567" y="1170"/>
      <point x="1287" y="1379"/>
      <point x="816" y="1379" type="curve" smooth="yes"/>
      <point x="352" y="1379"/>
      <point x="87" y="1180"/>
      <point x="87" y="838" type="curve" smooth="yes"/>
      <point x="87" y="794" type="line" smooth="yes"/>
      <point x="87" y="578"/>
      <point x="182" y="451"/>
      <point x="372" y="377" type="curve"/>
      <point x="426" y="539" type="line"/>
      <point x="323" y="592"/>
      <point x="273" y="665"/>
      <point x="273" y="793" type="curve" smooth="yes"/>
      <point x="273" y="838" type="line" smooth="yes"/>
      <point x="273" y="1081"/>
      <point x="454" y="1215"/>
      <point x="815" y="1215" type="curve" smooth="yes"/>
      <point x="1181" y="1215"/>
      <point x="1382" y="1070"/>
      <point x="1382" y="811" type="curve" smooth="yes"/>
      <point x="1382" y="769" type="line" smooth="yes"/>
      <point x="1382" y="676"/>
      <point x="1357" y="612"/>
      <point x="1268" y="608" type="curve" smooth="yes"/>
      <point x="1247" y="607" type="line"/>
      <point x="1247" y="468" type="line"/>
      <point x="1308" y="467" type="line" smooth="yes"/>
      <point x="1409" y="465"/>
      <point x="1450" y="415"/>
      <point x="1450" y="321" type="curve" smooth="yes"/>
      <point x="1450" y="292" type="line" smooth="yes"/>
      <point x="1450" y="196"/>
      <point x="1406" y="140"/>
      <point x="1300" y="138" type="curve" smooth="yes"/>
      <point x="1236" y="137" type="line"/>
      <point x="1236" y="8" type="line"/>
    </contour>
    <contour>
      <point x="693" y="-22" type="curve" smooth="yes"/>
      <point x="947" y="-22"/>
      <point x="1088" y="114"/>
      <point x="1088" y="296" type="curve" smooth="yes"/>
      <point x="1088" y="325" type="line" smooth="yes"/>
      <point x="1088" y="437"/>
      <point x="1065" y="495"/>
      <point x="981" y="543" type="curve"/>
      <point x="981" y="594" type="line"/>
      <point x="844" y="492" type="line"/>
      <point x="887" y="465"/>
      <point x="908" y="429"/>
      <point x="908" y="343" type="curve" smooth="yes"/>
      <point x="908" y="307" type="line" smooth="yes"/>
      <point x="908" y="198"/>
      <point x="828" y="129"/>
      <point x="697" y="129" type="curve" smooth="yes"/>
      <point x="548" y="129"/>
      <point x="470" y="206"/>
      <point x="470" y="347" type="curve" smooth="yes"/>
      <point x="470" y="421" type="line" smooth="yes"/>
      <point x="470" y="512"/>
      <point x="504" y="574"/>
      <point x="588" y="608" type="curve"/>
      <point x="588" y="777" type="line"/>
      <point x="438" y="741"/>
      <point x="337" y="648"/>
      <point x="306" y="517" type="curve"/>
      <point x="295" y="492" type="line"/>
      <point x="288" y="465"/>
      <point x="285" y="442"/>
      <point x="285" y="412" type="curve" smooth="yes"/>
      <point x="285" y="347" type="line" smooth="yes"/>
      <point x="285" y="110"/>
      <point x="426" y="-22"/>
    </contour>
    <contour>
      <point x="686" y="361" type="line"/>
      <point x="896" y="492" type="line"/>
      <point x="942" y="523" type="line"/>
      <point x="1122" y="634" type="line"/>
      <point x="1122" y="815" type="line"/>
      <point x="686" y="547" type="line"/>
    </contour>
  </outline>
</glyph>
<glyph name="VowelVocalicR.or" format="2">
  <advance width="1660"/>
  <unicode hex="0B0B"/>
  <anchor x="800" y="1777" name="top1"/>
  <anchor x="1284" y="1431" name="top2"/>
  <outline>
    <contour>
      <point x="1642" y="-175" type="line"/>
      <point x="1642" y="10" type="line"/>
      <point x="1335" y="108" type="line"/>
      <point x="1313" y="60" type="line"/>
      <point x="1358" y="60" type="line"/>
      <point x="1518" y="69"/>
      <point x="1592" y="152"/>
      <point x="1592" y="297" type="curve" smooth="yes"/>
      <point x="1592" y="335" type="line" smooth="yes"/>
      <point x="1592" y="485"/>
      <point x="1524" y="564"/>
      <point x="1395" y="581" type="curve"/>
      <point x="1397" y="555" type="line"/>
      <point x="1491" y="585"/>
      <point x="1530" y="675"/>
      <point x="1530" y="787" type="curve" smooth="yes"/>
      <point x="1530" y="817" type="line" smooth="yes"/>
      <point x="1530" y="1170"/>
      <point x="1256" y="1379"/>
      <point x="795" y="1379" type="curve" smooth="yes"/>
      <point x="344" y="1379"/>
      <point x="87" y="1180"/>
      <point x="87" y="837" type="curve" smooth="yes"/>
      <point x="87" y="786" type="line" smooth="yes"/>
      <point x="87" y="578"/>
      <point x="181" y="446"/>
      <point x="372" y="377" type="curve"/>
      <point x="426" y="539" type="line"/>
      <point x="322" y="587"/>
      <point x="273" y="665"/>
      <point x="273" y="785" type="curve" smooth="yes"/>
      <point x="273" y="837" type="line" smooth="yes"/>
      <point x="273" y="1081"/>
      <point x="448" y="1215"/>
      <point x="794" y="1215" type="curve" smooth="yes"/>
      <point x="1150" y="1215"/>
      <point x="1345" y="1070"/>
      <point x="1345" y="811" type="curve" smooth="yes"/>
      <point x="1345" y="769" type="line" smooth="yes"/>
      <point x="1345" y="676"/>
      <point x="1320" y="612"/>
      <point x="1231" y="608" type="curve" smooth="yes"/>
      <point x="1210" y="607" type="line"/>
      <point x="1210" y="468" type="line"/>
      <point x="1271" y="467" type="line" smooth="yes"/>
      <point x="1372" y="465"/>
      <point x="1413" y="415"/>
      <point x="1413" y="321" type="curve" smooth="yes"/>
      <point x="1413" y="292" type="line" smooth="yes"/>
      <point x="1413" y="196"/>
      <point x="1369" y="140"/>
      <point x="1263" y="138" type="curve" smooth="yes"/>
      <point x="1199" y="137" type="line"/>
      <point x="1199" y="8" type="line"/>
    </contour>
    <contour>
      <point x="701" y="-22" type="curve" smooth="yes"/>
      <point x="944" y="-22"/>
      <point x="1071" y="104"/>
      <point x="1071" y="342" type="curve" smooth="yes"/>
      <point x="1071" y="390" type="line" smooth="yes"/>
      <point x="1071" y="626"/>
      <point x="944" y="753"/>
      <point x="705" y="753" type="curve" smooth="yes"/>
      <point x="493" y="753"/>
      <point x="379" y="647"/>
      <point x="344" y="476" type="curve"/>
      <point x="337" y="446" type="line"/>
      <point x="334" y="430"/>
      <point x="331" y="411"/>
      <point x="331" y="392" type="curve" smooth="yes"/>
      <point x="331" y="342" type="line" smooth="yes"/>
      <point x="331" y="104"/>
      <point x="458" y="-22"/>
    </contour>
    <contour>
      <point x="701" y="129" type="curve" smooth="yes"/>
      <point x="576" y="129"/>
      <point x="514" y="199"/>
      <point x="514" y="341" type="curve" smooth="yes"/>
      <point x="514" y="391" type="line" smooth="yes"/>
      <point x="514" y="533"/>
      <point x="576" y="603"/>
      <point x="701" y="603" type="curve" smooth="yes"/>
      <point x="824" y="603"/>
      <point x="887" y="533"/>
      <point x="887" y="391" type="curve" smooth="yes"/>
      <point x="887" y="341" type="line" smooth="yes"/>
      <point x="887" y="199"/>
      <point x="824" y="129"/>
    </contour>
  </outline>
</glyph>
<glyph name="VowelVocalicL.or" format="2">
  <advance width="1357"/>
  <unicode hex="0B0C"/>
  <anchor x="1055" y="1431" name="top2"/>
  <outline>
    <contour>
      <point x="702" y="-18" type="curve" smooth="yes"/>
      <point x="1084" y="-18"/>
      <point x="1286" y="131"/>
      <point x="1286" y="364" type="curve" smooth="yes"/>
      <point x="1286" y="376" type="line" smooth="yes"/>
      <point x="1286" y="570"/>
      <point x="1174" y="684"/>
      <point x="949" y="684" type="curve" smooth="yes"/>
      <point x="741" y="684"/>
      <point x="615" y="574"/>
      <point x="615" y="383" type="curve" smooth="yes"/>
      <point x="615" y="364" type="line" smooth="yes"/>
      <point x="615" y="224"/>
      <point x="679" y="149"/>
      <point x="796" y="104" type="curve"/>
      <point x="951" y="144" type="line"/>
      <point x="838" y="189"/>
      <point x="785" y="245"/>
      <point x="785" y="364" type="curve" smooth="yes"/>
      <point x="785" y="380" type="line" smooth="yes"/>
      <point x="785" y="486"/>
      <point x="842" y="545"/>
      <point x="948" y="545" type="curve" smooth="yes"/>
      <point x="1062" y="545"/>
      <point x="1115" y="488"/>
      <point x="1115" y="378" type="curve" smooth="yes"/>
      <point x="1115" y="367" type="line" smooth="yes"/>
      <point x="1115" y="254"/>
      <point x="1043" y="174"/>
      <point x="899" y="148" type="curve"/>
      <point x="802" y="133" type="line"/>
      <point x="771" y="131"/>
      <point x="761" y="131"/>
      <point x="710" y="131" type="curve" smooth="yes"/>
      <point x="413" y="131"/>
      <point x="276" y="226"/>
      <point x="276" y="404" type="curve" smooth="yes"/>
      <point x="276" y="419" type="line" smooth="yes"/>
      <point x="276" y="563"/>
      <point x="354" y="625"/>
      <point x="523" y="684" type="curve" smooth="yes"/>
      <point x="711" y="750" type="line" smooth="yes"/>
      <point x="954" y="835"/>
      <point x="1053" y="913"/>
      <point x="1053" y="1082" type="curve" smooth="yes"/>
      <point x="1053" y="1096" type="line" smooth="yes"/>
      <point x="1053" y="1275"/>
      <point x="923" y="1379"/>
      <point x="680" y="1379" type="curve" smooth="yes"/>
      <point x="443" y="1379"/>
      <point x="306" y="1280"/>
      <point x="306" y="1102" type="curve" smooth="yes"/>
      <point x="306" y="1091" type="line" smooth="yes"/>
      <point x="306" y="1041"/>
      <point x="317" y="1000"/>
      <point x="336" y="961" type="curve"/>
      <point x="517" y="955" type="line"/>
      <point x="498" y="994"/>
      <point x="488" y="1027"/>
      <point x="488" y="1070" type="curve" smooth="yes"/>
      <point x="488" y="1079" type="line" smooth="yes"/>
      <point x="488" y="1176"/>
      <point x="552" y="1229"/>
      <point x="677" y="1229" type="curve" smooth="yes"/>
      <point x="804" y="1229"/>
      <point x="870" y="1181"/>
      <point x="870" y="1089" type="curve" smooth="yes"/>
      <point x="870" y="1077" type="line" smooth="yes"/>
      <point x="870" y="984"/>
      <point x="807" y="941"/>
      <point x="663" y="893" type="curve" smooth="yes"/>
      <point x="470" y="829" type="line" smooth="yes"/>
      <point x="217" y="745"/>
      <point x="87" y="640"/>
      <point x="87" y="417" type="curve" smooth="yes"/>
      <point x="87" y="396" type="line" smooth="yes"/>
      <point x="87" y="125"/>
      <point x="301" y="-18"/>
    </contour>
  </outline>
</glyph>
<glyph name="VowelE.or" format="2">
  <advance width="1347"/>
  <unicode hex="0B0F"/>
  <anchor x="1081" y="1431" name="top2"/>
  <outline>
    <contour>
      <point x="913" y="0" type="line"/>
      <point x="1207" y="0" type="line"/>
      <point x="1207" y="1343" type="line"/>
      <point x="924" y="1343" type="line"/>
      <point x="507" y="825" type="line"/>
      <point x="724" y="825" type="line"/>
      <point x="1015" y="1199" type="line"/>
      <point x="1032" y="1199" type="line"/>
      <point x="1031" y="1077"/>
      <point x="1029" y="978"/>
      <point x="1029" y="856" type="curve" smooth="yes"/>
      <point x="1029" y="149" type="line"/>
      <point x="1010" y="149" type="line"/>
      <point x="18" y="1073" type="line"/>
      <point x="18" y="827" type="line"/>
    </contour>
  </outline>
</glyph>
<glyph name="VowelAi.or" format="2">
  <advance width="1805"/>
  <unicode hex="0B10"/>
  <anchor x="1749" y="1547" name="top2"/>
  <outline>
    <contour>
      <point x="1487" y="0" type="line"/>
      <point x="1665" y="0" type="line"/>
      <point x="1665" y="1334" type="line" smooth="yes"/>
      <point x="1665" y="1592"/>
      <point x="1556" y="1694"/>
      <point x="1282" y="1698" type="curve" smooth="yes"/>
      <point x="903" y="1703" type="line" smooth="yes"/>
      <point x="769" y="1705"/>
      <point x="705" y="1742"/>
      <point x="702" y="1842" type="curve" smooth="yes"/>
      <point x="701" y="1871" type="line"/>
      <point x="526" y="1871" type="line"/>
      <point x="526" y="1838" type="line" smooth="yes"/>
      <point x="526" y="1639"/>
      <point x="641" y="1556"/>
      <point x="891" y="1553" type="curve" smooth="yes"/>
      <point x="1268" y="1548" type="line" smooth="yes"/>
      <point x="1437" y="1546"/>
      <point x="1487" y="1481"/>
      <point x="1487" y="1327" type="curve" smooth="yes"/>
    </contour>
    <contour>
      <point x="1174" y="660" type="line"/>
      <point x="1529" y="660" type="line"/>
      <point x="1529" y="811" type="line"/>
      <point x="1174" y="811" type="line"/>
    </contour>
    <component base="VowelE.or"/>
  </outline>
</glyph>
<glyph name="VowelO.or" format="2">
  <advance width="1416"/>
  <unicode hex="0B13"/>
  <anchor x="1207" y="1431" name="top2"/>
  <outline>
    <contour>
      <point x="780" y="-21" type="curve" smooth="yes"/>
      <point x="1145" y="-21"/>
      <point x="1335" y="135"/>
      <point x="1335" y="384" type="curve" smooth="yes"/>
      <point x="1335" y="405" type="line" smooth="yes"/>
      <point x="1335" y="550"/>
      <point x="1266" y="648"/>
      <point x="1148" y="701" type="curve"/>
      <point x="1018" y="606" type="line"/>
      <point x="1100" y="568"/>
      <point x="1146" y="509"/>
      <point x="1146" y="410" type="curve" smooth="yes"/>
      <point x="1146" y="393" type="line" smooth="yes"/>
      <point x="1146" y="245"/>
      <point x="1033" y="146"/>
      <point x="782" y="146" type="curve" smooth="yes"/>
      <point x="451" y="146"/>
      <point x="293" y="315"/>
      <point x="293" y="612" type="curve" smooth="yes"/>
      <point x="293" y="817" type="line" smooth="yes"/>
      <point x="293" y="1021"/>
      <point x="333" y="1166"/>
      <point x="428" y="1344" type="curve"/>
      <point x="240" y="1344" type="line"/>
      <point x="148" y="1178"/>
      <point x="107" y="1015"/>
      <point x="107" y="807" type="curve" smooth="yes"/>
      <point x="107" y="609" type="line" smooth="yes"/>
      <point x="107" y="198"/>
      <point x="334" y="-21"/>
    </contour>
    <contour>
      <point x="775" y="543" type="line"/>
      <point x="837" y="543" type="line" smooth="yes"/>
      <point x="931" y="543"/>
      <point x="1033" y="560"/>
      <point x="1100" y="593" type="curve"/>
      <point x="1162" y="635" type="line"/>
      <point x="1259" y="700"/>
      <point x="1305" y="798"/>
      <point x="1305" y="935" type="curve" smooth="yes"/>
      <point x="1305" y="1022" type="line" smooth="yes"/>
      <point x="1305" y="1251"/>
      <point x="1173" y="1374"/>
      <point x="928" y="1374" type="curve" smooth="yes"/>
      <point x="688" y="1374"/>
      <point x="558" y="1249"/>
      <point x="558" y="1040" type="curve" smooth="yes"/>
      <point x="558" y="1011" type="line" smooth="yes"/>
      <point x="558" y="961"/>
      <point x="567" y="919"/>
      <point x="580" y="881" type="curve"/>
      <point x="764" y="871" type="line"/>
      <point x="751" y="913"/>
      <point x="743" y="952"/>
      <point x="743" y="996" type="curve" smooth="yes"/>
      <point x="743" y="1025" type="line" smooth="yes"/>
      <point x="743" y="1148"/>
      <point x="803" y="1214"/>
      <point x="927" y="1214" type="curve" smooth="yes"/>
      <point x="1050" y="1214"/>
      <point x="1119" y="1147"/>
      <point x="1119" y="1021" type="curve" smooth="yes"/>
      <point x="1119" y="932" type="line" smooth="yes"/>
      <point x="1119" y="775"/>
      <point x="1016" y="702"/>
      <point x="836" y="702" type="curve" smooth="yes"/>
      <point x="775" y="702" type="line"/>
    </contour>
  </outline>
</glyph>
<glyph name="VowelAu.or" format="2">
  <advance width="1874"/>
  <unicode hex="0B14"/>
  <anchor x="1818" y="1547" name="top2"/>
  <outline>
    <contour>
      <point x="1556" y="0" type="line"/>
      <point x="1734" y="0" type="line"/>
      <point x="1734" y="1334" type="line" smooth="yes"/>
      <point x="1734" y="1592"/>
      <point x="1625" y="1694"/>
      <point x="1351" y="1698" type="curve" smooth="yes"/>
      <point x="972" y="1703" type="line" smooth="yes"/>
      <point x="838" y="1705"/>
      <point x="774" y="1742"/>
      <point x="771" y="1842" type="curve" smooth="yes"/>
      <point x="770" y="1871" type="line"/>
      <point x="595" y="1871" type="line"/>
      <point x="595" y="1838" type="line" smooth="yes"/>
      <point x="595" y="1639"/>
      <point x="710" y="1556"/>
      <point x="960" y="1553" type="curve" smooth="yes"/>
      <point x="1337" y="1548" type="line" smooth="yes"/>
      <point x="1506" y="1546"/>
      <point x="1556" y="1481"/>
      <point x="1556" y="1327" type="curve" smooth="yes"/>
    </contour>
    <contour>
      <point x="1255" y="360" type="line"/>
      <point x="1610" y="360" type="line"/>
      <point x="1610" y="511" type="line"/>
      <point x="1255" y="511" type="line"/>
    </contour>
    <component base="VowelO.or"/>
  </outline>
</glyph>
<glyph name="Ga.or" format="2">
  <advance width="1640"/>
  <unicode hex="0B17"/>
  <anchor x="1500" y="47" name="bottom"/>
  <anchor x="825" y="46" name="nukta"/>
  <anchor x="800" y="1777" name="top1"/>
  <anchor x="1392" y="1431" name="top2"/>
  <outline>
    <contour>
      <point x="391" y="376" type="curve"/>
      <point x="448" y="532" type="line"/>
      <point x="330" y="576"/>
      <point x="273" y="660"/>
      <point x="273" y="793" type="curve" smooth="yes"/>
      <point x="273" y="839" type="line" smooth="yes"/>
      <point x="273" y="1083"/>
      <point x="439" y="1215"/>
      <point x="758" y="1215" type="curve" smooth="yes"/>
      <point x="1107" y="1215"/>
      <point x="1316" y="1072"/>
      <point x="1322" y="803" type="curve"/>
      <point x="1333" y="1048" type="line"/>
      <point x="1290" y="1249"/>
      <point x="1108" y="1379"/>
      <point x="746" y="1379" type="curve" smooth="yes"/>
      <point x="341" y="1379"/>
      <point x="87" y="1183"/>
      <point x="87" y="838" type="curve" smooth="yes"/>
      <point x="87" y="793" type="line" smooth="yes"/>
      <point x="87" y="578"/>
      <point x="188" y="441"/>
    </contour>
    <contour>
      <point x="736" y="-22" type="curve" smooth="yes"/>
      <point x="979" y="-22"/>
      <point x="1106" y="104"/>
      <point x="1106" y="342" type="curve" smooth="yes"/>
      <point x="1106" y="390" type="line" smooth="yes"/>
      <point x="1106" y="626"/>
      <point x="979" y="753"/>
      <point x="740" y="753" type="curve" smooth="yes"/>
      <point x="528" y="753"/>
      <point x="414" y="647"/>
      <point x="379" y="476" type="curve"/>
      <point x="372" y="446" type="line"/>
      <point x="369" y="430"/>
      <point x="366" y="411"/>
      <point x="366" y="392" type="curve" smooth="yes"/>
      <point x="366" y="342" type="line" smooth="yes"/>
      <point x="366" y="104"/>
      <point x="493" y="-22"/>
    </contour>
    <contour>
      <point x="736" y="129" type="curve" smooth="yes"/>
      <point x="611" y="129"/>
      <point x="549" y="199"/>
      <point x="549" y="341" type="curve" smooth="yes"/>
      <point x="549" y="391" type="line" smooth="yes"/>
      <point x="549" y="533"/>
      <point x="611" y="603"/>
      <point x="736" y="603" type="curve" smooth="yes"/>
      <point x="859" y="603"/>
      <point x="922" y="533"/>
      <point x="922" y="391" type="curve" smooth="yes"/>
      <point x="922" y="341" type="line" smooth="yes"/>
      <point x="922" y="199"/>
      <point x="859" y="129"/>
    </contour>
    <contour>
      <point x="1322" y="0" type="line"/>
      <point x="1500" y="0" type="line"/>
      <point x="1500" y="1344" type="line"/>
      <point x="1322" y="1344" type="line"/>
      <point x="1328" y="1098" type="line"/>
      <point x="1296" y="1098" type="line"/>
      <point x="1322" y="971" type="line"/>
    </contour>
  </outline>
</glyph>
<glyph name="Gha.or" format="2">
  <advance width="1611"/>
  <unicode hex="0B18"/>
  <anchor x="1471" y="47" name="bottom"/>
  <anchor x="850" y="46" name="nukta"/>
  <anchor x="1819" y="24" name="rasmall"/>
  <anchor x="782" y="1777" name="top1"/>
  <anchor x="1363" y="1431" name="top2"/>
  <outline>
    <contour>
      <point x="368" y="413" type="curve"/>
      <point x="430" y="568" type="line"/>
      <point x="319" y="615"/>
      <point x="273" y="683"/>
      <point x="273" y="802" type="curve" smooth="yes"/>
      <point x="273" y="852" type="line" smooth="yes"/>
      <point x="273" y="1088"/>
      <point x="430" y="1215"/>
      <point x="741" y="1215" type="curve" smooth="yes"/>
      <point x="1083" y="1215"/>
      <point x="1287" y="1072"/>
      <point x="1294" y="800" type="curve"/>
      <point x="1304" y="1048" type="line"/>
      <point x="1261" y="1249"/>
      <point x="1083" y="1379"/>
      <point x="720" y="1379" type="curve" smooth="yes"/>
      <point x="313" y="1379"/>
      <point x="87" y="1187"/>
      <point x="87" y="852" type="curve" smooth="yes"/>
      <point x="87" y="802" type="line" smooth="yes"/>
      <point x="87" y="598"/>
      <point x="185" y="474"/>
    </contour>
    <contour>
      <point x="603" y="-15" type="curve" smooth="yes"/>
      <point x="763" y="-15"/>
      <point x="841" y="43"/>
      <point x="873" y="140" type="curve"/>
      <point x="880" y="140" type="line"/>
      <point x="905" y="44"/>
      <point x="968" y="-15"/>
      <point x="1091" y="-15" type="curve" smooth="yes"/>
      <point x="1215" y="-15"/>
      <point x="1268" y="44"/>
      <point x="1288" y="139" type="curve"/>
      <point x="1340" y="139" type="line"/>
      <point x="1295" y="293" type="line"/>
      <point x="1283" y="204"/>
      <point x="1222" y="139"/>
      <point x="1133" y="139" type="curve" smooth="yes"/>
      <point x="1030" y="139"/>
      <point x="978" y="203"/>
      <point x="977" y="313" type="curve" smooth="yes"/>
      <point x="975" y="525" type="line"/>
      <point x="795" y="525" type="line"/>
      <point x="794" y="313" type="line" smooth="yes"/>
      <point x="793" y="203"/>
      <point x="735" y="139"/>
      <point x="628" y="139" type="curve" smooth="yes"/>
      <point x="518" y="139"/>
      <point x="462" y="203"/>
      <point x="462" y="313" type="curve" smooth="yes"/>
      <point x="462" y="417" type="line" smooth="yes"/>
      <point x="462" y="518"/>
      <point x="502" y="580"/>
      <point x="597" y="615" type="curve"/>
      <point x="597" y="786" type="line"/>
      <point x="441" y="750"/>
      <point x="345" y="665"/>
      <point x="304" y="537" type="curve"/>
      <point x="287" y="502" type="line"/>
      <point x="280" y="472"/>
      <point x="278" y="442"/>
      <point x="278" y="410" type="curve" smooth="yes"/>
      <point x="278" y="308" type="line" smooth="yes"/>
      <point x="278" y="95"/>
      <point x="393" y="-15"/>
    </contour>
    <contour>
      <point x="1293" y="0" type="line"/>
      <point x="1471" y="0" type="line"/>
      <point x="1471" y="1344" type="line"/>
      <point x="1293" y="1344" type="line"/>
      <point x="1299" y="1098" type="line"/>
      <point x="1268" y="1098" type="line"/>
      <point x="1294" y="904" type="line"/>
      <point x="1294" y="216" type="line"/>
      <point x="1298" y="198" type="line"/>
    </contour>
  </outline>
</glyph>
<glyph name="Nga.or" format="2">
  <advance width="1844"/>
  <unicode hex="0B19"/>
  <anchor x="913" y="47" name="bottom"/>
  <anchor x="812" y="46" name="nukta"/>
  <anchor x="784" y="1777" name="top1"/>
  <anchor x="1296" y="1431" name="top2"/>
  <outline>
    <contour>
      <point x="426" y="369" type="curve"/>
      <point x="473" y="531" type="line"/>
      <point x="335" y="571"/>
      <point x="273" y="658"/>
      <point x="273" y="797" type="curve" smooth="yes"/>
      <point x="273" y="837" type="line" smooth="yes"/>
      <point x="273" y="1082"/>
      <point x="452" y="1215"/>
      <point x="773" y="1215" type="curve" smooth="yes"/>
      <point x="1004" y="1215"/>
      <point x="1163" y="1155"/>
      <point x="1272" y="1072" type="curve"/>
      <point x="1355" y="1208" type="line"/>
      <point x="1240" y="1299"/>
      <point x="1046" y="1379"/>
      <point x="775" y="1379" type="curve" smooth="yes"/>
      <point x="352" y="1379"/>
      <point x="87" y="1180"/>
      <point x="87" y="837" type="curve" smooth="yes"/>
      <point x="87" y="795" type="line" smooth="yes"/>
      <point x="87" y="569"/>
      <point x="197" y="429"/>
    </contour>
    <contour>
      <point x="775" y="-22" type="curve" smooth="yes"/>
      <point x="1029" y="-22"/>
      <point x="1170" y="114"/>
      <point x="1170" y="296" type="curve" smooth="yes"/>
      <point x="1170" y="325" type="line" smooth="yes"/>
      <point x="1170" y="437"/>
      <point x="1147" y="495"/>
      <point x="1063" y="543" type="curve"/>
      <point x="1063" y="594" type="line"/>
      <point x="926" y="492" type="line"/>
      <point x="969" y="465"/>
      <point x="990" y="429"/>
      <point x="990" y="343" type="curve" smooth="yes"/>
      <point x="990" y="307" type="line" smooth="yes"/>
      <point x="990" y="198"/>
      <point x="910" y="129"/>
      <point x="779" y="129" type="curve" smooth="yes"/>
      <point x="630" y="129"/>
      <point x="552" y="206"/>
      <point x="552" y="347" type="curve" smooth="yes"/>
      <point x="552" y="421" type="line" smooth="yes"/>
      <point x="552" y="512"/>
      <point x="586" y="574"/>
      <point x="670" y="608" type="curve"/>
      <point x="670" y="777" type="line"/>
      <point x="520" y="741"/>
      <point x="419" y="648"/>
      <point x="388" y="517" type="curve"/>
      <point x="377" y="492" type="line"/>
      <point x="370" y="465"/>
      <point x="367" y="442"/>
      <point x="367" y="412" type="curve" smooth="yes"/>
      <point x="367" y="347" type="line" smooth="yes"/>
      <point x="367" y="110"/>
      <point x="508" y="-22"/>
    </contour>
    <contour>
      <point x="768" y="361" type="line"/>
      <point x="978" y="492" type="line"/>
      <point x="1024" y="523" type="line"/>
      <point x="1204" y="634" type="line"/>
      <point x="1204" y="815" type="line"/>
      <point x="768" y="547" type="line"/>
    </contour>
    <contour>
      <point x="1516" y="726" type="curve" smooth="yes"/>
      <point x="1705" y="726"/>
      <point x="1806" y="820"/>
      <point x="1806" y="993" type="curve" smooth="yes"/>
      <point x="1806" y="1038" type="line" smooth="yes"/>
      <point x="1806" y="1209"/>
      <point x="1705" y="1305"/>
      <point x="1522" y="1305" type="curve" smooth="yes"/>
      <point x="1412" y="1305"/>
      <point x="1329" y="1268"/>
      <point x="1285" y="1196" type="curve"/>
      <point x="1247" y="1144" type="line"/>
      <point x="1233" y="1110"/>
      <point x="1226" y="1071"/>
      <point x="1226" y="1029" type="curve" smooth="yes"/>
      <point x="1226" y="993" type="line" smooth="yes"/>
      <point x="1226" y="821"/>
      <point x="1325" y="726"/>
    </contour>
    <contour>
      <point x="1516" y="865" type="curve" smooth="yes"/>
      <point x="1431" y="865"/>
      <point x="1390" y="912"/>
      <point x="1390" y="1002" type="curve" smooth="yes"/>
      <point x="1390" y="1028" type="line" smooth="yes"/>
      <point x="1390" y="1118"/>
      <point x="1431" y="1166"/>
      <point x="1516" y="1166" type="curve" smooth="yes"/>
      <point x="1599" y="1166"/>
      <point x="1642" y="1119"/>
      <point x="1642" y="1028" type="curve" smooth="yes"/>
      <point x="1642" y="1002" type="line" smooth="yes"/>
      <point x="1642" y="912"/>
      <point x="1599" y="865"/>
    </contour>
  </outline>
</glyph>
<glyph name="Ca.or" format="2">
  <advance width="1586"/>
  <unicode hex="0B1A"/>
  <anchor x="904" y="47" name="bottom"/>
  <anchor x="785" y="46" name="nukta"/>
  <anchor x="782" y="1777" name="top1"/>
  <anchor x="1233" y="1431" name="top2"/>
  <outline>
    <contour>
      <point x="424" y="359" type="curve"/>
      <point x="471" y="521" type="line"/>
      <point x="339" y="567"/>
      <point x="273" y="650"/>
      <point x="273" y="793" type="curve" smooth="yes"/>
      <point x="273" y="839" type="line" smooth="yes"/>
      <point x="273" y="1082"/>
      <point x="449" y="1215"/>
      <point x="780" y="1215" type="curve" smooth="yes"/>
      <point x="1127" y="1215"/>
      <point x="1315" y="1069"/>
      <point x="1315" y="806" type="curve" smooth="yes"/>
      <point x="1315" y="713" type="line" smooth="yes"/>
      <point x="1315" y="619"/>
      <point x="1297" y="538"/>
      <point x="1260" y="457" type="curve"/>
      <point x="1444" y="477" type="line"/>
      <point x="1478" y="548"/>
      <point x="1500" y="633"/>
      <point x="1500" y="730" type="curve" smooth="yes"/>
      <point x="1500" y="806" type="line" smooth="yes"/>
      <point x="1500" y="1171"/>
      <point x="1233" y="1379"/>
      <point x="781" y="1379" type="curve" smooth="yes"/>
      <point x="346" y="1379"/>
      <point x="87" y="1181"/>
      <point x="87" y="837" type="curve" smooth="yes"/>
      <point x="87" y="793" type="line" smooth="yes"/>
      <point x="87" y="562"/>
      <point x="201" y="425"/>
    </contour>
    <contour>
      <point x="779" y="-22" type="curve" smooth="yes"/>
      <point x="1022" y="-22"/>
      <point x="1149" y="104"/>
      <point x="1149" y="342" type="curve" smooth="yes"/>
      <point x="1149" y="390" type="line" smooth="yes"/>
      <point x="1149" y="626"/>
      <point x="1022" y="753"/>
      <point x="783" y="753" type="curve" smooth="yes"/>
      <point x="571" y="753"/>
      <point x="457" y="647"/>
      <point x="422" y="476" type="curve"/>
      <point x="415" y="446" type="line"/>
      <point x="412" y="430"/>
      <point x="409" y="411"/>
      <point x="409" y="392" type="curve" smooth="yes"/>
      <point x="409" y="342" type="line" smooth="yes"/>
      <point x="409" y="104"/>
      <point x="536" y="-22"/>
    </contour>
    <contour>
      <point x="779" y="129" type="curve" smooth="yes"/>
      <point x="654" y="129"/>
      <point x="592" y="199"/>
      <point x="592" y="341" type="curve" smooth="yes"/>
      <point x="592" y="391" type="line" smooth="yes"/>
      <point x="592" y="533"/>
      <point x="654" y="603"/>
      <point x="779" y="603" type="curve" smooth="yes"/>
      <point x="902" y="603"/>
      <point x="965" y="533"/>
      <point x="965" y="391" type="curve" smooth="yes"/>
      <point x="965" y="341" type="line" smooth="yes"/>
      <point x="965" y="199"/>
      <point x="902" y="129"/>
    </contour>
  </outline>
</glyph>
<glyph name="Cha.or" format="2">
  <advance width="1586"/>
  <unicode hex="0B1B"/>
  <anchor x="1037" y="-219" name="bottom"/>
  <anchor x="778" y="-172" name="nukta"/>
  <anchor x="782" y="1777" name="top1"/>
  <anchor x="1233" y="1431" name="top2"/>
  <outline>
    <contour>
      <point x="424" y="359" type="curve"/>
      <point x="471" y="521" type="line"/>
      <point x="339" y="567"/>
      <point x="273" y="650"/>
      <point x="273" y="793" type="curve" smooth="yes"/>
      <point x="273" y="839" type="line" smooth="yes"/>
      <point x="273" y="1082"/>
      <point x="449" y="1215"/>
      <point x="780" y="1215" type="curve" smooth="yes"/>
      <point x="1127" y="1215"/>
      <point x="1315" y="1069"/>
      <point x="1315" y="806" type="curve" smooth="yes"/>
      <point x="1315" y="713" type="line" smooth="yes"/>
      <point x="1315" y="619"/>
      <point x="1297" y="538"/>
      <point x="1260" y="457" type="curve"/>
      <point x="1444" y="477" type="line"/>
      <point x="1478" y="548"/>
      <point x="1500" y="633"/>
      <point x="1500" y="730" type="curve" smooth="yes"/>
      <point x="1500" y="806" type="line" smooth="yes"/>
      <point x="1500" y="1171"/>
      <point x="1233" y="1379"/>
      <point x="781" y="1379" type="curve" smooth="yes"/>
      <point x="346" y="1379"/>
      <point x="87" y="1181"/>
      <point x="87" y="837" type="curve" smooth="yes"/>
      <point x="87" y="793" type="line" smooth="yes"/>
      <point x="87" y="562"/>
      <point x="201" y="425"/>
    </contour>
    <contour>
      <point x="500" y="-319" type="curve" smooth="yes"/>
      <point x="648" y="-319"/>
      <point x="737" y="-257"/>
      <point x="816" y="-132" type="curve"/>
      <point x="838" y="-69" type="line"/>
      <point x="899" y="24"/>
      <point x="959" y="75"/>
      <point x="1044" y="75" type="curve" smooth="yes"/>
      <point x="1125" y="75"/>
      <point x="1171" y="32"/>
      <point x="1171" y="-44" type="curve" smooth="yes"/>
      <point x="1171" y="-53" type="line" smooth="yes"/>
      <point x="1171" y="-137"/>
      <point x="1125" y="-180"/>
      <point x="1047" y="-180" type="curve" smooth="yes"/>
      <point x="954" y="-180"/>
      <point x="896" y="-133"/>
      <point x="838" y="-52" type="curve"/>
      <point x="800" y="19" type="line"/>
      <point x="702" y="139"/>
      <point x="603" y="194"/>
      <point x="475" y="194" type="curve" smooth="yes"/>
      <point x="316" y="194"/>
      <point x="221" y="104"/>
      <point x="221" y="-48" type="curve" smooth="yes"/>
      <point x="221" y="-68" type="line" smooth="yes"/>
      <point x="221" y="-227"/>
      <point x="313" y="-319"/>
    </contour>
    <contour>
      <point x="1058" y="-319" type="curve" smooth="yes"/>
      <point x="1245" y="-319"/>
      <point x="1337" y="-227"/>
      <point x="1337" y="-68" type="curve" smooth="yes"/>
      <point x="1337" y="-48" type="line" smooth="yes"/>
      <point x="1337" y="105"/>
      <point x="1242" y="194"/>
      <point x="1083" y="194" type="curve" smooth="yes"/>
      <point x="957" y="194"/>
      <point x="853" y="139"/>
      <point x="757" y="17" type="curve"/>
      <point x="719" y="-53" type="line"/>
      <point x="664" y="-133"/>
      <point x="605" y="-180"/>
      <point x="514" y="-180" type="curve" smooth="yes"/>
      <point x="434" y="-180"/>
      <point x="387" y="-137"/>
      <point x="387" y="-53" type="curve" smooth="yes"/>
      <point x="387" y="-44" type="line" smooth="yes"/>
      <point x="387" y="32"/>
      <point x="433" y="75"/>
      <point x="514" y="75" type="curve" smooth="yes"/>
      <point x="599" y="75"/>
      <point x="659" y="24"/>
      <point x="719" y="-69" type="curve"/>
      <point x="739" y="-132" type="line"/>
      <point x="810" y="-250"/>
      <point x="913" y="-319"/>
    </contour>
    <contour>
      <point x="780" y="40" type="curve" smooth="yes"/>
      <point x="1016" y="40"/>
      <point x="1149" y="157"/>
      <point x="1149" y="374" type="curve" smooth="yes"/>
      <point x="1149" y="404" type="line" smooth="yes"/>
      <point x="1149" y="640"/>
      <point x="1022" y="767"/>
      <point x="784" y="767" type="curve" smooth="yes"/>
      <point x="572" y="767"/>
      <point x="457" y="661"/>
      <point x="422" y="490" type="curve"/>
      <point x="415" y="460" type="line"/>
      <point x="412" y="444"/>
      <point x="409" y="425"/>
      <point x="409" y="406" type="curve" smooth="yes"/>
      <point x="409" y="374" type="line" smooth="yes"/>
      <point x="409" y="157"/>
      <point x="543" y="40"/>
    </contour>
    <contour>
      <point x="779" y="161" type="curve" smooth="yes"/>
      <point x="654" y="161"/>
      <point x="592" y="231"/>
      <point x="592" y="373" type="curve" smooth="yes"/>
      <point x="592" y="405" type="line" smooth="yes"/>
      <point x="592" y="547"/>
      <point x="654" y="617"/>
      <point x="779" y="617" type="curve" smooth="yes"/>
      <point x="902" y="617"/>
      <point x="965" y="547"/>
      <point x="965" y="405" type="curve" smooth="yes"/>
      <point x="965" y="373" type="line" smooth="yes"/>
      <point x="965" y="231"/>
      <point x="902" y="161"/>
    </contour>
  </outline>
</glyph>
<glyph name="Jha.or" format="2">
  <advance width="1556"/>
  <unicode hex="0B1D"/>
  <anchor x="880" y="47" name="bottom"/>
  <anchor x="785" y="46" name="nukta"/>
  <anchor x="788" y="1777" name="top1"/>
  <anchor x="1156" y="1431" name="top2"/>
  <outline>
    <contour>
      <point x="399" y="378" type="curve"/>
      <point x="456" y="533" type="line"/>
      <point x="333" y="579"/>
      <point x="273" y="663"/>
      <point x="273" y="800" type="curve" smooth="yes"/>
      <point x="273" y="840" type="line" smooth="yes"/>
      <point x="273" y="1083"/>
      <point x="415" y="1214"/>
      <point x="688" y="1214" type="curve" smooth="yes"/>
      <point x="774" y="1214"/>
      <point x="823" y="1205"/>
      <point x="866" y="1193" type="curve"/>
      <point x="796" y="1311" type="line"/>
      <point x="784" y="1262"/>
      <point x="772" y="1192"/>
      <point x="772" y="1141" type="curve" smooth="yes"/>
      <point x="772" y="1109" type="line" smooth="yes"/>
      <point x="772" y="900"/>
      <point x="898" y="789"/>
      <point x="1131" y="789" type="curve" smooth="yes"/>
      <point x="1363" y="789"/>
      <point x="1488" y="904"/>
      <point x="1488" y="1118" type="curve" smooth="yes"/>
      <point x="1488" y="1138" type="line" smooth="yes"/>
      <point x="1488" y="1203"/>
      <point x="1474" y="1280"/>
      <point x="1456" y="1343" type="curve"/>
      <point x="1277" y="1343" type="line"/>
      <point x="1293" y="1274"/>
      <point x="1305" y="1222"/>
      <point x="1305" y="1152" type="curve" smooth="yes"/>
      <point x="1305" y="1136" type="line" smooth="yes"/>
      <point x="1305" y="1009"/>
      <point x="1247" y="940"/>
      <point x="1131" y="940" type="curve" smooth="yes"/>
      <point x="1014" y="940"/>
      <point x="955" y="1009"/>
      <point x="955" y="1136" type="curve" smooth="yes"/>
      <point x="955" y="1152" type="line" smooth="yes"/>
      <point x="955" y="1222"/>
      <point x="965" y="1274"/>
      <point x="982" y="1339" type="curve"/>
      <point x="906" y="1358"/>
      <point x="801" y="1377"/>
      <point x="678" y="1377" type="curve" smooth="yes"/>
      <point x="314" y="1377"/>
      <point x="87" y="1178"/>
      <point x="87" y="840" type="curve" smooth="yes"/>
      <point x="87" y="800" type="line" smooth="yes"/>
      <point x="87" y="581"/>
      <point x="191" y="444"/>
    </contour>
    <contour>
      <point x="1433" y="-135" type="line"/>
      <point x="1433" y="47" type="line"/>
      <point x="1071" y="215" type="line"/>
      <point x="968" y="88" type="line"/>
    </contour>
    <contour>
      <point x="753" y="-22" type="curve" smooth="yes"/>
      <point x="888" y="-22"/>
      <point x="985" y="18"/>
      <point x="1045" y="95" type="curve"/>
      <point x="1083" y="154" type="line"/>
      <point x="1111" y="205"/>
      <point x="1123" y="263"/>
      <point x="1123" y="342" type="curve" smooth="yes"/>
      <point x="1123" y="381" type="line" smooth="yes"/>
      <point x="1123" y="617"/>
      <point x="996" y="744"/>
      <point x="757" y="744" type="curve" smooth="yes"/>
      <point x="545" y="744"/>
      <point x="431" y="638"/>
      <point x="396" y="467" type="curve"/>
      <point x="389" y="437" type="line"/>
      <point x="386" y="421"/>
      <point x="383" y="402"/>
      <point x="383" y="383" type="curve" smooth="yes"/>
      <point x="383" y="342" type="line" smooth="yes"/>
      <point x="383" y="104"/>
      <point x="510" y="-22"/>
    </contour>
    <contour>
      <point x="753" y="129" type="curve" smooth="yes"/>
      <point x="628" y="129"/>
      <point x="566" y="199"/>
      <point x="566" y="341" type="curve" smooth="yes"/>
      <point x="566" y="382" type="line" smooth="yes"/>
      <point x="566" y="524"/>
      <point x="628" y="594"/>
      <point x="753" y="594" type="curve" smooth="yes"/>
      <point x="876" y="594"/>
      <point x="939" y="524"/>
      <point x="939" y="382" type="curve" smooth="yes"/>
      <point x="939" y="341" type="line" smooth="yes"/>
      <point x="939" y="199"/>
      <point x="876" y="129"/>
    </contour>
  </outline>
</glyph>
<glyph name="Nya.or" format="2">
  <advance width="1589"/>
  <unicode hex="0B1E"/>
  <anchor x="974" y="47" name="bottom"/>
  <anchor x="812" y="46" name="nukta"/>
  <anchor x="807" y="1777" name="top1"/>
  <anchor x="1325" y="1431" name="top2"/>
  <outline>
    <contour>
      <point x="558" y="277" type="curve"/>
      <point x="734" y="267" type="line"/>
      <point x="711" y="326"/>
      <point x="699" y="378"/>
      <point x="699" y="439" type="curve" smooth="yes"/>
      <point x="699" y="483" type="line" smooth="yes"/>
      <point x="699" y="563"/>
      <point x="734" y="609"/>
      <point x="807" y="609" type="curve" smooth="yes"/>
      <point x="879" y="609"/>
      <point x="916" y="563"/>
      <point x="916" y="483" type="curve" smooth="yes"/>
      <point x="917" y="310" type="line"/>
      <point x="1093" y="310" type="line"/>
      <point x="1094" y="483" type="line" smooth="yes"/>
      <point x="1094" y="563"/>
      <point x="1132" y="609"/>
      <point x="1205" y="609" type="curve" smooth="yes"/>
      <point x="1279" y="609"/>
      <point x="1313" y="559"/>
      <point x="1313" y="474" type="curve" smooth="yes"/>
      <point x="1313" y="400" type="line" smooth="yes"/>
      <point x="1313" y="223"/>
      <point x="1174" y="138"/>
      <point x="842" y="138" type="curve" smooth="yes"/>
      <point x="470" y="138"/>
      <point x="285" y="236"/>
      <point x="285" y="453" type="curve" smooth="yes"/>
      <point x="285" y="513" type="line" smooth="yes"/>
      <point x="285" y="597"/>
      <point x="307" y="656"/>
      <point x="359" y="715" type="curve"/>
      <point x="224" y="821" type="line"/>
      <point x="154" y="745"/>
      <point x="105" y="643"/>
      <point x="105" y="512" type="curve" smooth="yes"/>
      <point x="105" y="448" type="line" smooth="yes"/>
      <point x="105" y="131"/>
      <point x="357" y="-22"/>
      <point x="837" y="-22" type="curve" smooth="yes"/>
      <point x="1267" y="-22"/>
      <point x="1491" y="125"/>
      <point x="1491" y="403" type="curve" smooth="yes"/>
      <point x="1491" y="486" type="line" smooth="yes"/>
      <point x="1491" y="656"/>
      <point x="1401" y="742"/>
      <point x="1238" y="742" type="curve" smooth="yes"/>
      <point x="1099" y="742"/>
      <point x="1025" y="696"/>
      <point x="1001" y="621" type="curve"/>
      <point x="994" y="621" type="line"/>
      <point x="971" y="684"/>
      <point x="904" y="719"/>
      <point x="766" y="719" type="curve" smooth="yes"/>
      <point x="604" y="719"/>
      <point x="521" y="640"/>
      <point x="521" y="498" type="curve" smooth="yes"/>
      <point x="521" y="454" type="line" smooth="yes"/>
      <point x="521" y="387"/>
      <point x="533" y="331"/>
    </contour>
    <contour>
      <point x="558" y="874" type="curve"/>
      <point x="734" y="864" type="line"/>
      <point x="711" y="923"/>
      <point x="699" y="975"/>
      <point x="699" y="1036" type="curve" smooth="yes"/>
      <point x="699" y="1080" type="line" smooth="yes"/>
      <point x="699" y="1160"/>
      <point x="734" y="1206"/>
      <point x="807" y="1206" type="curve" smooth="yes"/>
      <point x="879" y="1206"/>
      <point x="915" y="1157"/>
      <point x="916" y="1073" type="curve" smooth="yes"/>
      <point x="917" y="907" type="line"/>
      <point x="1093" y="907" type="line"/>
      <point x="1094" y="1073" type="line" smooth="yes"/>
      <point x="1095" y="1157"/>
      <point x="1132" y="1206"/>
      <point x="1205" y="1206" type="curve" smooth="yes"/>
      <point x="1279" y="1206"/>
      <point x="1313" y="1156"/>
      <point x="1313" y="1071" type="curve" smooth="yes"/>
      <point x="1313" y="1001" type="line" smooth="yes"/>
      <point x="1313" y="824"/>
      <point x="1185" y="735"/>
      <point x="864" y="735" type="curve" smooth="yes"/>
      <point x="464" y="735"/>
      <point x="285" y="846"/>
      <point x="285" y="1065" type="curve" smooth="yes"/>
      <point x="285" y="1096" type="line" smooth="yes"/>
      <point x="285" y="1192"/>
      <point x="300" y="1261"/>
      <point x="342" y="1346" type="curve"/>
      <point x="163" y="1346" type="line"/>
      <point x="123" y="1268"/>
      <point x="105" y="1192"/>
      <point x="105" y="1096" type="curve" smooth="yes"/>
      <point x="105" y="1054" type="line" smooth="yes"/>
      <point x="105" y="933"/>
      <point x="142" y="838"/>
      <point x="222" y="764" type="curve"/>
      <point x="281" y="710" type="line"/>
      <point x="357" y="649"/>
      <point x="486" y="603"/>
      <point x="608" y="590" type="curve"/>
      <point x="779" y="637" type="line"/>
      <point x="978" y="604" type="line"/>
      <point x="1091" y="615"/>
      <point x="1198" y="647"/>
      <point x="1292" y="682" type="curve"/>
      <point x="1426" y="740"/>
      <point x="1491" y="846"/>
      <point x="1491" y="997" type="curve" smooth="yes"/>
      <point x="1491" y="1072" type="line" smooth="yes"/>
      <point x="1491" y="1261"/>
      <point x="1407" y="1356"/>
      <point x="1240" y="1356" type="curve" smooth="yes"/>
      <point x="1106" y="1356"/>
      <point x="1034" y="1297"/>
      <point x="1010" y="1204" type="curve"/>
      <point x="1003" y="1204" type="line"/>
      <point x="981" y="1297"/>
      <point x="911" y="1356"/>
      <point x="781" y="1356" type="curve" smooth="yes"/>
      <point x="611" y="1356"/>
      <point x="521" y="1261"/>
      <point x="521" y="1083" type="curve" smooth="yes"/>
      <point x="521" y="1051" type="line" smooth="yes"/>
      <point x="521" y="984"/>
      <point x="533" y="928"/>
    </contour>
  </outline>
</glyph>
<glyph name="Tta.or" format="2">
  <advance width="1571"/>
  <unicode hex="0B1F"/>
  <anchor x="912" y="47" name="bottom"/>
  <anchor x="799" y="46" name="nukta"/>
  <anchor x="767" y="1776" name="top1"/>
  <anchor x="1126" y="1431" name="top2"/>
  <outline>
    <contour>
      <point x="424" y="359" type="curve"/>
      <point x="471" y="521" type="line"/>
      <point x="339" y="567"/>
      <point x="273" y="650"/>
      <point x="273" y="793" type="curve" smooth="yes"/>
      <point x="273" y="839" type="line" smooth="yes"/>
      <point x="273" y="1083"/>
      <point x="436" y="1215"/>
      <point x="745" y="1215" type="curve" smooth="yes"/>
      <point x="1063" y="1215"/>
      <point x="1277" y="1072"/>
      <point x="1283" y="793" type="curve"/>
      <point x="1294" y="1048" type="line"/>
      <point x="1251" y="1249"/>
      <point x="1072" y="1379"/>
      <point x="725" y="1379" type="curve" smooth="yes"/>
      <point x="333" y="1379"/>
      <point x="87" y="1183"/>
      <point x="87" y="837" type="curve" smooth="yes"/>
      <point x="87" y="793" type="line" smooth="yes"/>
      <point x="87" y="562"/>
      <point x="201" y="425"/>
    </contour>
    <contour>
      <point x="785" y="-22" type="curve" smooth="yes"/>
      <point x="1028" y="-22"/>
      <point x="1155" y="104"/>
      <point x="1155" y="342" type="curve" smooth="yes"/>
      <point x="1155" y="390" type="line" smooth="yes"/>
      <point x="1155" y="626"/>
      <point x="1028" y="753"/>
      <point x="789" y="753" type="curve" smooth="yes"/>
      <point x="577" y="753"/>
      <point x="463" y="647"/>
      <point x="428" y="476" type="curve"/>
      <point x="421" y="446" type="line"/>
      <point x="418" y="430"/>
      <point x="415" y="411"/>
      <point x="415" y="392" type="curve" smooth="yes"/>
      <point x="415" y="342" type="line" smooth="yes"/>
      <point x="415" y="104"/>
      <point x="542" y="-22"/>
    </contour>
    <contour>
      <point x="785" y="129" type="curve" smooth="yes"/>
      <point x="660" y="129"/>
      <point x="598" y="199"/>
      <point x="598" y="341" type="curve" smooth="yes"/>
      <point x="598" y="391" type="line" smooth="yes"/>
      <point x="598" y="533"/>
      <point x="660" y="603"/>
      <point x="785" y="603" type="curve" smooth="yes"/>
      <point x="908" y="603"/>
      <point x="971" y="533"/>
      <point x="971" y="391" type="curve" smooth="yes"/>
      <point x="971" y="341" type="line" smooth="yes"/>
      <point x="971" y="199"/>
      <point x="908" y="129"/>
    </contour>
    <contour>
      <point x="1283" y="697" type="line"/>
      <point x="1461" y="697" type="line"/>
      <point x="1461" y="1344" type="line"/>
      <point x="1283" y="1344" type="line"/>
      <point x="1289" y="1098" type="line"/>
      <point x="1257" y="1098" type="line"/>
      <point x="1283" y="971" type="line"/>
    </contour>
  </outline>
</glyph>
<glyph name="Ttha.or" format="2">
  <advance width="1442"/>
  <unicode hex="0B20"/>
  <anchor x="853" y="47" name="bottom"/>
  <anchor x="721" y="46" name="nukta"/>
  <anchor x="721" y="1777" name="top1"/>
  <anchor x="1112" y="1431" name="top2"/>
  <outline>
    <contour>
      <point x="721" y="-23" type="curve" smooth="yes"/>
      <point x="1117" y="-23"/>
      <point x="1341" y="198"/>
      <point x="1341" y="591" type="curve" smooth="yes"/>
      <point x="1341" y="764" type="line" smooth="yes"/>
      <point x="1341" y="1155"/>
      <point x="1117" y="1376"/>
      <point x="721" y="1376" type="curve" smooth="yes"/>
      <point x="327" y="1376"/>
      <point x="101" y="1156"/>
      <point x="101" y="764" type="curve" smooth="yes"/>
      <point x="101" y="591" type="line" smooth="yes"/>
      <point x="101" y="198"/>
      <point x="327" y="-23"/>
    </contour>
    <contour>
      <point x="721" y="142" type="curve" smooth="yes"/>
      <point x="442" y="142"/>
      <point x="288" y="295"/>
      <point x="288" y="588" type="curve" smooth="yes"/>
      <point x="288" y="766" type="line" smooth="yes"/>
      <point x="288" y="1060"/>
      <point x="442" y="1212"/>
      <point x="721" y="1212" type="curve" smooth="yes"/>
      <point x="1000" y="1212"/>
      <point x="1154" y="1060"/>
      <point x="1154" y="766" type="curve" smooth="yes"/>
      <point x="1154" y="588" type="line" smooth="yes"/>
      <point x="1154" y="295"/>
      <point x="1000" y="142"/>
    </contour>
  </outline>
</glyph>
<glyph name="Dda.or" format="2">
  <advance width="1629"/>
  <unicode hex="0B21"/>
  <anchor x="912" y="47" name="bottom"/>
  <anchor x="796" y="46" name="nukta"/>
  <anchor x="812" y="1777" name="top1"/>
  <anchor x="1269" y="1431" name="top2"/>
  <outline>
    <contour>
      <point x="425" y="367" type="curve"/>
      <point x="472" y="529" type="line"/>
      <point x="335" y="571"/>
      <point x="273" y="656"/>
      <point x="273" y="796" type="curve" smooth="yes"/>
      <point x="273" y="840" type="line" smooth="yes"/>
      <point x="273" y="1082"/>
      <point x="456" y="1215"/>
      <point x="802" y="1215" type="curve" smooth="yes"/>
      <point x="1163" y="1215"/>
      <point x="1358" y="1068"/>
      <point x="1358" y="802" type="curve" smooth="yes"/>
      <point x="1358" y="713" type="line" smooth="yes"/>
      <point x="1358" y="619"/>
      <point x="1340" y="538"/>
      <point x="1303" y="457" type="curve"/>
      <point x="1486" y="477" type="line"/>
      <point x="1521" y="548"/>
      <point x="1543" y="633"/>
      <point x="1543" y="730" type="curve" smooth="yes"/>
      <point x="1543" y="802" type="line" smooth="yes"/>
      <point x="1543" y="1171"/>
      <point x="1269" y="1379"/>
      <point x="802" y="1379" type="curve" smooth="yes"/>
      <point x="354" y="1379"/>
      <point x="87" y="1180"/>
      <point x="87" y="838" type="curve" smooth="yes"/>
      <point x="87" y="794" type="line" smooth="yes"/>
      <point x="87" y="567"/>
      <point x="197" y="429"/>
    </contour>
    <contour>
      <point x="775" y="-22" type="curve" smooth="yes"/>
      <point x="1029" y="-22"/>
      <point x="1170" y="114"/>
      <point x="1170" y="296" type="curve" smooth="yes"/>
      <point x="1170" y="325" type="line" smooth="yes"/>
      <point x="1170" y="437"/>
      <point x="1147" y="495"/>
      <point x="1063" y="543" type="curve"/>
      <point x="1063" y="594" type="line"/>
      <point x="926" y="492" type="line"/>
      <point x="969" y="465"/>
      <point x="990" y="429"/>
      <point x="990" y="343" type="curve" smooth="yes"/>
      <point x="990" y="307" type="line" smooth="yes"/>
      <point x="990" y="198"/>
      <point x="910" y="129"/>
      <point x="779" y="129" type="curve" smooth="yes"/>
      <point x="630" y="129"/>
      <point x="552" y="206"/>
      <point x="552" y="347" type="curve" smooth="yes"/>
      <point x="552" y="421" type="line" smooth="yes"/>
      <point x="552" y="512"/>
      <point x="586" y="574"/>
      <point x="670" y="608" type="curve"/>
      <point x="670" y="777" type="line"/>
      <point x="520" y="741"/>
      <point x="419" y="648"/>
      <point x="388" y="517" type="curve"/>
      <point x="377" y="492" type="line"/>
      <point x="370" y="465"/>
      <point x="367" y="442"/>
      <point x="367" y="412" type="curve" smooth="yes"/>
      <point x="367" y="347" type="line" smooth="yes"/>
      <point x="367" y="110"/>
      <point x="508" y="-22"/>
    </contour>
    <contour>
      <point x="768" y="361" type="line"/>
      <point x="978" y="492" type="line"/>
      <point x="1024" y="523" type="line"/>
      <point x="1204" y="634" type="line"/>
      <point x="1204" y="815" type="line"/>
      <point x="768" y="547" type="line"/>
    </contour>
  </outline>
</glyph>
<glyph name="Ddha.or" format="2">
  <advance width="1631"/>
  <unicode hex="0B22"/>
  <anchor x="920" y="47" name="bottom"/>
  <anchor x="813" y="46" name="nukta"/>
  <anchor x="813" y="1777" name="top1"/>
  <anchor x="1270" y="1431" name="top2"/>
  <outline>
    <contour>
      <point x="422" y="365" type="curve"/>
      <point x="469" y="527" type="line"/>
      <point x="334" y="569"/>
      <point x="273" y="655"/>
      <point x="273" y="796" type="curve" smooth="yes"/>
      <point x="273" y="840" type="line" smooth="yes"/>
      <point x="273" y="1082"/>
      <point x="456" y="1215"/>
      <point x="800" y="1215" type="curve" smooth="yes"/>
      <point x="1163" y="1215"/>
      <point x="1360" y="1064"/>
      <point x="1360" y="794" type="curve" smooth="yes"/>
      <point x="1360" y="713" type="line" smooth="yes"/>
      <point x="1360" y="619"/>
      <point x="1345" y="538"/>
      <point x="1315" y="457" type="curve"/>
      <point x="1498" y="477" type="line"/>
      <point x="1527" y="548"/>
      <point x="1545" y="633"/>
      <point x="1545" y="730" type="curve" smooth="yes"/>
      <point x="1545" y="794" type="line" smooth="yes"/>
      <point x="1545" y="1167"/>
      <point x="1269" y="1379"/>
      <point x="801" y="1379" type="curve" smooth="yes"/>
      <point x="354" y="1379"/>
      <point x="87" y="1180"/>
      <point x="87" y="838" type="curve" smooth="yes"/>
      <point x="87" y="794" type="line" smooth="yes"/>
      <point x="87" y="566"/>
      <point x="196" y="427"/>
    </contour>
    <contour>
      <point x="1318" y="-83" type="curve"/>
      <point x="1318" y="71" type="line"/>
      <point x="1236" y="79"/>
      <point x="1152" y="96"/>
      <point x="1080" y="119" type="curve"/>
      <point x="935" y="42" type="line"/>
      <point x="1037" y="-15"/>
      <point x="1188" y="-70"/>
    </contour>
    <contour>
      <point x="783" y="-19" type="curve" smooth="yes"/>
      <point x="880" y="-19"/>
      <point x="961" y="0"/>
      <point x="1019" y="30" type="curve"/>
      <point x="1092" y="78" type="line"/>
      <point x="1193" y="136"/>
      <point x="1243" y="226"/>
      <point x="1243" y="351" type="curve" smooth="yes"/>
      <point x="1243" y="428" type="line" smooth="yes"/>
      <point x="1243" y="596"/>
      <point x="1149" y="698"/>
      <point x="966" y="698" type="curve" smooth="yes"/>
      <point x="788" y="698"/>
      <point x="690" y="596"/>
      <point x="690" y="432" type="curve" smooth="yes"/>
      <point x="690" y="370" type="line" smooth="yes"/>
      <point x="690" y="236"/>
      <point x="750" y="151"/>
      <point x="868" y="104" type="curve"/>
      <point x="1006" y="152" type="line"/>
      <point x="904" y="194"/>
      <point x="857" y="257"/>
      <point x="857" y="361" type="curve" smooth="yes"/>
      <point x="857" y="432" type="line" smooth="yes"/>
      <point x="857" y="516"/>
      <point x="893" y="559"/>
      <point x="963" y="559" type="curve" smooth="yes"/>
      <point x="1038" y="559"/>
      <point x="1073" y="511"/>
      <point x="1073" y="432" type="curve" smooth="yes"/>
      <point x="1073" y="338" type="line" smooth="yes"/>
      <point x="1073" y="249"/>
      <point x="1033" y="185"/>
      <point x="943" y="153" type="curve"/>
      <point x="887" y="136" type="line"/>
      <point x="856" y="129"/>
      <point x="829" y="127"/>
      <point x="785" y="127" type="curve" smooth="yes"/>
      <point x="602" y="127"/>
      <point x="516" y="214"/>
      <point x="516" y="345" type="curve" smooth="yes"/>
      <point x="516" y="427" type="line" smooth="yes"/>
      <point x="516" y="518"/>
      <point x="548" y="581"/>
      <point x="627" y="615" type="curve"/>
      <point x="627" y="784" type="line"/>
      <point x="481" y="748"/>
      <point x="382" y="655"/>
      <point x="352" y="525" type="curve"/>
      <point x="341" y="500" type="line"/>
      <point x="334" y="473"/>
      <point x="331" y="450"/>
      <point x="331" y="420" type="curve" smooth="yes"/>
      <point x="331" y="343" type="line" smooth="yes"/>
      <point x="331" y="111"/>
      <point x="482" y="-19"/>
    </contour>
  </outline>
</glyph>
<glyph name="Nna.or" format="2">
  <advance width="1541"/>
  <unicode hex="0B23"/>
  <anchor x="1401" y="47" name="bottom"/>
  <anchor x="804" y="46" name="nukta"/>
  <anchor x="796" y="1776" name="top1"/>
  <anchor x="1294" y="1431" name="top2"/>
  <outline>
    <contour>
      <point x="1401" y="0" type="line"/>
      <point x="1401" y="1344" type="line"/>
      <point x="1224" y="1344" type="line"/>
      <point x="1229" y="1163" type="line"/>
      <point x="1206" y="1163" type="line"/>
      <point x="1223" y="1041" type="line"/>
      <point x="1223" y="0" type="line"/>
    </contour>
    <contour>
      <point x="845" y="1379" type="curve" smooth="yes"/>
      <point x="579" y="1379"/>
      <point x="437" y="1258"/>
      <point x="437" y="1053" type="curve" smooth="yes"/>
      <point x="437" y="1019"/>
      <point x="443" y="981"/>
      <point x="454" y="949" type="curve"/>
      <point x="636" y="985" type="line"/>
      <point x="628" y="1006"/>
      <point x="624" y="1026"/>
      <point x="624" y="1049" type="curve" smooth="yes"/>
      <point x="624" y="1160"/>
      <point x="702" y="1219"/>
      <point x="868" y="1219" type="curve" smooth="yes"/>
      <point x="1086" y="1219"/>
      <point x="1210" y="1098"/>
      <point x="1223" y="895" type="curve"/>
      <point x="1277" y="927" type="line"/>
      <point x="1229" y="1114" type="line"/>
      <point x="1209" y="1281"/>
      <point x="1086" y="1379"/>
    </contour>
    <contour>
      <point x="901" y="822" type="curve"/>
      <point x="892" y="975" type="line"/>
      <point x="823" y="1007"/>
      <point x="715" y="1035"/>
      <point x="588" y="1042" type="curve"/>
      <point x="502" y="1041" type="line"/>
      <point x="236" y="1020"/>
      <point x="89" y="841"/>
      <point x="89" y="562" type="curve" smooth="yes"/>
      <point x="89" y="449" type="line" smooth="yes"/>
      <point x="89" y="138"/>
      <point x="261" y="-24"/>
      <point x="565" y="-24" type="curve" smooth="yes"/>
      <point x="846" y="-24"/>
      <point x="983" y="113"/>
      <point x="983" y="337" type="curve" smooth="yes"/>
      <point x="983" y="358" type="line" smooth="yes"/>
      <point x="983" y="580"/>
      <point x="860" y="708"/>
      <point x="610" y="708" type="curve" smooth="yes"/>
      <point x="435" y="708"/>
      <point x="327" y="632"/>
      <point x="279" y="524" type="curve"/>
      <point x="251" y="524" type="line"/>
      <point x="262" y="328" type="line"/>
      <point x="306" y="456"/>
      <point x="413" y="555"/>
      <point x="577" y="555" type="curve" smooth="yes"/>
      <point x="724" y="555"/>
      <point x="798" y="484"/>
      <point x="798" y="354" type="curve" smooth="yes"/>
      <point x="798" y="337" type="line" smooth="yes"/>
      <point x="798" y="206"/>
      <point x="725" y="131"/>
      <point x="569" y="131" type="curve" smooth="yes"/>
      <point x="380" y="131"/>
      <point x="272" y="230"/>
      <point x="272" y="423" type="curve" smooth="yes"/>
      <point x="272" y="467" type="line"/>
      <point x="272" y="490" type="line"/>
      <point x="272" y="568" type="line" smooth="yes"/>
      <point x="272" y="779"/>
      <point x="373" y="885"/>
      <point x="591" y="885" type="curve" smooth="yes"/>
      <point x="703" y="885"/>
      <point x="806" y="860"/>
    </contour>
  </outline>
</glyph>
<glyph name="Ta.or" format="2">
  <advance width="1629"/>
  <unicode hex="0B24"/>
  <anchor x="935" y="47" name="bottom"/>
  <anchor x="806" y="46" name="nukta"/>
  <anchor x="806" y="1777" name="top1"/>
  <anchor x="1262" y="1431" name="top2"/>
  <outline>
    <contour>
      <point x="425" y="367" type="curve"/>
      <point x="472" y="529" type="line"/>
      <point x="335" y="571"/>
      <point x="273" y="656"/>
      <point x="273" y="796" type="curve" smooth="yes"/>
      <point x="273" y="840" type="line" smooth="yes"/>
      <point x="273" y="1082"/>
      <point x="456" y="1215"/>
      <point x="802" y="1215" type="curve" smooth="yes"/>
      <point x="1163" y="1215"/>
      <point x="1358" y="1068"/>
      <point x="1358" y="802" type="curve" smooth="yes"/>
      <point x="1358" y="713" type="line" smooth="yes"/>
      <point x="1358" y="619"/>
      <point x="1340" y="538"/>
      <point x="1303" y="457" type="curve"/>
      <point x="1486" y="477" type="line"/>
      <point x="1521" y="548"/>
      <point x="1543" y="633"/>
      <point x="1543" y="730" type="curve" smooth="yes"/>
      <point x="1543" y="810" type="line" smooth="yes"/>
      <point x="1543" y="1171"/>
      <point x="1269" y="1379"/>
      <point x="803" y="1379" type="curve" smooth="yes"/>
      <point x="354" y="1379"/>
      <point x="87" y="1180"/>
      <point x="87" y="838" type="curve" smooth="yes"/>
      <point x="87" y="794" type="line" smooth="yes"/>
      <point x="87" y="567"/>
      <point x="197" y="429"/>
    </contour>
    <contour>
      <point x="789" y="-22" type="curve" smooth="yes"/>
      <point x="1055" y="-22"/>
      <point x="1202" y="122"/>
      <point x="1202" y="339" type="curve" smooth="yes"/>
      <point x="1202" y="395" type="line" smooth="yes"/>
      <point x="1202" y="596"/>
      <point x="1128" y="698"/>
      <point x="986" y="698" type="curve" smooth="yes"/>
      <point x="888" y="698"/>
      <point x="834" y="652"/>
      <point x="834" y="571" type="curve" smooth="yes"/>
      <point x="834" y="561" type="line" smooth="yes"/>
      <point x="834" y="489"/>
      <point x="884" y="445"/>
      <point x="969" y="445" type="curve" smooth="yes"/>
      <point x="1048" y="445"/>
      <point x="1085" y="484"/>
      <point x="1085" y="546" type="curve" smooth="yes"/>
      <point x="1085" y="558" type="line" smooth="yes"/>
      <point x="1085" y="608"/>
      <point x="1051" y="637"/>
      <point x="997" y="643" type="curve"/>
      <point x="891" y="525" type="line"/>
      <point x="909" y="528"/>
      <point x="915" y="529"/>
      <point x="933" y="529" type="curve"/>
      <point x="990" y="529"/>
      <point x="1021" y="480"/>
      <point x="1021" y="394" type="curve" smooth="yes"/>
      <point x="1021" y="341" type="line" smooth="yes"/>
      <point x="1021" y="212"/>
      <point x="941" y="129"/>
      <point x="789" y="129" type="curve" smooth="yes"/>
      <point x="629" y="129"/>
      <point x="552" y="211"/>
      <point x="552" y="347" type="curve" smooth="yes"/>
      <point x="552" y="421" type="line" smooth="yes"/>
      <point x="552" y="512"/>
      <point x="588" y="574"/>
      <point x="676" y="608" type="curve"/>
      <point x="676" y="777" type="line"/>
      <point x="523" y="741"/>
      <point x="420" y="648"/>
      <point x="388" y="517" type="curve"/>
      <point x="367" y="412" type="line"/>
      <point x="367" y="347" type="line" smooth="yes"/>
      <point x="367" y="111"/>
      <point x="510" y="-22"/>
    </contour>
  </outline>
</glyph>
<glyph name="Tha.or" format="2">
  <advance width="1535"/>
  <unicode hex="0B25"/>
  <anchor x="1395" y="47" name="bottom"/>
  <anchor x="783" y="46" name="nukta"/>
  <anchor x="783" y="1776" name="top1"/>
  <anchor x="1287" y="1431" name="top2"/>
  <outline>
    <contour>
      <point x="631" y="-21" type="curve" smooth="yes"/>
      <point x="978" y="-21"/>
      <point x="1143" y="90"/>
      <point x="1214" y="242" type="curve"/>
      <point x="1306" y="242" type="line"/>
      <point x="1226" y="428" type="line"/>
      <point x="1152" y="256"/>
      <point x="963" y="146"/>
      <point x="659" y="146" type="curve" smooth="yes"/>
      <point x="391" y="146"/>
      <point x="274" y="212"/>
      <point x="274" y="345" type="curve" smooth="yes"/>
      <point x="274" y="358" type="line" smooth="yes"/>
      <point x="274" y="467"/>
      <point x="332" y="516"/>
      <point x="492" y="555" type="curve" smooth="yes"/>
      <point x="643" y="592" type="line" smooth="yes"/>
      <point x="916" y="659"/>
      <point x="1008" y="767"/>
      <point x="1008" y="965" type="curve" smooth="yes"/>
      <point x="1008" y="1044" type="line" smooth="yes"/>
      <point x="1008" y="1256"/>
      <point x="888" y="1375"/>
      <point x="657" y="1375" type="curve" smooth="yes"/>
      <point x="428" y="1375"/>
      <point x="302" y="1256"/>
      <point x="302" y="1053" type="curve" smooth="yes"/>
      <point x="302" y="1019" type="line" smooth="yes"/>
      <point x="302" y="957"/>
      <point x="314" y="908"/>
      <point x="335" y="860" type="curve"/>
      <point x="517" y="849" type="line"/>
      <point x="496" y="902"/>
      <point x="485" y="947"/>
      <point x="485" y="1002" type="curve" smooth="yes"/>
      <point x="485" y="1045" type="line" smooth="yes"/>
      <point x="485" y="1162"/>
      <point x="540" y="1225"/>
      <point x="654" y="1225" type="curve" smooth="yes"/>
      <point x="767" y="1225"/>
      <point x="824" y="1161"/>
      <point x="824" y="1042" type="curve" smooth="yes"/>
      <point x="824" y="968" type="line" smooth="yes"/>
      <point x="824" y="840"/>
      <point x="771" y="777"/>
      <point x="597" y="736" type="curve" smooth="yes"/>
      <point x="435" y="698" type="line" smooth="yes"/>
      <point x="182" y="639"/>
      <point x="80" y="545"/>
      <point x="80" y="354" type="curve" smooth="yes"/>
      <point x="80" y="338" type="line" smooth="yes"/>
      <point x="80" y="101"/>
      <point x="259" y="-21"/>
    </contour>
    <contour>
      <point x="1217" y="0" type="line"/>
      <point x="1395" y="0" type="line"/>
      <point x="1395" y="1344" type="line"/>
      <point x="1217" y="1344" type="line"/>
      <point x="1217" y="321" type="line"/>
      <point x="1224" y="296" type="line"/>
    </contour>
  </outline>
</glyph>
<glyph name="Dha.or" format="2">
  <advance width="1424"/>
  <unicode hex="0B27"/>
  <anchor x="1284" y="47" name="bottom"/>
  <anchor x="727" y="46" name="nukta"/>
  <anchor x="678" y="1776" name="top1"/>
  <anchor x="1176" y="1431" name="top2"/>
  <outline>
    <contour>
      <point x="626" y="-22" type="curve" smooth="yes"/>
      <point x="922" y="-22"/>
      <point x="1048" y="77"/>
      <point x="1103" y="205" type="curve"/>
      <point x="1192" y="205" type="line"/>
      <point x="1118" y="406" type="line"/>
      <point x="1055" y="248"/>
      <point x="908" y="142"/>
      <point x="661" y="142" type="curve" smooth="yes"/>
      <point x="405" y="142"/>
      <point x="283" y="248"/>
      <point x="283" y="450" type="curve" smooth="yes"/>
      <point x="283" y="475" type="line" smooth="yes"/>
      <point x="283" y="658"/>
      <point x="383" y="768"/>
      <point x="622" y="783" type="curve" smooth="yes"/>
      <point x="660" y="785"/>
      <point x="694" y="781"/>
      <point x="722" y="778" type="curve"/>
      <point x="646" y="931" type="line"/>
      <point x="613" y="936"/>
      <point x="580" y="936"/>
      <point x="544" y="933" type="curve" smooth="yes"/>
      <point x="268" y="908"/>
      <point x="97" y="753"/>
      <point x="97" y="473" type="curve" smooth="yes"/>
      <point x="97" y="442" type="line" smooth="yes"/>
      <point x="97" y="151"/>
      <point x="274" y="-22"/>
    </contour>
    <contour>
      <point x="313" y="1344" type="line"/>
      <point x="74" y="1344" type="line"/>
      <point x="74" y="1339" type="line"/>
      <point x="536" y="891" type="line"/>
      <point x="611" y="818" type="line"/>
      <point x="873" y="565" type="line"/>
      <point x="881" y="565" type="line"/>
      <point x="881" y="785" type="line"/>
    </contour>
    <contour>
      <point x="1106" y="0" type="line"/>
      <point x="1284" y="0" type="line"/>
      <point x="1284" y="1344" type="line"/>
      <point x="1106" y="1344" type="line"/>
      <point x="1106" y="314" type="line"/>
      <point x="1088" y="269" type="line"/>
      <point x="1113" y="253" type="line"/>
    </contour>
  </outline>
</glyph>
<glyph name="Na.or" format="2">
  <advance width="1559"/>
  <unicode hex="0B28"/>
  <anchor x="1056" y="47" name="bottom"/>
  <anchor x="759" y="46" name="nukta"/>
  <anchor x="773" y="1777" name="top1"/>
  <anchor x="1210" y="1431" name="top2"/>
  <outline>
    <contour>
      <point x="222" y="0" type="line"/>
      <point x="443" y="0" type="line"/>
      <point x="677" y="328" type="line" smooth="yes"/>
      <point x="740" y="417"/>
      <point x="803" y="507"/>
      <point x="863" y="587" type="curve"/>
      <point x="887" y="587" type="line"/>
      <point x="883" y="502"/>
      <point x="878" y="390"/>
      <point x="878" y="308" type="curve" smooth="yes"/>
      <point x="878" y="0" type="line"/>
      <point x="1056" y="0" type="line"/>
      <point x="1056" y="718" type="line"/>
      <point x="778" y="718" type="line"/>
      <point x="575" y="468" type="line"/>
      <point x="519" y="396" type="line"/>
    </contour>
    <contour>
      <point x="535" y="343" type="curve"/>
      <point x="618" y="483" type="line"/>
      <point x="385" y="519"/>
      <point x="273" y="625"/>
      <point x="273" y="807" type="curve" smooth="yes"/>
      <point x="273" y="841" type="line" smooth="yes"/>
      <point x="273" y="1081"/>
      <point x="441" y="1215"/>
      <point x="765" y="1215" type="curve" smooth="yes"/>
      <point x="1109" y="1215"/>
      <point x="1288" y="1069"/>
      <point x="1288" y="805" type="curve" smooth="yes"/>
      <point x="1288" y="715" type="line" smooth="yes"/>
      <point x="1288" y="620"/>
      <point x="1269" y="539"/>
      <point x="1229" y="457" type="curve"/>
      <point x="1413" y="477" type="line"/>
      <point x="1450" y="549"/>
      <point x="1473" y="634"/>
      <point x="1473" y="732" type="curve" smooth="yes"/>
      <point x="1473" y="818" type="line" smooth="yes"/>
      <point x="1473" y="1172"/>
      <point x="1212" y="1379"/>
      <point x="766" y="1379" type="curve" smooth="yes"/>
      <point x="340" y="1379"/>
      <point x="87" y="1180"/>
      <point x="87" y="841" type="curve" smooth="yes"/>
      <point x="87" y="804" type="line" smooth="yes"/>
      <point x="87" y="542"/>
      <point x="233" y="402"/>
    </contour>
  </outline>
</glyph>
<glyph name="Pha.or" format="2">
  <advance width="1847"/>
  <unicode hex="0B2B"/>
  <anchor x="1391" y="47" name="bottom"/>
  <anchor x="845" y="46" name="nukta"/>
  <anchor x="742" y="1776" name="top1"/>
  <anchor x="1285" y="1431" name="top2"/>
  <anchor x="1391" y="1413" name="top3"/>
  <outline>
    <contour>
      <point x="375" y="429" type="curve"/>
      <point x="442" y="581" type="line"/>
      <point x="319" y="629"/>
      <point x="273" y="702"/>
      <point x="273" y="822" type="curve" smooth="yes"/>
      <point x="273" y="870" type="line" smooth="yes"/>
      <point x="273" y="1096"/>
      <point x="421" y="1215"/>
      <point x="708" y="1215" type="curve" smooth="yes"/>
      <point x="1008" y="1215"/>
      <point x="1204" y="1084"/>
      <point x="1214" y="801" type="curve"/>
      <point x="1309" y="801" type="line"/>
      <point x="1223" y="1058" type="line"/>
      <point x="1183" y="1253"/>
      <point x="1019" y="1379"/>
      <point x="686" y="1379" type="curve" smooth="yes"/>
      <point x="314" y="1379"/>
      <point x="87" y="1194"/>
      <point x="87" y="870" type="curve" smooth="yes"/>
      <point x="87" y="822" type="line" smooth="yes"/>
      <point x="87" y="613"/>
      <point x="188" y="488"/>
    </contour>
    <contour>
      <point x="788" y="-22" type="curve" smooth="yes"/>
      <point x="1047" y="-22"/>
      <point x="1161" y="78"/>
      <point x="1210" y="205" type="curve"/>
      <point x="1299" y="205" type="line"/>
      <point x="1225" y="400" type="line"/>
      <point x="1169" y="242"/>
      <point x="1039" y="136"/>
      <point x="820" y="136" type="curve" smooth="yes"/>
      <point x="616" y="136"/>
      <point x="520" y="215"/>
      <point x="520" y="356" type="curve" smooth="yes"/>
      <point x="520" y="381" type="line" smooth="yes"/>
      <point x="520" y="518"/>
      <point x="603" y="591"/>
      <point x="780" y="605" type="curve"/>
      <point x="780" y="764" type="line"/>
      <point x="582" y="755"/>
      <point x="443" y="678"/>
      <point x="379" y="550" type="curve"/>
      <point x="361" y="509" type="line"/>
      <point x="343" y="466"/>
      <point x="335" y="424"/>
      <point x="335" y="369" type="curve" smooth="yes"/>
      <point x="335" y="344" type="line" smooth="yes"/>
      <point x="335" y="118"/>
      <point x="487" y="-22"/>
    </contour>
    <contour>
      <point x="1213" y="0" type="line"/>
      <point x="1391" y="0" type="line"/>
      <point x="1391" y="1344" type="line"/>
      <point x="1213" y="1344" type="line"/>
      <point x="1219" y="1108" type="line"/>
      <point x="1188" y="1108" type="line"/>
      <point x="1214" y="961" type="line"/>
      <point x="1214" y="296" type="line"/>
      <point x="1220" y="247" type="line"/>
    </contour>
    <contour>
      <point x="1522" y="805" type="curve" smooth="yes"/>
      <point x="1435" y="805"/>
      <point x="1391" y="854"/>
      <point x="1391" y="941" type="curve" smooth="yes"/>
      <point x="1391" y="974" type="line" smooth="yes"/>
      <point x="1391" y="1061"/>
      <point x="1435" y="1110"/>
      <point x="1522" y="1110" type="curve" smooth="yes"/>
      <point x="1609" y="1110"/>
      <point x="1647" y="1064"/>
      <point x="1647" y="976" type="curve" smooth="yes"/>
      <point x="1647" y="939" type="line" smooth="yes"/>
      <point x="1647" y="852"/>
      <point x="1609" y="805"/>
    </contour>
    <contour>
      <point x="1571" y="670" type="curve" smooth="yes"/>
      <point x="1723" y="670"/>
      <point x="1809" y="765"/>
      <point x="1809" y="931" type="curve" smooth="yes"/>
      <point x="1809" y="985" type="line" smooth="yes"/>
      <point x="1809" y="1148"/>
      <point x="1723" y="1245"/>
      <point x="1571" y="1245" type="curve" smooth="yes"/>
      <point x="1467" y="1245"/>
      <point x="1402" y="1205"/>
      <point x="1368" y="1132" type="curve"/>
      <point x="1364" y="785" type="line"/>
      <point x="1399" y="711"/>
      <point x="1465" y="670"/>
    </contour>
  </outline>
</glyph>
<glyph name="Bha.or" format="2">
  <advance width="1716"/>
  <unicode hex="0B2D"/>
  <anchor x="933" y="47" name="bottom"/>
  <anchor x="821" y="46" name="nukta"/>
  <anchor x="821" y="1777" name="top1"/>
  <anchor x="1315" y="1431" name="top2"/>
  <outline>
    <contour>
      <point x="1755" y="-175" type="line"/>
      <point x="1755" y="10" type="line"/>
      <point x="1440" y="111" type="line"/>
      <point x="1482" y="56" type="line"/>
      <point x="1570" y="144"/>
      <point x="1602" y="268"/>
      <point x="1602" y="396" type="curve" smooth="yes"/>
      <point x="1602" y="697" type="line" smooth="yes"/>
      <point x="1602" y="1139"/>
      <point x="1325" y="1379"/>
      <point x="820" y="1379" type="curve" smooth="yes"/>
      <point x="346" y="1379"/>
      <point x="87" y="1181"/>
      <point x="87" y="825" type="curve" smooth="yes"/>
      <point x="87" y="762" type="line" smooth="yes"/>
      <point x="87" y="560"/>
      <point x="180" y="437"/>
      <point x="367" y="380" type="curve"/>
      <point x="416" y="535" type="line"/>
      <point x="317" y="578"/>
      <point x="273" y="646"/>
      <point x="273" y="765" type="curve" smooth="yes"/>
      <point x="273" y="823" type="line" smooth="yes"/>
      <point x="273" y="1076"/>
      <point x="452" y="1215"/>
      <point x="819" y="1215" type="curve" smooth="yes"/>
      <point x="1218" y="1215"/>
      <point x="1418" y="1035"/>
      <point x="1418" y="684" type="curve" smooth="yes"/>
      <point x="1418" y="387" type="line" smooth="yes"/>
      <point x="1418" y="256"/>
      <point x="1383" y="125"/>
      <point x="1305" y="16" type="curve"/>
    </contour>
    <contour>
      <point x="779" y="-22" type="curve" smooth="yes"/>
      <point x="1064" y="-22"/>
      <point x="1221" y="127"/>
      <point x="1221" y="387" type="curve" smooth="yes"/>
      <point x="1221" y="485" type="line" smooth="yes"/>
      <point x="1221" y="554"/>
      <point x="1210" y="634"/>
      <point x="1197" y="699" type="curve"/>
      <point x="1028" y="699" type="line"/>
      <point x="1036" y="640"/>
      <point x="1045" y="580"/>
      <point x="1046" y="496" type="curve" smooth="yes"/>
      <point x="1047" y="406" type="line"/>
      <point x="1050" y="373" type="line"/>
      <point x="1049" y="212"/>
      <point x="959" y="129"/>
      <point x="786" y="129" type="curve" smooth="yes"/>
      <point x="598" y="129"/>
      <point x="502" y="223"/>
      <point x="502" y="395" type="curve" smooth="yes"/>
      <point x="502" y="462" type="line" smooth="yes"/>
      <point x="502" y="581"/>
      <point x="530" y="667"/>
      <point x="571" y="751" type="curve"/>
      <point x="393" y="751" type="line"/>
      <point x="363" y="691"/>
      <point x="338" y="620"/>
      <point x="325" y="527" type="curve"/>
      <point x="317" y="478" type="line"/>
      <point x="317" y="391" type="line" smooth="yes"/>
      <point x="317" y="123"/>
      <point x="477" y="-22"/>
    </contour>
    <contour>
      <point x="875" y="233" type="curve" smooth="yes"/>
      <point x="971" y="233"/>
      <point x="1018" y="271"/>
      <point x="1040" y="331" type="curve"/>
      <point x="1106" y="331" type="line"/>
      <point x="1048" y="487" type="line"/>
      <point x="1046" y="421"/>
      <point x="1007" y="375"/>
      <point x="943" y="375" type="curve" smooth="yes"/>
      <point x="866" y="375"/>
      <point x="835" y="419"/>
      <point x="835" y="503" type="curve" smooth="yes"/>
      <point x="835" y="540" type="line" smooth="yes"/>
      <point x="835" y="600"/>
      <point x="845" y="648"/>
      <point x="861" y="699" type="curve"/>
      <point x="694" y="699" type="line"/>
      <point x="674" y="648"/>
      <point x="661" y="591"/>
      <point x="661" y="529" type="curve" smooth="yes"/>
      <point x="661" y="478" type="line" smooth="yes"/>
      <point x="661" y="321"/>
      <point x="736" y="233"/>
    </contour>
  </outline>
</glyph>
<glyph name="Ma.or" format="2">
  <advance width="1466"/>
  <unicode hex="0B2E"/>
  <anchor x="1326" y="47" name="bottom"/>
  <anchor x="768" y="46" name="nukta"/>
  <anchor x="712" y="1776" name="top1"/>
  <anchor x="1218" y="1431" name="top2"/>
  <outline>
    <contour>
      <point x="650" y="1379" type="curve" smooth="yes"/>
      <point x="296" y="1379"/>
      <point x="95" y="1191"/>
      <point x="95" y="888" type="curve" smooth="yes"/>
      <point x="95" y="846" type="line" smooth="yes"/>
      <point x="95" y="539"/>
      <point x="295" y="417"/>
      <point x="601" y="379" type="curve" smooth="yes"/>
      <point x="639" y="374"/>
      <point x="683" y="372"/>
      <point x="721" y="372" type="curve"/>
      <point x="831" y="515" type="line"/>
      <point x="794" y="516"/>
      <point x="747" y="519"/>
      <point x="698" y="525" type="curve" smooth="yes"/>
      <point x="422" y="561"/>
      <point x="281" y="639"/>
      <point x="281" y="847" type="curve" smooth="yes"/>
      <point x="281" y="887" type="line" smooth="yes"/>
      <point x="281" y="1095"/>
      <point x="413" y="1215"/>
      <point x="672" y="1215" type="curve" smooth="yes"/>
      <point x="955" y="1215"/>
      <point x="1140" y="1084"/>
      <point x="1149" y="801" type="curve"/>
      <point x="1158" y="1058" type="line"/>
      <point x="1120" y="1253"/>
      <point x="966" y="1379"/>
    </contour>
    <contour>
      <point x="371" y="0" type="line"/>
      <point x="1191" y="625" type="line"/>
      <point x="1193" y="819" type="line"/>
      <point x="720" y="478" type="line"/>
      <point x="644" y="423" type="line"/>
      <point x="89" y="4" type="line"/>
      <point x="89" y="0" type="line"/>
    </contour>
    <contour>
      <point x="1148" y="0" type="line"/>
      <point x="1326" y="0" type="line"/>
      <point x="1326" y="1344" type="line"/>
      <point x="1148" y="1344" type="line"/>
      <point x="1154" y="1108" type="line"/>
      <point x="1123" y="1108" type="line"/>
      <point x="1149" y="961" type="line"/>
    </contour>
  </outline>
</glyph>
<glyph name="Ya.or" format="2">
  <advance width="1554"/>
  <unicode hex="0B2F"/>
  <anchor x="1414" y="47" name="bottom"/>
  <anchor x="847" y="46" name="nukta"/>
  <anchor x="748" y="1776" name="top1"/>
  <anchor x="1306" y="1431" name="top2"/>
  <outline>
    <contour>
      <point x="18" y="214" type="line"/>
      <point x="425" y="426" type="line"/>
      <point x="535" y="484" type="line"/>
      <point x="826" y="635" type="line"/>
      <point x="826" y="811" type="line"/>
      <point x="422" y="604" type="line"/>
      <point x="328" y="555" type="line"/>
      <point x="18" y="398" type="line"/>
    </contour>
    <contour>
      <point x="1236" y="0" type="line"/>
      <point x="1414" y="0" type="line"/>
      <point x="1414" y="1344" type="line"/>
      <point x="1236" y="1344" type="line"/>
      <point x="1242" y="1108" type="line"/>
      <point x="1211" y="1108" type="line"/>
      <point x="1237" y="961" type="line"/>
      <point x="1237" y="296" type="line"/>
      <point x="1243" y="247" type="line"/>
    </contour>
    <contour>
      <point x="392" y="501" type="curve"/>
      <point x="480" y="617" type="line"/>
      <point x="345" y="663"/>
      <point x="296" y="742"/>
      <point x="296" y="857" type="curve" smooth="yes"/>
      <point x="296" y="907" type="line" smooth="yes"/>
      <point x="296" y="1112"/>
      <point x="443" y="1215"/>
      <point x="730" y="1215" type="curve" smooth="yes"/>
      <point x="1031" y="1215"/>
      <point x="1227" y="1084"/>
      <point x="1237" y="801" type="curve"/>
      <point x="1333" y="801" type="line"/>
      <point x="1246" y="1058" type="line"/>
      <point x="1206" y="1253"/>
      <point x="1043" y="1379"/>
      <point x="708" y="1379" type="curve" smooth="yes"/>
      <point x="336" y="1379"/>
      <point x="110" y="1210"/>
      <point x="110" y="907" type="curve" smooth="yes"/>
      <point x="110" y="857" type="line" smooth="yes"/>
      <point x="110" y="664"/>
      <point x="200" y="546"/>
    </contour>
    <contour>
      <point x="816" y="-22" type="curve" smooth="yes"/>
      <point x="1074" y="-22"/>
      <point x="1184" y="78"/>
      <point x="1233" y="205" type="curve"/>
      <point x="1322" y="205" type="line"/>
      <point x="1248" y="400" type="line"/>
      <point x="1192" y="242"/>
      <point x="1064" y="136"/>
      <point x="863" y="136" type="curve" smooth="yes"/>
      <point x="647" y="136"/>
      <point x="549" y="217"/>
      <point x="549" y="366" type="curve" smooth="yes"/>
      <point x="549" y="395" type="line" smooth="yes"/>
      <point x="549" y="452"/>
      <point x="562" y="497"/>
      <point x="599" y="530" type="curve"/>
      <point x="415" y="527" type="line"/>
      <point x="380" y="483"/>
      <point x="365" y="430"/>
      <point x="365" y="371" type="curve" smooth="yes"/>
      <point x="365" y="345" type="line" smooth="yes"/>
      <point x="365" y="116"/>
      <point x="517" y="-22"/>
    </contour>
  </outline>
</glyph>
<glyph name="Ra.or" format="2">
  <advance width="1601"/>
  <unicode hex="0B30"/>
  <anchor x="843" y="47" name="bottom"/>
  <anchor x="814" y="46" name="nukta"/>
  <anchor x="766" y="1777" name="top1"/>
  <anchor x="1217" y="1431" name="top2"/>
  <outline>
    <contour>
      <point x="1641" y="-175" type="line"/>
      <point x="1641" y="10" type="line"/>
      <point x="1336" y="111" type="line"/>
      <point x="1363" y="61" type="line"/>
      <point x="1451" y="146"/>
      <point x="1489" y="280"/>
      <point x="1489" y="415" type="curve" smooth="yes"/>
      <point x="1489" y="721" type="line" smooth="yes"/>
      <point x="1489" y="1146"/>
      <point x="1232" y="1379"/>
      <point x="761" y="1379" type="curve" smooth="yes"/>
      <point x="348" y="1379"/>
      <point x="87" y="1183"/>
      <point x="87" y="836" type="curve" smooth="yes"/>
      <point x="87" y="797" type="line" smooth="yes"/>
      <point x="87" y="583"/>
      <point x="187" y="448"/>
      <point x="391" y="382" type="curve"/>
      <point x="448" y="541" type="line"/>
      <point x="332" y="584"/>
      <point x="273" y="665"/>
      <point x="273" y="797" type="curve" smooth="yes"/>
      <point x="273" y="836" type="line" smooth="yes"/>
      <point x="273" y="1081"/>
      <point x="445" y="1215"/>
      <point x="761" y="1215" type="curve" smooth="yes"/>
      <point x="1121" y="1215"/>
      <point x="1305" y="1042"/>
      <point x="1305" y="717" type="curve" smooth="yes"/>
      <point x="1305" y="398" type="line" smooth="yes"/>
      <point x="1305" y="247"/>
      <point x="1263" y="124"/>
      <point x="1177" y="13" type="curve"/>
    </contour>
    <contour>
      <point x="712" y="-22" type="curve" smooth="yes"/>
      <point x="955" y="-22"/>
      <point x="1082" y="104"/>
      <point x="1082" y="342" type="curve" smooth="yes"/>
      <point x="1082" y="390" type="line" smooth="yes"/>
      <point x="1082" y="626"/>
      <point x="955" y="753"/>
      <point x="716" y="753" type="curve" smooth="yes"/>
      <point x="504" y="753"/>
      <point x="390" y="647"/>
      <point x="355" y="476" type="curve"/>
      <point x="348" y="446" type="line"/>
      <point x="345" y="430"/>
      <point x="342" y="411"/>
      <point x="342" y="392" type="curve" smooth="yes"/>
      <point x="342" y="342" type="line" smooth="yes"/>
      <point x="342" y="104"/>
      <point x="469" y="-22"/>
    </contour>
    <contour>
      <point x="712" y="129" type="curve" smooth="yes"/>
      <point x="587" y="129"/>
      <point x="525" y="199"/>
      <point x="525" y="341" type="curve" smooth="yes"/>
      <point x="525" y="391" type="line" smooth="yes"/>
      <point x="525" y="533"/>
      <point x="587" y="603"/>
      <point x="712" y="603" type="curve" smooth="yes"/>
      <point x="835" y="603"/>
      <point x="898" y="533"/>
      <point x="898" y="391" type="curve" smooth="yes"/>
      <point x="898" y="341" type="line" smooth="yes"/>
      <point x="898" y="199"/>
      <point x="835" y="129"/>
    </contour>
  </outline>
</glyph>
<glyph name="Va.or" format="2">
  <advance width="1586"/>
  <unicode hex="0B35"/>
  <anchor x="1137" y="47" name="bottom"/>
  <anchor x="796" y="46" name="nukta"/>
  <anchor x="796" y="1777" name="top1"/>
  <anchor x="1240" y="1431" name="top2"/>
  <outline>
    <contour>
      <point x="424" y="359" type="curve"/>
      <point x="471" y="521" type="line"/>
      <point x="339" y="567"/>
      <point x="273" y="650"/>
      <point x="273" y="793" type="curve" smooth="yes"/>
      <point x="273" y="839" type="line" smooth="yes"/>
      <point x="273" y="1082"/>
      <point x="449" y="1215"/>
      <point x="780" y="1215" type="curve" smooth="yes"/>
      <point x="1127" y="1215"/>
      <point x="1315" y="1069"/>
      <point x="1315" y="806" type="curve" smooth="yes"/>
      <point x="1315" y="713" type="line" smooth="yes"/>
      <point x="1315" y="619"/>
      <point x="1297" y="538"/>
      <point x="1260" y="457" type="curve"/>
      <point x="1444" y="477" type="line"/>
      <point x="1478" y="548"/>
      <point x="1500" y="633"/>
      <point x="1500" y="730" type="curve" smooth="yes"/>
      <point x="1500" y="813" type="line" smooth="yes"/>
      <point x="1500" y="1171"/>
      <point x="1233" y="1379"/>
      <point x="781" y="1379" type="curve" smooth="yes"/>
      <point x="346" y="1379"/>
      <point x="87" y="1181"/>
      <point x="87" y="837" type="curve" smooth="yes"/>
      <point x="87" y="793" type="line" smooth="yes"/>
      <point x="87" y="562"/>
      <point x="201" y="425"/>
    </contour>
    <contour>
      <point x="959" y="0" type="line"/>
      <point x="1137" y="0" type="line"/>
      <point x="1137" y="429" type="line" smooth="yes"/>
      <point x="1137" y="654"/>
      <point x="1012" y="769"/>
      <point x="775" y="769" type="curve" smooth="yes"/>
      <point x="562" y="769"/>
      <point x="450" y="668"/>
      <point x="417" y="494" type="curve"/>
      <point x="407" y="437" type="line"/>
      <point x="407" y="390" type="line" smooth="yes"/>
      <point x="407" y="195"/>
      <point x="512" y="77"/>
      <point x="721" y="77" type="curve" smooth="yes"/>
      <point x="846" y="77"/>
      <point x="922" y="117"/>
      <point x="955" y="199" type="curve"/>
      <point x="963" y="199" type="line"/>
      <point x="959" y="83" type="line"/>
    </contour>
    <contour>
      <point x="774" y="228" type="curve" smooth="yes"/>
      <point x="654" y="228"/>
      <point x="592" y="286"/>
      <point x="592" y="407" type="curve" smooth="yes"/>
      <point x="592" y="439" type="line" smooth="yes"/>
      <point x="592" y="559"/>
      <point x="654" y="619"/>
      <point x="775" y="619" type="curve" smooth="yes"/>
      <point x="895" y="619"/>
      <point x="957" y="559"/>
      <point x="957" y="439" type="curve" smooth="yes"/>
      <point x="957" y="407" type="line" smooth="yes"/>
      <point x="957" y="297"/>
      <point x="890" y="228"/>
    </contour>
    <contour>
      <point x="774" y="317" type="curve" smooth="yes"/>
      <point x="829" y="317"/>
      <point x="855" y="346"/>
      <point x="855" y="409" type="curve" smooth="yes"/>
      <point x="855" y="438" type="line" smooth="yes"/>
      <point x="855" y="503"/>
      <point x="829" y="532"/>
      <point x="774" y="532" type="curve" smooth="yes"/>
      <point x="719" y="532"/>
      <point x="693" y="502"/>
      <point x="693" y="438" type="curve" smooth="yes"/>
      <point x="693" y="409" type="line" smooth="yes"/>
      <point x="693" y="346"/>
      <point x="719" y="317"/>
    </contour>
  </outline>
</glyph>
<glyph name="Ssa.or" format="2">
  <advance width="1531"/>
  <unicode hex="0B37"/>
  <anchor x="1391" y="47" name="bottom"/>
  <anchor x="843" y="46" name="nukta"/>
  <anchor x="737" y="1776" name="top1"/>
  <anchor x="1284" y="1431" name="top2"/>
  <outline>
    <contour>
      <point x="375" y="429" type="curve"/>
      <point x="442" y="581" type="line"/>
      <point x="319" y="629"/>
      <point x="273" y="701"/>
      <point x="273" y="820" type="curve" smooth="yes"/>
      <point x="273" y="870" type="line" smooth="yes"/>
      <point x="273" y="1026"/>
      <point x="340" y="1134"/>
      <point x="483" y="1182" type="curve"/>
      <point x="545" y="1201" type="line"/>
      <point x="597" y="1211"/>
      <point x="640" y="1215"/>
      <point x="707" y="1215" type="curve" smooth="yes"/>
      <point x="1008" y="1215"/>
      <point x="1204" y="1084"/>
      <point x="1214" y="801" type="curve"/>
      <point x="1309" y="801" type="line"/>
      <point x="1223" y="1058" type="line"/>
      <point x="1183" y="1253"/>
      <point x="1020" y="1379"/>
      <point x="686" y="1379" type="curve" smooth="yes"/>
      <point x="313" y="1379"/>
      <point x="87" y="1193"/>
      <point x="87" y="870" type="curve" smooth="yes"/>
      <point x="87" y="820" type="line" smooth="yes"/>
      <point x="87" y="612"/>
      <point x="188" y="488"/>
    </contour>
    <contour>
      <point x="786" y="-22" type="curve" smooth="yes"/>
      <point x="1049" y="-22"/>
      <point x="1161" y="78"/>
      <point x="1210" y="205" type="curve"/>
      <point x="1299" y="205" type="line"/>
      <point x="1225" y="400" type="line"/>
      <point x="1169" y="242"/>
      <point x="1044" y="136"/>
      <point x="820" y="136" type="curve" smooth="yes"/>
      <point x="614" y="136"/>
      <point x="520" y="215"/>
      <point x="520" y="356" type="curve" smooth="yes"/>
      <point x="520" y="382" type="line" smooth="yes"/>
      <point x="520" y="522"/>
      <point x="606" y="598"/>
      <point x="788" y="610" type="curve" smooth="yes"/>
      <point x="829" y="613"/>
      <point x="857" y="612"/>
      <point x="885" y="610" type="curve"/>
      <point x="865" y="756" type="line"/>
      <point x="839" y="760"/>
      <point x="799" y="765"/>
      <point x="752" y="761" type="curve" smooth="yes"/>
      <point x="578" y="748"/>
      <point x="442" y="679"/>
      <point x="379" y="554" type="curve"/>
      <point x="361" y="512" type="line"/>
      <point x="343" y="468"/>
      <point x="335" y="426"/>
      <point x="335" y="370" type="curve" smooth="yes"/>
      <point x="335" y="344" type="line" smooth="yes"/>
      <point x="335" y="118"/>
      <point x="483" y="-22"/>
    </contour>
    <contour>
      <point x="1115" y="154" type="line"/>
      <point x="1228" y="255" type="line"/>
      <point x="560" y="1285" type="line"/>
      <point x="409" y="1231" type="line"/>
    </contour>
    <contour>
      <point x="1213" y="0" type="line"/>
      <point x="1391" y="0" type="line"/>
      <point x="1391" y="1344" type="line"/>
      <point x="1213" y="1344" type="line"/>
      <point x="1219" y="1108" type="line"/>
      <point x="1188" y="1108" type="line"/>
      <point x="1214" y="961" type="line"/>
      <point x="1214" y="296" type="line"/>
      <point x="1220" y="247" type="line"/>
    </contour>
  </outline>
</glyph>
<glyph name="Nukta.or" format="2">
  <unicode hex="0B3C"/>
  <anchor x="-806" y="46" name="_nukta"/>
  <outline>
    <contour>
      <point x="-807" y="-372" type="curve" smooth="yes"/>
      <point x="-731" y="-372"/>
      <point x="-694" y="-329"/>
      <point x="-694" y="-260" type="curve" smooth="yes"/>
      <point x="-694" y="-248" type="line" smooth="yes"/>
      <point x="-694" y="-178"/>
      <point x="-732" y="-134"/>
      <point x="-806" y="-134" type="curve" smooth="yes"/>
      <point x="-881" y="-134"/>
      <point x="-918" y="-177"/>
      <point x="-918" y="-248" type="curve" smooth="yes"/>
      <point x="-918" y="-260" type="line" smooth="yes"/>
      <point x="-918" y="-329"/>
      <point x="-881" y="-372"/>
    </contour>
  </outline>
</glyph>
<glyph name="Avagraha.or" format="2">
  <advance width="855"/>
  <unicode hex="0B3D"/>
  <outline>
    <contour>
      <point x="80" y="1025" type="line"/>
      <point x="761" y="1372" type="line"/>
      <point x="761" y="1180" type="line"/>
      <point x="216" y="913" type="line"/>
      <point x="216" y="1010" type="line"/>
      <point x="743" y="734" type="line"/>
      <point x="743" y="607" type="line"/>
      <point x="216" y="338" type="line"/>
      <point x="216" y="430" type="line"/>
      <point x="761" y="165" type="line"/>
      <point x="761" y="-27" type="line"/>
      <point x="80" y="314" type="line"/>
      <point x="80" y="447" type="line"/>
      <point x="546" y="688" type="line"/>
      <point x="546" y="654" type="line"/>
      <point x="80" y="893" type="line"/>
    </contour>
  </outline>
</glyph>
<glyph name="MatraAa.or" format="2">
  <advance width="458"/>
  <unicode hex="0B3E"/>
  <outline>
    <contour>
      <point x="318" y="1344" type="line"/>
      <point x="318" y="0" type="line"/>
      <point x="140" y="0" type="line"/>
      <point x="140" y="1344" type="line"/>
    </contour>
  </outline>
</glyph>
<glyph name="MatraI.or" format="2">
  <unicode hex="0B3F"/>
  <anchor x="-819" y="1777" name="_top1"/>
  <outline>
    <contour>
      <point x="-1427" y="1429" type="line"/>
      <point x="-1260" y="1532"/>
      <point x="-1062" y="1597"/>
      <point x="-819" y="1597" type="curve" smooth="yes"/>
      <point x="-576" y="1597"/>
      <point x="-378" y="1532"/>
      <point x="-211" y="1429" type="curve"/>
      <point x="-223" y="1594" type="line"/>
      <point x="-375" y="1692"/>
      <point x="-568" y="1755"/>
      <point x="-819" y="1755" type="curve" smooth="yes"/>
      <point x="-1070" y="1755"/>
      <point x="-1264" y="1692"/>
      <point x="-1416" y="1594" type="curve"/>
    </contour>
  </outline>
</glyph>
<glyph name="MatraIi.or" format="2">
  <advance width="699"/>
  <unicode hex="0B40"/>
  <outline>
    <contour>
      <point x="381" y="0" type="line"/>
      <point x="559" y="0" type="line"/>
      <point x="559" y="1344" type="line"/>
      <point x="393" y="1344" type="line"/>
      <point x="30" y="1047" type="line"/>
      <point x="30" y="833" type="line"/>
      <point x="37" y="833" type="line"/>
      <point x="372" y="1116" type="line"/>
      <point x="381" y="1116" type="line"/>
    </contour>
  </outline>
</glyph>
<glyph name="MatraU.or" format="2">
  <unicode hex="0B41"/>
  <anchor x="-140" y="47" name="_bottom"/>
  <outline>
    <contour>
      <point x="-523" y="-650" type="curve" smooth="yes"/>
      <point x="-320" y="-650"/>
      <point x="-220" y="-558"/>
      <point x="-179" y="-391" type="curve"/>
      <point x="-170" y="-365" type="line"/>
      <point x="-162" y="-339" type="line"/>
      <point x="-144" y="-248"/>
      <point x="-140" y="-137"/>
      <point x="-140" y="-4" type="curve" smooth="yes"/>
      <point x="-140" y="261" type="line"/>
      <point x="-318" y="261" type="line"/>
      <point x="-318" y="-1" type="line"/>
      <point x="-318" y="-109"/>
      <point x="-317" y="-182"/>
      <point x="-321" y="-257" type="curve"/>
      <point x="-334" y="-284" type="line"/>
      <point x="-334" y="-346" type="line"/>
      <point x="-348" y="-453"/>
      <point x="-405" y="-510"/>
      <point x="-505" y="-510" type="curve" smooth="yes"/>
      <point x="-595" y="-510"/>
      <point x="-641" y="-470"/>
      <point x="-641" y="-404" type="curve" smooth="yes"/>
      <point x="-641" y="-395" type="line" smooth="yes"/>
      <point x="-641" y="-330"/>
      <point x="-597" y="-293"/>
      <point x="-516" y="-293" type="curve" smooth="yes"/>
      <point x="-438" y="-293"/>
      <point x="-378" y="-324"/>
      <point x="-315" y="-383" type="curve"/>
      <point x="-273" y="-256" type="line"/>
      <point x="-351" y="-194"/>
      <point x="-428" y="-155"/>
      <point x="-541" y="-155" type="curve" smooth="yes"/>
      <point x="-716" y="-155"/>
      <point x="-814" y="-246"/>
      <point x="-814" y="-395" type="curve" smooth="yes"/>
      <point x="-814" y="-407" type="line" smooth="yes"/>
      <point x="-814" y="-562"/>
      <point x="-713" y="-650"/>
    </contour>
    <contour>
      <point x="203" y="-646" type="curve"/>
      <point x="203" y="-465" type="line"/>
      <point x="58" y="-446"/>
      <point x="-83" y="-385"/>
      <point x="-204" y="-282" type="curve"/>
      <point x="-267" y="-419" type="line"/>
      <point x="-124" y="-537"/>
      <point x="40" y="-615"/>
    </contour>
  </outline>
</glyph>
<glyph name="MatraUu.or" format="2">
  <unicode hex="0B42"/>
  <anchor x="-140" y="47" name="_bottom"/>
  <outline>
    <contour>
      <point x="255" y="-764" type="curve"/>
      <point x="255" y="-593" type="line"/>
      <point x="125" y="-558"/>
      <point x="19" y="-507"/>
      <point x="-86" y="-428" type="curve"/>
      <point x="-151" y="-468"/>
      <point x="-218" y="-494"/>
      <point x="-309" y="-494" type="curve" smooth="yes"/>
      <point x="-421" y="-494"/>
      <point x="-467" y="-456"/>
      <point x="-467" y="-392" type="curve" smooth="yes"/>
      <point x="-467" y="-383" type="line" smooth="yes"/>
      <point x="-467" y="-322"/>
      <point x="-428" y="-287"/>
      <point x="-311" y="-287" type="curve" smooth="yes"/>
      <point x="-252" y="-287"/>
      <point x="-194" y="-294"/>
      <point x="-140" y="-305" type="curve"/>
      <point x="-140" y="261" type="line"/>
      <point x="-318" y="261" type="line"/>
      <point x="-318" y="-208" type="line"/>
      <point x="-197" y="-169" type="line"/>
      <point x="-251" y="-159"/>
      <point x="-309" y="-151"/>
      <point x="-357" y="-151" type="curve" smooth="yes"/>
      <point x="-543" y="-151"/>
      <point x="-640" y="-239"/>
      <point x="-640" y="-385" type="curve" smooth="yes"/>
      <point x="-640" y="-400" type="line" smooth="yes"/>
      <point x="-640" y="-552"/>
      <point x="-535" y="-637"/>
      <point x="-342" y="-637" type="curve" smooth="yes"/>
      <point x="-221" y="-637"/>
      <point x="-129" y="-606"/>
      <point x="-62" y="-559" type="curve"/>
      <point x="-159" y="-549" type="line"/>
      <point x="-39" y="-641"/>
      <point x="86" y="-710"/>
    </contour>
  </outline>
</glyph>
<glyph name="MatraVocalicR.or" format="2">
  <unicode hex="0B43"/>
  <anchor x="-140" y="47" name="_bottom"/>
  <outline>
    <contour>
      <point x="-209" y="-391" type="curve" smooth="yes"/>
      <point x="-240" y="-391"/>
      <point x="-269" y="-396"/>
      <point x="-295" y="-405" type="curve"/>
      <point x="-295" y="-282" type="line"/>
      <point x="-265" y="-269"/>
      <point x="-221" y="-261"/>
      <point x="-173" y="-261" type="curve" smooth="yes"/>
      <point x="-38" y="-261"/>
      <point x="36" y="-324"/>
      <point x="36" y="-442" type="curve" smooth="yes"/>
      <point x="36" y="-450" type="line" smooth="yes"/>
      <point x="36" y="-582"/>
      <point x="-76" y="-657"/>
      <point x="-267" y="-657" type="curve" smooth="yes"/>
      <point x="-482" y="-657"/>
      <point x="-604" y="-557"/>
      <point x="-604" y="-379" type="curve" smooth="yes"/>
      <point x="-604" y="-368" type="line" smooth="yes"/>
      <point x="-604" y="-184"/>
      <point x="-480" y="-66"/>
      <point x="-243" y="-36" type="curve"/>
      <point x="-318" y="-96" type="line"/>
      <point x="-318" y="270" type="line"/>
      <point x="-140" y="270" type="line"/>
      <point x="-140" y="-157" type="line"/>
      <point x="-350" y="-171"/>
      <point x="-442" y="-239"/>
      <point x="-442" y="-366" type="curve" smooth="yes"/>
      <point x="-442" y="-376" type="line" smooth="yes"/>
      <point x="-442" y="-474"/>
      <point x="-376" y="-522"/>
      <point x="-261" y="-522" type="curve" smooth="yes"/>
      <point x="-167" y="-522"/>
      <point x="-125" y="-497"/>
      <point x="-125" y="-452" type="curve" smooth="yes"/>
      <point x="-125" y="-448" type="line" smooth="yes"/>
      <point x="-125" y="-410"/>
      <point x="-153" y="-391"/>
    </contour>
  </outline>
</glyph>
<glyph name="MatraVocalicRr.or" format="2">
  <unicode hex="0B44"/>
  <outline>
    <contour>
      <point x="-230" y="-791" type="curve" smooth="yes"/>
      <point x="-36" y="-791"/>
      <point x="77" y="-716"/>
      <point x="77" y="-586" type="curve" smooth="yes"/>
      <point x="77" y="-578" type="line" smooth="yes"/>
      <point x="77" y="-464"/>
      <point x="5" y="-404"/>
      <point x="-127" y="-404" type="curve" smooth="yes"/>
      <point x="-169" y="-404"/>
      <point x="-206" y="-411"/>
      <point x="-237" y="-422" type="curve"/>
      <point x="-237" y="-530" type="line"/>
      <point x="-211" y="-521"/>
      <point x="-187" y="-517"/>
      <point x="-158" y="-517" type="curve" smooth="yes"/>
      <point x="-99" y="-517"/>
      <point x="-70" y="-538"/>
      <point x="-70" y="-582" type="curve" smooth="yes"/>
      <point x="-70" y="-586" type="line" smooth="yes"/>
      <point x="-70" y="-638"/>
      <point x="-126" y="-666"/>
      <point x="-224" y="-666" type="curve" smooth="yes"/>
      <point x="-343" y="-666"/>
      <point x="-406" y="-626"/>
      <point x="-406" y="-553" type="curve" smooth="yes"/>
      <point x="-406" y="-546" type="line" smooth="yes"/>
      <point x="-406" y="-485"/>
      <point x="-366" y="-449"/>
      <point x="-285" y="-442" type="curve"/>
      <point x="-285" y="-337" type="line"/>
      <point x="-363" y="-333"/>
      <point x="-399" y="-313"/>
      <point x="-399" y="-275" type="curve" smooth="yes"/>
      <point x="-399" y="-272" type="line" smooth="yes"/>
      <point x="-399" y="-231"/>
      <point x="-365" y="-211"/>
      <point x="-279" y="-211" type="curve" smooth="yes"/>
      <point x="-235" y="-211"/>
      <point x="-193" y="-216"/>
      <point x="-152" y="-226" type="curve"/>
      <point x="-164" y="-106" type="line"/>
      <point x="-204" y="-94"/>
      <point x="-258" y="-86"/>
      <point x="-321" y="-86" type="curve" smooth="yes"/>
      <point x="-475" y="-86"/>
      <point x="-553" y="-144"/>
      <point x="-553" y="-247" type="curve" smooth="yes"/>
      <point x="-553" y="-252" type="line" smooth="yes"/>
      <point x="-553" y="-318"/>
      <point x="-511" y="-366"/>
      <point x="-436" y="-381" type="curve"/>
      <point x="-436" y="-386" type="line"/>
      <point x="-518" y="-412"/>
      <point x="-558" y="-474"/>
      <point x="-558" y="-558" type="curve" smooth="yes"/>
      <point x="-558" y="-566" type="line" smooth="yes"/>
      <point x="-558" y="-708"/>
      <point x="-441" y="-791"/>
    </contour>
  </outline>
</glyph>
<glyph name="MatraE.or" format="2">
  <advance width="1064"/>
  <unicode hex="0B47"/>
  <outline>
    <contour>
      <point x="565" y="-23" type="curve" smooth="yes"/>
      <point x="845" y="-23"/>
      <point x="996" y="114"/>
      <point x="996" y="374" type="curve" smooth="yes"/>
      <point x="996" y="451" type="line" smooth="yes"/>
      <point x="996" y="692"/>
      <point x="876" y="827"/>
      <point x="643" y="827" type="curve" smooth="yes"/>
      <point x="450" y="827"/>
      <point x="341" y="743"/>
      <point x="295" y="635" type="curve"/>
      <point x="273" y="635" type="line"/>
      <point x="279" y="442" type="line"/>
      <point x="326" y="579"/>
      <point x="430" y="667"/>
      <point x="584" y="667" type="curve" smooth="yes"/>
      <point x="738" y="667"/>
      <point x="811" y="585"/>
      <point x="811" y="440" type="curve" smooth="yes"/>
      <point x="811" y="376" type="line" smooth="yes"/>
      <point x="811" y="223"/>
      <point x="727" y="139"/>
      <point x="569" y="139" type="curve" smooth="yes"/>
      <point x="386" y="139"/>
      <point x="288" y="250"/>
      <point x="288" y="458" type="curve" smooth="yes"/>
      <point x="288" y="817" type="line" smooth="yes"/>
      <point x="288" y="1078"/>
      <point x="400" y="1211"/>
      <point x="628" y="1211" type="curve" smooth="yes"/>
      <point x="767" y="1211"/>
      <point x="856" y="1176"/>
      <point x="937" y="1130" type="curve"/>
      <point x="924" y="1299" type="line"/>
      <point x="851" y="1339"/>
      <point x="747" y="1376"/>
      <point x="599" y="1376" type="curve" smooth="yes"/>
      <point x="272" y="1376"/>
      <point x="102" y="1173"/>
      <point x="102" y="818" type="curve" smooth="yes"/>
      <point x="102" y="468" type="line" smooth="yes"/>
      <point x="102" y="145"/>
      <point x="271" y="-23"/>
    </contour>
  </outline>
</glyph>
<glyph name="Virama.or" format="2">
  <unicode hex="0B4D"/>
  <anchor x="-140" y="47" name="_bottom"/>
  <outline>
    <contour>
      <point x="-326" y="-113" type="line"/>
      <point x="-326" y="-97" type="line"/>
      <point x="-138" y="-97" type="line"/>
      <point x="135" y="-493" type="line"/>
      <point x="135" y="-501" type="line"/>
      <point x="-33" y="-501" type="line"/>
    </contour>
  </outline>
</glyph>
<glyph name="LengthmarkAu.or" format="2">
  <advance width="458"/>
  <unicode hex="0B57"/>
  <outline>
    <contour>
      <point x="140" y="0" type="line"/>
      <point x="318" y="0" type="line"/>
      <point x="318" y="1334" type="line" smooth="yes"/>
      <point x="318" y="1592"/>
      <point x="209" y="1694"/>
      <point x="-65" y="1698" type="curve" smooth="yes"/>
      <point x="-444" y="1703" type="line" smooth="yes"/>
      <point x="-578" y="1705"/>
      <point x="-642" y="1742"/>
      <point x="-645" y="1842" type="curve" smooth="yes"/>
      <point x="-646" y="1871" type="line"/>
      <point x="-821" y="1871" type="line"/>
      <point x="-821" y="1838" type="line" smooth="yes"/>
      <point x="-821" y="1639"/>
      <point x="-706" y="1556"/>
      <point x="-456" y="1553" type="curve" smooth="yes"/>
      <point x="-79" y="1548" type="line" smooth="yes"/>
      <point x="90" y="1546"/>
      <point x="140" y="1481"/>
      <point x="140" y="1327" type="curve" smooth="yes"/>
    </contour>
  </outline>
</glyph>
<glyph name="Yya.or" format="2">
  <advance width="1553"/>
  <unicode hex="0B5F"/>
  <anchor x="1429" y="-216" name="bottom"/>
  <anchor x="748" y="1776" name="top1"/>
  <anchor x="1306" y="1431" name="top2"/>
  <outline>
    <contour>
      <point x="1599" y="-418" type="line"/>
      <point x="1599" y="-233" type="line"/>
      <point x="1242" y="-135" type="line"/>
      <point x="1234" y="-177" type="line"/>
      <point x="1315" y="-183" type="line"/>
      <point x="1475" y="-174"/>
      <point x="1549" y="-91"/>
      <point x="1549" y="54" type="curve" smooth="yes"/>
      <point x="1549" y="109" type="line" smooth="yes"/>
      <point x="1549" y="251"/>
      <point x="1481" y="327"/>
      <point x="1368" y="352" type="curve"/>
      <point x="1290" y="363" type="line"/>
      <point x="1198" y="362"/>
      <point x="1138" y="324"/>
      <point x="1052" y="268" type="curve" smooth="yes"/>
      <point x="943" y="197"/>
      <point x="863" y="140"/>
      <point x="760" y="140" type="curve" smooth="yes"/>
      <point x="621" y="140"/>
      <point x="548" y="215"/>
      <point x="548" y="353" type="curve" smooth="yes"/>
      <point x="548" y="400" type="line" smooth="yes"/>
      <point x="548" y="457"/>
      <point x="561" y="502"/>
      <point x="599" y="535" type="curve"/>
      <point x="415" y="532" type="line"/>
      <point x="380" y="488"/>
      <point x="365" y="435"/>
      <point x="365" y="376" type="curve" smooth="yes"/>
      <point x="365" y="332" type="line" smooth="yes"/>
      <point x="365" y="112"/>
      <point x="489" y="-20"/>
      <point x="733" y="-20" type="curve" smooth="yes"/>
      <point x="876" y="-20"/>
      <point x="965" y="29"/>
      <point x="1076" y="103" type="curve" smooth="yes"/>
      <point x="1163" y="161"/>
      <point x="1211" y="205"/>
      <point x="1272" y="205" type="curve" smooth="yes"/>
      <point x="1338" y="205"/>
      <point x="1370" y="163"/>
      <point x="1370" y="88" type="curve" smooth="yes"/>
      <point x="1370" y="39" type="line" smooth="yes"/>
      <point x="1370" y="-52"/>
      <point x="1321" y="-102"/>
      <point x="1200" y="-103" type="curve" smooth="yes"/>
      <point x="1106" y="-104" type="line"/>
      <point x="1106" y="-235" type="line"/>
    </contour>
    <contour>
      <point x="18" y="219" type="line"/>
      <point x="425" y="431" type="line"/>
      <point x="535" y="489" type="line"/>
      <point x="826" y="640" type="line"/>
      <point x="826" y="816" type="line"/>
      <point x="422" y="609" type="line"/>
      <point x="328" y="560" type="line"/>
      <point x="18" y="403" type="line"/>
    </contour>
    <contour>
      <point x="392" y="501" type="curve"/>
      <point x="480" y="617" type="line"/>
      <point x="345" y="663"/>
      <point x="296" y="742"/>
      <point x="296" y="857" type="curve" smooth="yes"/>
      <point x="296" y="907" type="line" smooth="yes"/>
      <point x="296" y="1112"/>
      <point x="443" y="1215"/>
      <point x="730" y="1215" type="curve" smooth="yes"/>
      <point x="1031" y="1215"/>
      <point x="1227" y="1084"/>
      <point x="1237" y="801" type="curve"/>
      <point x="1333" y="801" type="line"/>
      <point x="1246" y="1058" type="line"/>
      <point x="1206" y="1253"/>
      <point x="1043" y="1379"/>
      <point x="708" y="1379" type="curve" smooth="yes"/>
      <point x="336" y="1379"/>
      <point x="110" y="1210"/>
      <point x="110" y="907" type="curve" smooth="yes"/>
      <point x="110" y="857" type="line" smooth="yes"/>
      <point x="110" y="664"/>
      <point x="200" y="546"/>
    </contour>
    <contour>
      <point x="1237" y="235" type="line"/>
      <point x="1414" y="235" type="line"/>
      <point x="1414" y="1344" type="line"/>
      <point x="1236" y="1344" type="line"/>
      <point x="1242" y="1108" type="line"/>
      <point x="1211" y="1108" type="line"/>
      <point x="1237" y="961" type="line"/>
    </contour>
  </outline>
</glyph>
<glyph name="VocalicRr.or" format="2">
  <advance width="1659"/>
  <unicode hex="0B60"/>
  <anchor x="800" y="1777" name="top1"/>
  <anchor x="1284" y="1431" name="top2"/>
  <outline>
    <contour>
      <point x="1642" y="-175" type="line"/>
      <point x="1642" y="7" type="line"/>
      <point x="1315" y="105" type="line"/>
      <point x="1314" y="60" type="line"/>
      <point x="1414" y="62" type="line"/>
      <point x="1529" y="64"/>
      <point x="1592" y="137"/>
      <point x="1592" y="215" type="curve" smooth="yes"/>
      <point x="1592" y="224" type="line" smooth="yes"/>
      <point x="1592" y="311"/>
      <point x="1555" y="357"/>
      <point x="1485" y="375" type="curve"/>
      <point x="1485" y="381" type="line"/>
      <point x="1551" y="394"/>
      <point x="1589" y="452"/>
      <point x="1589" y="516" type="curve" smooth="yes"/>
      <point x="1589" y="525" type="line" smooth="yes"/>
      <point x="1589" y="625"/>
      <point x="1531" y="684"/>
      <point x="1403" y="693" type="curve"/>
      <point x="1394" y="657" type="line"/>
      <point x="1488" y="684"/>
      <point x="1530" y="763"/>
      <point x="1530" y="864" type="curve" smooth="yes"/>
      <point x="1530" y="882" type="line" smooth="yes"/>
      <point x="1530" y="1192"/>
      <point x="1254" y="1379"/>
      <point x="795" y="1379" type="curve" smooth="yes"/>
      <point x="344" y="1379"/>
      <point x="87" y="1180"/>
      <point x="87" y="837" type="curve" smooth="yes"/>
      <point x="87" y="786" type="line" smooth="yes"/>
      <point x="87" y="578"/>
      <point x="181" y="446"/>
      <point x="372" y="377" type="curve"/>
      <point x="426" y="539" type="line"/>
      <point x="322" y="587"/>
      <point x="273" y="665"/>
      <point x="273" y="785" type="curve" smooth="yes"/>
      <point x="273" y="837" type="line" smooth="yes"/>
      <point x="273" y="1081"/>
      <point x="448" y="1215"/>
      <point x="794" y="1215" type="curve" smooth="yes"/>
      <point x="1151" y="1215"/>
      <point x="1345" y="1092"/>
      <point x="1345" y="869" type="curve" smooth="yes"/>
      <point x="1345" y="850" type="line" smooth="yes"/>
      <point x="1345" y="768"/>
      <point x="1316" y="711"/>
      <point x="1228" y="706" type="curve" smooth="yes"/>
      <point x="1210" y="705" type="line"/>
      <point x="1210" y="585" type="line"/>
      <point x="1295" y="583" type="line" smooth="yes"/>
      <point x="1382" y="581"/>
      <point x="1412" y="555"/>
      <point x="1412" y="506" type="curve" smooth="yes"/>
      <point x="1412" y="501" type="line" smooth="yes"/>
      <point x="1412" y="452"/>
      <point x="1381" y="426"/>
      <point x="1299" y="423" type="curve" smooth="yes"/>
      <point x="1215" y="420" type="line"/>
      <point x="1215" y="300" type="line"/>
      <point x="1299" y="298" type="line" smooth="yes"/>
      <point x="1382" y="296"/>
      <point x="1413" y="268"/>
      <point x="1413" y="217" type="curve" smooth="yes"/>
      <point x="1413" y="211" type="line" smooth="yes"/>
      <point x="1413" y="162"/>
      <point x="1374" y="134"/>
      <point x="1289" y="132" type="curve" smooth="yes"/>
      <point x="1199" y="130" type="line"/>
      <point x="1199" y="8" type="line"/>
    </contour>
    <contour>
      <point x="701" y="-22" type="curve" smooth="yes"/>
      <point x="944" y="-22"/>
      <point x="1071" y="104"/>
      <point x="1071" y="342" type="curve" smooth="yes"/>
      <point x="1071" y="390" type="line" smooth="yes"/>
      <point x="1071" y="626"/>
      <point x="944" y="753"/>
      <point x="705" y="753" type="curve" smooth="yes"/>
      <point x="493" y="753"/>
      <point x="379" y="647"/>
      <point x="344" y="476" type="curve"/>
      <point x="337" y="446" type="line"/>
      <point x="334" y="430"/>
      <point x="331" y="411"/>
      <point x="331" y="392" type="curve" smooth="yes"/>
      <point x="331" y="342" type="line" smooth="yes"/>
      <point x="331" y="104"/>
      <point x="458" y="-22"/>
    </contour>
    <contour>
      <point x="701" y="129" type="curve" smooth="yes"/>
      <point x="576" y="129"/>
      <point x="514" y="199"/>
      <point x="514" y="341" type="curve" smooth="yes"/>
      <point x="514" y="391" type="line" smooth="yes"/>
      <point x="514" y="533"/>
      <point x="576" y="603"/>
      <point x="701" y="603" type="curve" smooth="yes"/>
      <point x="824" y="603"/>
      <point x="887" y="533"/>
      <point x="887" y="391" type="curve" smooth="yes"/>
      <point x="887" y="341" type="line" smooth="yes"/>
      <point x="887" y="199"/>
      <point x="824" y="129"/>
    </contour>
  </outline>
</glyph>
<glyph name="VocalicLl.or" format="2">
  <advance width="1357"/>
  <unicode hex="0B61"/>
  <anchor x="1055" y="1431" name="top2"/>
  <outline>
    <contour>
      <point x="702" y="-18" type="curve" smooth="yes"/>
      <point x="814" y="-18"/>
      <point x="911" y="-5"/>
      <point x="992" y="20" type="curve"/>
      <point x="1056" y="53" type="line"/>
      <point x="1216" y="117"/>
      <point x="1286" y="225"/>
      <point x="1286" y="364" type="curve" smooth="yes"/>
      <point x="1286" y="376" type="line" smooth="yes"/>
      <point x="1286" y="570"/>
      <point x="1174" y="684"/>
      <point x="949" y="684" type="curve" smooth="yes"/>
      <point x="739" y="684"/>
      <point x="615" y="574"/>
      <point x="615" y="383" type="curve" smooth="yes"/>
      <point x="615" y="364" type="line" smooth="yes"/>
      <point x="615" y="224"/>
      <point x="679" y="149"/>
      <point x="796" y="104" type="curve"/>
      <point x="951" y="144" type="line"/>
      <point x="838" y="189"/>
      <point x="785" y="245"/>
      <point x="785" y="364" type="curve" smooth="yes"/>
      <point x="785" y="380" type="line" smooth="yes"/>
      <point x="785" y="486"/>
      <point x="842" y="545"/>
      <point x="949" y="545" type="curve" smooth="yes"/>
      <point x="1062" y="545"/>
      <point x="1115" y="488"/>
      <point x="1115" y="378" type="curve" smooth="yes"/>
      <point x="1115" y="367" type="line" smooth="yes"/>
      <point x="1115" y="254"/>
      <point x="1043" y="174"/>
      <point x="899" y="148" type="curve"/>
      <point x="802" y="133" type="line"/>
      <point x="771" y="131"/>
      <point x="761" y="131"/>
      <point x="710" y="131" type="curve" smooth="yes"/>
      <point x="413" y="131"/>
      <point x="276" y="226"/>
      <point x="276" y="404" type="curve" smooth="yes"/>
      <point x="276" y="419" type="line" smooth="yes"/>
      <point x="276" y="563"/>
      <point x="351" y="625"/>
      <point x="523" y="685" type="curve" smooth="yes"/>
      <point x="720" y="754" type="line" smooth="yes"/>
      <point x="955" y="836"/>
      <point x="1053" y="913"/>
      <point x="1053" y="1082" type="curve" smooth="yes"/>
      <point x="1053" y="1096" type="line" smooth="yes"/>
      <point x="1053" y="1275"/>
      <point x="923" y="1379"/>
      <point x="680" y="1379" type="curve" smooth="yes"/>
      <point x="443" y="1379"/>
      <point x="306" y="1280"/>
      <point x="306" y="1102" type="curve" smooth="yes"/>
      <point x="306" y="1091" type="line" smooth="yes"/>
      <point x="306" y="1041"/>
      <point x="317" y="1000"/>
      <point x="336" y="961" type="curve"/>
      <point x="517" y="955" type="line"/>
      <point x="498" y="994"/>
      <point x="488" y="1027"/>
      <point x="488" y="1070" type="curve" smooth="yes"/>
      <point x="488" y="1079" type="line" smooth="yes"/>
      <point x="488" y="1176"/>
      <point x="552" y="1229"/>
      <point x="677" y="1229" type="curve" smooth="yes"/>
      <point x="804" y="1229"/>
      <point x="870" y="1181"/>
      <point x="870" y="1089" type="curve" smooth="yes"/>
      <point x="870" y="1077" type="line" smooth="yes"/>
      <point x="870" y="984"/>
      <point x="807" y="937"/>
      <point x="665" y="890" type="curve" smooth="yes"/>
      <point x="468" y="825" type="line" smooth="yes"/>
      <point x="217" y="742"/>
      <point x="87" y="640"/>
      <point x="87" y="417" type="curve" smooth="yes"/>
      <point x="87" y="396" type="line" smooth="yes"/>
      <point x="87" y="125"/>
      <point x="301" y="-18"/>
    </contour>
    <contour>
      <point x="1315" y="-113" type="curve"/>
      <point x="1315" y="41" type="line"/>
      <point x="1228" y="50"/>
      <point x="1139" y="70"/>
      <point x="1062" y="97" type="curve"/>
      <point x="917" y="20" type="line"/>
      <point x="1023" y="-41"/>
      <point x="1180" y="-99"/>
    </contour>
  </outline>
</glyph>
<glyph name="MatraVocalicL.or" format="2">
  <unicode hex="0B62"/>
  <outline>
    <contour>
      <point x="-121" y="-703" type="curve" smooth="yes"/>
      <point x="78" y="-703"/>
      <point x="184" y="-627"/>
      <point x="184" y="-509" type="curve" smooth="yes"/>
      <point x="184" y="-493" type="line" smooth="yes"/>
      <point x="184" y="-401"/>
      <point x="127" y="-343"/>
      <point x="8" y="-343" type="curve" smooth="yes"/>
      <point x="-101" y="-343"/>
      <point x="-173" y="-396"/>
      <point x="-173" y="-490" type="curve" smooth="yes"/>
      <point x="-173" y="-507" type="line" smooth="yes"/>
      <point x="-173" y="-574"/>
      <point x="-130" y="-613"/>
      <point x="-61" y="-630" type="curve"/>
      <point x="6" y="-610" type="line"/>
      <point x="-41" y="-595"/>
      <point x="-72" y="-566"/>
      <point x="-72" y="-517" type="curve" smooth="yes"/>
      <point x="-72" y="-499" type="line" smooth="yes"/>
      <point x="-72" y="-453"/>
      <point x="-44" y="-427"/>
      <point x="6" y="-427" type="curve" smooth="yes"/>
      <point x="57" y="-427"/>
      <point x="80" y="-453"/>
      <point x="80" y="-497" type="curve" smooth="yes"/>
      <point x="80" y="-510" type="line" smooth="yes"/>
      <point x="80" y="-557"/>
      <point x="42" y="-592"/>
      <point x="-24" y="-603" type="curve"/>
      <point x="-55" y="-609" type="line"/>
      <point x="-74" y="-610"/>
      <point x="-96" y="-611"/>
      <point x="-118" y="-611" type="curve" smooth="yes"/>
      <point x="-260" y="-610"/>
      <point x="-327" y="-568"/>
      <point x="-327" y="-487" type="curve" smooth="yes"/>
      <point x="-327" y="-477" type="line" smooth="yes"/>
      <point x="-327" y="-414"/>
      <point x="-295" y="-381"/>
      <point x="-219" y="-355" type="curve" smooth="yes"/>
      <point x="-110" y="-318" type="line" smooth="yes"/>
      <point x="16" y="-275"/>
      <point x="64" y="-236"/>
      <point x="64" y="-151" type="curve" smooth="yes"/>
      <point x="64" y="-144" type="line" smooth="yes"/>
      <point x="64" y="-53"/>
      <point x="-6" y="0"/>
      <point x="-132" y="0" type="curve" smooth="yes"/>
      <point x="-256" y="0"/>
      <point x="-330" y="-51"/>
      <point x="-330" y="-141" type="curve" smooth="yes"/>
      <point x="-330" y="-146" type="line" smooth="yes"/>
      <point x="-330" y="-170"/>
      <point x="-324" y="-191"/>
      <point x="-313" y="-210" type="curve"/>
      <point x="-210" y="-214" type="line"/>
      <point x="-221" y="-194"/>
      <point x="-227" y="-179"/>
      <point x="-227" y="-159" type="curve" smooth="yes"/>
      <point x="-227" y="-154" type="line" smooth="yes"/>
      <point x="-227" y="-113"/>
      <point x="-193" y="-89"/>
      <point x="-133" y="-89" type="curve" smooth="yes"/>
      <point x="-77" y="-89"/>
      <point x="-46" y="-110"/>
      <point x="-46" y="-149" type="curve" smooth="yes"/>
      <point x="-46" y="-154" type="line" smooth="yes"/>
      <point x="-46" y="-193"/>
      <point x="-76" y="-214"/>
      <point x="-144" y="-236" type="curve" smooth="yes"/>
      <point x="-251" y="-270" type="line" smooth="yes"/>
      <point x="-376" y="-310"/>
      <point x="-441" y="-366"/>
      <point x="-441" y="-478" type="curve" smooth="yes"/>
      <point x="-441" y="-491" type="line" smooth="yes"/>
      <point x="-441" y="-630"/>
      <point x="-326" y="-703"/>
    </contour>
  </outline>
</glyph>
<glyph name="MatraVocalicLl.or" format="2">
  <unicode hex="0B63"/>
  <outline>
    <contour>
      <point x="-314" y="-703" type="curve" smooth="yes"/>
      <point x="-260" y="-703"/>
      <point x="-214" y="-696"/>
      <point x="-174" y="-683" type="curve"/>
      <point x="-124" y="-660" type="line"/>
      <point x="-48" y="-628"/>
      <point x="-9" y="-576"/>
      <point x="-9" y="-509" type="curve" smooth="yes"/>
      <point x="-9" y="-493" type="line" smooth="yes"/>
      <point x="-9" y="-401"/>
      <point x="-66" y="-343"/>
      <point x="-185" y="-343" type="curve" smooth="yes"/>
      <point x="-294" y="-343"/>
      <point x="-366" y="-396"/>
      <point x="-366" y="-490" type="curve" smooth="yes"/>
      <point x="-366" y="-507" type="line" smooth="yes"/>
      <point x="-366" y="-574"/>
      <point x="-323" y="-613"/>
      <point x="-254" y="-630" type="curve"/>
      <point x="-187" y="-610" type="line"/>
      <point x="-234" y="-595"/>
      <point x="-265" y="-566"/>
      <point x="-265" y="-517" type="curve" smooth="yes"/>
      <point x="-265" y="-499" type="line" smooth="yes"/>
      <point x="-265" y="-453"/>
      <point x="-237" y="-427"/>
      <point x="-187" y="-427" type="curve" smooth="yes"/>
      <point x="-136" y="-427"/>
      <point x="-113" y="-453"/>
      <point x="-113" y="-497" type="curve" smooth="yes"/>
      <point x="-113" y="-510" type="line" smooth="yes"/>
      <point x="-113" y="-557"/>
      <point x="-151" y="-597"/>
      <point x="-222" y="-607" type="curve"/>
      <point x="-248" y="-609" type="line"/>
      <point x="-267" y="-610"/>
      <point x="-289" y="-611"/>
      <point x="-311" y="-611" type="curve" smooth="yes"/>
      <point x="-453" y="-610"/>
      <point x="-520" y="-568"/>
      <point x="-520" y="-487" type="curve" smooth="yes"/>
      <point x="-520" y="-477" type="line" smooth="yes"/>
      <point x="-520" y="-414"/>
      <point x="-488" y="-381"/>
      <point x="-412" y="-355" type="curve" smooth="yes"/>
      <point x="-303" y="-318" type="line" smooth="yes"/>
      <point x="-177" y="-275"/>
      <point x="-129" y="-236"/>
      <point x="-129" y="-151" type="curve" smooth="yes"/>
      <point x="-129" y="-144" type="line" smooth="yes"/>
      <point x="-129" y="-53"/>
      <point x="-199" y="0"/>
      <point x="-325" y="0" type="curve" smooth="yes"/>
      <point x="-449" y="0"/>
      <point x="-523" y="-51"/>
      <point x="-523" y="-141" type="curve" smooth="yes"/>
      <point x="-523" y="-146" type="line" smooth="yes"/>
      <point x="-523" y="-170"/>
      <point x="-517" y="-191"/>
      <point x="-506" y="-210" type="curve"/>
      <point x="-403" y="-214" type="line"/>
      <point x="-414" y="-194"/>
      <point x="-420" y="-179"/>
      <point x="-420" y="-159" type="curve" smooth="yes"/>
      <point x="-420" y="-154" type="line" smooth="yes"/>
      <point x="-420" y="-113"/>
      <point x="-386" y="-89"/>
      <point x="-326" y="-89" type="curve" smooth="yes"/>
      <point x="-270" y="-89"/>
      <point x="-239" y="-110"/>
      <point x="-239" y="-149" type="curve" smooth="yes"/>
      <point x="-239" y="-154" type="line" smooth="yes"/>
      <point x="-239" y="-193"/>
      <point x="-269" y="-214"/>
      <point x="-337" y="-236" type="curve" smooth="yes"/>
      <point x="-444" y="-270" type="line" smooth="yes"/>
      <point x="-569" y="-310"/>
      <point x="-634" y="-366"/>
      <point x="-634" y="-478" type="curve" smooth="yes"/>
      <point x="-634" y="-491" type="line" smooth="yes"/>
      <point x="-634" y="-630"/>
      <point x="-519" y="-703"/>
    </contour>
    <contour>
      <point x="15" y="-757" type="curve"/>
      <point x="15" y="-670" type="line"/>
      <point x="-34" y="-665"/>
      <point x="-84" y="-653"/>
      <point x="-126" y="-639" type="curve"/>
      <point x="-208" y="-682" type="line"/>
      <point x="-150" y="-716"/>
      <point x="-61" y="-749"/>
    </contour>
  </outline>
</glyph>
<glyph name="zero.or" format="2">
  <advance width="1169"/>
  <unicode hex="0B66"/>
  <outline>
    <contour>
      <point x="94" y="857" type="curve" smooth="yes"/>
      <point x="94" y="497" type="line" smooth="yes"/>
      <point x="94" y="158"/>
      <point x="268" y="-23"/>
      <point x="584" y="-23" type="curve" smooth="yes"/>
      <point x="901" y="-23"/>
      <point x="1075" y="158"/>
      <point x="1075" y="496" type="curve" smooth="yes"/>
      <point x="1075" y="857" type="line" smooth="yes"/>
      <point x="1075" y="1196"/>
      <point x="901" y="1376"/>
      <point x="584" y="1376" type="curve" smooth="yes"/>
      <point x="268" y="1376"/>
      <point x="94" y="1196"/>
    </contour>
    <contour>
      <point x="281" y="492" type="curve" smooth="yes"/>
      <point x="281" y="862" type="line" smooth="yes"/>
      <point x="281" y="1092"/>
      <point x="384" y="1212"/>
      <point x="584" y="1212" type="curve" smooth="yes"/>
      <point x="785" y="1212"/>
      <point x="888" y="1092"/>
      <point x="888" y="862" type="curve" smooth="yes"/>
      <point x="888" y="492" type="line" smooth="yes"/>
      <point x="888" y="262"/>
      <point x="785" y="141"/>
      <point x="584" y="141" type="curve" smooth="yes"/>
      <point x="384" y="141"/>
      <point x="281" y="261"/>
    </contour>
  </outline>
</glyph>
<glyph name="one.or" format="2">
  <advance width="1065"/>
  <unicode hex="0B67"/>
  <outline>
    <contour>
      <point x="556" y="1376" type="curve" smooth="yes"/>
      <point x="837" y="1376"/>
      <point x="987" y="1235"/>
      <point x="987" y="972" type="curve" smooth="yes"/>
      <point x="987" y="934" type="line" smooth="yes"/>
      <point x="987" y="680"/>
      <point x="858" y="546"/>
      <point x="616" y="546" type="curve" smooth="yes"/>
      <point x="446" y="546"/>
      <point x="342" y="616"/>
      <point x="289" y="715" type="curve"/>
      <point x="255" y="715" type="line"/>
      <point x="278" y="916" type="line"/>
      <point x="321" y="791"/>
      <point x="423" y="708"/>
      <point x="583" y="708" type="curve" smooth="yes"/>
      <point x="730" y="708"/>
      <point x="802" y="787"/>
      <point x="802" y="938" type="curve" smooth="yes"/>
      <point x="802" y="972" type="line" smooth="yes"/>
      <point x="802" y="1130"/>
      <point x="721" y="1212"/>
      <point x="558" y="1212" type="curve" smooth="yes"/>
      <point x="373" y="1212"/>
      <point x="281" y="1102"/>
      <point x="281" y="883" type="curve" smooth="yes"/>
      <point x="281" y="747" type="line"/>
      <point x="281" y="721" type="line"/>
      <point x="281" y="608" type="line"/>
      <point x="281" y="309"/>
      <point x="479" y="163"/>
      <point x="829" y="163" type="curve" smooth="yes"/>
      <point x="931" y="163" type="line"/>
      <point x="905" y="-3" type="line"/>
      <point x="803" y="-3" type="line" smooth="yes"/>
      <point x="341" y="-3"/>
      <point x="96" y="207"/>
      <point x="96" y="608" type="curve" smooth="yes"/>
      <point x="96" y="862" type="line" smooth="yes"/>
      <point x="96" y="1202"/>
      <point x="265" y="1376"/>
    </contour>
  </outline>
</glyph>
<glyph name="two.or" format="2">
  <advance width="1065"/>
  <unicode hex="0B68"/>
  <outline>
    <contour>
      <point x="514" y="1376" type="curve" smooth="yes"/>
      <point x="805" y="1376"/>
      <point x="972" y="1202"/>
      <point x="972" y="872" type="curve" smooth="yes"/>
      <point x="972" y="608" type="line" smooth="yes"/>
      <point x="972" y="207"/>
      <point x="726" y="-3"/>
      <point x="261" y="-3" type="curve" smooth="yes"/>
      <point x="163" y="-3" type="line"/>
      <point x="137" y="163" type="line"/>
      <point x="247" y="163" type="line" smooth="yes"/>
      <point x="592" y="163"/>
      <point x="787" y="309"/>
      <point x="787" y="608" type="curve"/>
      <point x="787" y="721" type="line"/>
      <point x="787" y="747" type="line"/>
      <point x="787" y="883" type="line" smooth="yes"/>
      <point x="787" y="1102"/>
      <point x="696" y="1212"/>
      <point x="512" y="1212" type="curve" smooth="yes"/>
      <point x="350" y="1212"/>
      <point x="266" y="1130"/>
      <point x="266" y="972" type="curve" smooth="yes"/>
      <point x="266" y="938" type="line" smooth="yes"/>
      <point x="266" y="787"/>
      <point x="343" y="708"/>
      <point x="499" y="708" type="curve" smooth="yes"/>
      <point x="652" y="708"/>
      <point x="749" y="791"/>
      <point x="790" y="916" type="curve"/>
      <point x="813" y="715" type="line"/>
      <point x="779" y="715" type="line"/>
      <point x="727" y="616"/>
      <point x="623" y="546"/>
      <point x="460" y="546" type="curve" smooth="yes"/>
      <point x="213" y="546"/>
      <point x="81" y="680"/>
      <point x="81" y="934" type="curve" smooth="yes"/>
      <point x="81" y="972" type="line" smooth="yes"/>
      <point x="81" y="1235"/>
      <point x="234" y="1376"/>
    </contour>
  </outline>
</glyph>
<glyph name="three.or" format="2">
  <advance width="1468"/>
  <unicode hex="0B69"/>
  <outline>
    <contour>
      <point x="426" y="1375" type="curve" smooth="yes"/>
      <point x="208" y="1375"/>
      <point x="78" y="1241"/>
      <point x="78" y="999" type="curve" smooth="yes"/>
      <point x="78" y="866" type="line" smooth="yes"/>
      <point x="78" y="635"/>
      <point x="186" y="509"/>
      <point x="392" y="509" type="curve" smooth="yes"/>
      <point x="530" y="509"/>
      <point x="600" y="562"/>
      <point x="631" y="651" type="curve"/>
      <point x="670" y="651" type="line"/>
      <point x="636" y="878" type="line"/>
      <point x="636" y="742"/>
      <point x="566" y="671"/>
      <point x="450" y="671" type="curve" smooth="yes"/>
      <point x="326" y="671"/>
      <point x="265" y="743"/>
      <point x="265" y="883" type="curve" smooth="yes"/>
      <point x="265" y="999" type="line" smooth="yes"/>
      <point x="265" y="1139"/>
      <point x="327" y="1211"/>
      <point x="448" y="1211" type="curve" smooth="yes"/>
      <point x="570" y="1211"/>
      <point x="636" y="1135"/>
      <point x="636" y="1000" type="curve" smooth="yes"/>
      <point x="636" y="745" type="line"/>
      <point x="641" y="705" type="line"/>
      <point x="636" y="537" type="line"/>
      <point x="636" y="0" type="line"/>
      <point x="821" y="0" type="line"/>
      <point x="821" y="1003" type="line" smooth="yes"/>
      <point x="821" y="1142"/>
      <point x="877" y="1211"/>
      <point x="987" y="1211" type="curve" smooth="yes"/>
      <point x="1102" y="1211"/>
      <point x="1151" y="1146"/>
      <point x="1151" y="1003" type="curve" smooth="yes"/>
      <point x="1151" y="0" type="line"/>
      <point x="1336" y="0" type="line"/>
      <point x="1336" y="1017" type="line" smooth="yes"/>
      <point x="1336" y="1255"/>
      <point x="1234" y="1375"/>
      <point x="1020" y="1375" type="curve" smooth="yes"/>
      <point x="859" y="1375"/>
      <point x="769" y="1309"/>
      <point x="730" y="1202" type="curve"/>
      <point x="723" y="1202" type="line"/>
      <point x="687" y="1312"/>
      <point x="593" y="1375"/>
    </contour>
  </outline>
</glyph>
<glyph name="four.or" format="2">
  <advance width="1131"/>
  <unicode hex="0B6A"/>
  <outline>
    <contour>
      <point x="603" y="778" type="line"/>
      <point x="1172" y="1340" type="line"/>
      <point x="1172" y="1343" type="line"/>
      <point x="943" y="1343" type="line"/>
      <point x="479" y="878" type="line"/>
    </contour>
    <contour>
      <point x="514" y="809" type="line"/>
      <point x="639" y="906" type="line"/>
      <point x="191" y="1343" type="line"/>
      <point x="-42" y="1343" type="line"/>
      <point x="-42" y="1340" type="line"/>
    </contour>
    <contour>
      <point x="566" y="-21" type="curve" smooth="yes"/>
      <point x="852" y="-21"/>
      <point x="1004" y="112"/>
      <point x="1004" y="345" type="curve" smooth="yes"/>
      <point x="1004" y="366" type="line" smooth="yes"/>
      <point x="1004" y="516"/>
      <point x="929" y="630"/>
      <point x="794" y="762" type="curve" smooth="yes"/>
      <point x="660" y="894" type="line"/>
      <point x="524" y="791" type="line"/>
      <point x="660" y="660" type="line" smooth="yes"/>
      <point x="754" y="569"/>
      <point x="819" y="482"/>
      <point x="819" y="372" type="curve" smooth="yes"/>
      <point x="819" y="356" type="line" smooth="yes"/>
      <point x="819" y="222"/>
      <point x="730" y="141"/>
      <point x="566" y="141" type="curve" smooth="yes"/>
      <point x="405" y="141"/>
      <point x="314" y="222"/>
      <point x="314" y="355" type="curve" smooth="yes"/>
      <point x="314" y="372" type="line" smooth="yes"/>
      <point x="314" y="480"/>
      <point x="373" y="570"/>
      <point x="471" y="659" type="curve" smooth="yes"/>
      <point x="616" y="792" type="line"/>
      <point x="471" y="885" type="line"/>
      <point x="340" y="762" type="line" smooth="yes"/>
      <point x="203" y="634"/>
      <point x="129" y="520"/>
      <point x="129" y="366" type="curve" smooth="yes"/>
      <point x="129" y="345" type="line" smooth="yes"/>
      <point x="129" y="115"/>
      <point x="283" y="-21"/>
    </contour>
  </outline>
</glyph>
<glyph name="five.or" format="2">
  <advance width="1420"/>
  <unicode hex="0B6B"/>
  <outline>
    <contour>
      <point x="651" y="618" type="curve"/>
      <point x="859" y="589"/>
      <point x="959" y="514"/>
      <point x="959" y="375" type="curve" smooth="yes"/>
      <point x="959" y="350" type="line" smooth="yes"/>
      <point x="959" y="209"/>
      <point x="868" y="140"/>
      <point x="701" y="140" type="curve" smooth="yes"/>
      <point x="536" y="140"/>
      <point x="441" y="209"/>
      <point x="441" y="349" type="curve" smooth="yes"/>
      <point x="441" y="372" type="line" smooth="yes"/>
      <point x="441" y="510"/>
      <point x="521" y="583"/>
    </contour>
    <contour>
      <point x="766" y="754" type="curve"/>
      <point x="564" y="768"/>
      <point x="472" y="839"/>
      <point x="472" y="986" type="curve" smooth="yes"/>
      <point x="472" y="1008" type="line" smooth="yes"/>
      <point x="472" y="1139"/>
      <point x="556" y="1213"/>
      <point x="723" y="1213" type="curve" smooth="yes"/>
      <point x="889" y="1213"/>
      <point x="974" y="1140"/>
      <point x="974" y="1007" type="curve" smooth="yes"/>
      <point x="974" y="983" type="line" smooth="yes"/>
      <point x="974" y="843"/>
      <point x="900" y="786"/>
    </contour>
    <contour>
      <point x="723" y="1375" type="curve" smooth="yes"/>
      <point x="436" y="1375"/>
      <point x="287" y="1247"/>
      <point x="287" y="1025" type="curve" smooth="yes"/>
      <point x="287" y="999" type="line" smooth="yes"/>
      <point x="287" y="843"/>
      <point x="362" y="774"/>
      <point x="505" y="726" type="curve"/>
      <point x="507" y="671" type="line"/>
      <point x="328" y="632"/>
      <point x="256" y="512"/>
      <point x="256" y="362" type="curve" smooth="yes"/>
      <point x="256" y="339" type="line" smooth="yes"/>
      <point x="256" y="105"/>
      <point x="404" y="-24"/>
      <point x="701" y="-24" type="curve" smooth="yes"/>
      <point x="995" y="-24"/>
      <point x="1144" y="106"/>
      <point x="1144" y="337" type="curve" smooth="yes"/>
      <point x="1144" y="358" type="line" smooth="yes"/>
      <point x="1144" y="505"/>
      <point x="1071" y="590"/>
      <point x="893" y="645" type="curve"/>
      <point x="910" y="699" type="line"/>
      <point x="1095" y="731"/>
      <point x="1160" y="843"/>
      <point x="1160" y="991" type="curve" smooth="yes"/>
      <point x="1160" y="1019" type="line" smooth="yes"/>
      <point x="1160" y="1248"/>
      <point x="1011" y="1375"/>
    </contour>
    <contour>
      <point x="1406" y="489" type="line"/>
      <point x="1406" y="650" type="line"/>
      <point x="871" y="752" type="line"/>
      <point x="857" y="602" type="line"/>
    </contour>
    <contour>
      <point x="13" y="869" type="line"/>
      <point x="13" y="708" type="line"/>
      <point x="526" y="618" type="line"/>
      <point x="570" y="759" type="line"/>
    </contour>
  </outline>
</glyph>
<glyph name="six.or" format="2">
  <advance width="1164"/>
  <unicode hex="0B6C"/>
  <outline>
    <contour>
      <point x="553" y="1213" type="curve" smooth="yes"/>
      <point x="771" y="1213"/>
      <point x="886" y="1095"/>
      <point x="886" y="856" type="curve" smooth="yes"/>
      <point x="886" y="641" type="line" smooth="yes"/>
      <point x="886" y="323"/>
      <point x="687" y="162"/>
      <point x="277" y="162" type="curve" smooth="yes"/>
      <point x="150" y="162" type="line"/>
      <point x="174" y="-3" type="line"/>
      <point x="290" y="-3" type="line" smooth="yes"/>
      <point x="805" y="-3"/>
      <point x="1071" y="226"/>
      <point x="1071" y="647" type="curve" smooth="yes"/>
      <point x="1071" y="858" type="line" smooth="yes"/>
      <point x="1071" y="1203"/>
      <point x="881" y="1376"/>
      <point x="559" y="1376" type="curve" smooth="yes"/>
      <point x="335" y="1376"/>
      <point x="177" y="1268"/>
      <point x="107" y="1144" type="curve"/>
      <point x="107" y="1001" type="line"/>
      <point x="342" y="985"/>
      <point x="438" y="947"/>
      <point x="438" y="815" type="curve" smooth="yes"/>
      <point x="438" y="798" type="line" smooth="yes"/>
      <point x="438" y="698"/>
      <point x="383" y="649"/>
      <point x="270" y="649" type="curve" smooth="yes"/>
      <point x="195" y="649"/>
      <point x="127" y="669"/>
      <point x="68" y="697" type="curve"/>
      <point x="79" y="543" type="line"/>
      <point x="135" y="515"/>
      <point x="209" y="496"/>
      <point x="297" y="496" type="curve" smooth="yes"/>
      <point x="501" y="496"/>
      <point x="620" y="603"/>
      <point x="620" y="791" type="curve" smooth="yes"/>
      <point x="620" y="813" type="line" smooth="yes"/>
      <point x="620" y="1032"/>
      <point x="503" y="1114"/>
      <point x="181" y="1131" type="curve"/>
      <point x="244" y="1062" type="line"/>
      <point x="299" y="1151"/>
      <point x="391" y="1213"/>
    </contour>
  </outline>
</glyph>
<glyph name="seven.or" format="2">
  <advance width="1270"/>
  <unicode hex="0B6D"/>
  <outline>
    <contour>
      <point x="615" y="1376" type="curve" smooth="yes"/>
      <point x="968" y="1376"/>
      <point x="1177" y="1192"/>
      <point x="1177" y="837" type="curve" smooth="yes"/>
      <point x="1177" y="647" type="line" smooth="yes"/>
      <point x="1177" y="226"/>
      <point x="911" y="-3"/>
      <point x="396" y="-3" type="curve" smooth="yes"/>
      <point x="254" y="-3" type="line"/>
      <point x="230" y="162" type="line"/>
      <point x="383" y="162" type="line" smooth="yes"/>
      <point x="793" y="162"/>
      <point x="992" y="323"/>
      <point x="992" y="641" type="curve" smooth="yes"/>
      <point x="992" y="837" type="line" smooth="yes"/>
      <point x="992" y="1093"/>
      <point x="865" y="1214"/>
      <point x="614" y="1214" type="curve" smooth="yes"/>
      <point x="378" y="1214"/>
      <point x="255" y="1106"/>
      <point x="255" y="900" type="curve" smooth="yes"/>
      <point x="255" y="886" type="line"/>
      <point x="256" y="878" type="line"/>
      <point x="256" y="787" type="line" smooth="yes"/>
      <point x="256" y="677"/>
      <point x="317" y="619"/>
      <point x="425" y="619" type="curve" smooth="yes"/>
      <point x="519" y="619"/>
      <point x="562" y="668"/>
      <point x="562" y="749" type="curve" smooth="yes"/>
      <point x="562" y="767" type="line" smooth="yes"/>
      <point x="562" y="856"/>
      <point x="519" y="902"/>
      <point x="427" y="902" type="curve" smooth="yes"/>
      <point x="334" y="902"/>
      <point x="270" y="847"/>
      <point x="248" y="771" type="curve"/>
      <point x="250" y="917" type="line"/>
      <point x="262" y="917" type="line"/>
      <point x="293" y="995"/>
      <point x="367" y="1050"/>
      <point x="489" y="1050" type="curve" smooth="yes"/>
      <point x="656" y="1050"/>
      <point x="742" y="955"/>
      <point x="742" y="773" type="curve" smooth="yes"/>
      <point x="742" y="748" type="line" smooth="yes"/>
      <point x="742" y="567"/>
      <point x="631" y="465"/>
      <point x="424" y="465" type="curve" smooth="yes"/>
      <point x="205" y="465"/>
      <point x="79" y="579"/>
      <point x="79" y="822" type="curve" smooth="yes"/>
      <point x="79" y="891" type="line" smooth="yes"/>
      <point x="79" y="1186"/>
      <point x="283" y="1376"/>
    </contour>
  </outline>
</glyph>
<glyph name="eight.or" format="2">
  <advance width="997"/>
  <unicode hex="0B6E"/>
  <outline>
    <contour>
      <point x="320" y="1" type="line"/>
      <point x="140" y="1" type="line"/>
      <point x="140" y="1344" type="line"/>
      <point x="949" y="1343" type="line"/>
      <point x="949" y="1181" type="line"/>
      <point x="320" y="1182" type="line"/>
    </contour>
  </outline>
</glyph>
<glyph name="nine.or" format="2">
  <advance width="1140"/>
  <unicode hex="0B6F"/>
  <outline>
    <contour>
      <point x="1027" y="674" type="line"/>
      <point x="1027" y="1343" type="line"/>
      <point x="850" y="1343" type="line"/>
      <point x="850" y="1086" type="line" smooth="yes"/>
      <point x="850" y="999"/>
      <point x="855" y="910"/>
      <point x="857" y="832" type="curve"/>
      <point x="913" y="839" type="line"/>
      <point x="399" y="1344" type="line"/>
      <point x="222" y="1344" type="line"/>
      <point x="139" y="1133"/>
      <point x="95" y="960"/>
      <point x="95" y="741" type="curve" smooth="yes"/>
      <point x="95" y="696" type="line" smooth="yes"/>
      <point x="95" y="227"/>
      <point x="360" y="-2"/>
      <point x="857" y="-2" type="curve" smooth="yes"/>
      <point x="960" y="-2" type="line"/>
      <point x="985" y="162" type="line"/>
      <point x="870" y="162" type="line" smooth="yes"/>
      <point x="494" y="162"/>
      <point x="281" y="331"/>
      <point x="281" y="697" type="curve" smooth="yes"/>
      <point x="281" y="740" type="line" smooth="yes"/>
      <point x="281" y="921"/>
      <point x="316" y="1082"/>
      <point x="377" y="1227" type="curve"/>
      <point x="293" y="1208" type="line"/>
      <point x="850" y="674" type="line"/>
    </contour>
  </outline>
</glyph>
<glyph name="Isshar.or" format="2">
  <advance width="1418"/>
  <unicode hex="0B70"/>
  <outline>
    <contour>
      <point x="235" y="860" type="line"/>
      <point x="617" y="172" type="line"/>
      <point x="640" y="172" type="line"/>
      <point x="1187" y="1373" type="line"/>
      <point x="1377" y="1373" type="line"/>
      <point x="754" y="0" type="line"/>
      <point x="520" y="0" type="line"/>
      <point x="42" y="860" type="line"/>
    </contour>
    <contour>
      <point x="612" y="757" type="curve" smooth="yes"/>
      <point x="687" y="757"/>
      <point x="725" y="801"/>
      <point x="725" y="869" type="curve" smooth="yes"/>
      <point x="725" y="881" type="line" smooth="yes"/>
      <point x="725" y="950"/>
      <point x="687" y="995"/>
      <point x="613" y="995" type="curve" smooth="yes"/>
      <point x="539" y="995"/>
      <point x="501" y="950"/>
      <point x="501" y="881" type="curve" smooth="yes"/>
      <point x="501" y="869" type="line" smooth="yes"/>
      <point x="501" y="801"/>
      <point x="539" y="757"/>
    </contour>
  </outline>
</glyph>
<glyph name="Wa.or" format="2">
  <advance width="1324"/>
  <unicode hex="0B71"/>
  <anchor x="1120" y="19" name="bottom"/>
  <anchor x="1468" y="-24" name="rasmall"/>
  <anchor x="664" y="1777" name="top1"/>
  <outline>
    <contour>
      <point x="532" y="1025" type="curve"/>
      <point x="698" y="1018" type="line"/>
      <point x="688" y="1044"/>
      <point x="682" y="1069"/>
      <point x="682" y="1097" type="curve" smooth="yes"/>
      <point x="682" y="1107" type="line" smooth="yes"/>
      <point x="682" y="1197"/>
      <point x="745" y="1242"/>
      <point x="860" y="1242" type="curve" smooth="yes"/>
      <point x="980" y="1242"/>
      <point x="1041" y="1194"/>
      <point x="1041" y="1104" type="curve" smooth="yes"/>
      <point x="1041" y="1093" type="line" smooth="yes"/>
      <point x="1041" y="986"/>
      <point x="971" y="924"/>
      <point x="782" y="921" type="curve" smooth="yes"/>
      <point x="723" y="920" type="line"/>
      <point x="723" y="778" type="line"/>
      <point x="781" y="778" type="line" smooth="yes"/>
      <point x="861" y="778"/>
      <point x="949" y="789"/>
      <point x="1020" y="816" type="curve"/>
      <point x="1081" y="858" type="line"/>
      <point x="1172" y="907"/>
      <point x="1216" y="979"/>
      <point x="1216" y="1096" type="curve" smooth="yes"/>
      <point x="1216" y="1104" type="line" smooth="yes"/>
      <point x="1216" y="1284"/>
      <point x="1095" y="1380"/>
      <point x="862" y="1380" type="curve" smooth="yes"/>
      <point x="640" y="1380"/>
      <point x="515" y="1286"/>
      <point x="515" y="1122" type="curve" smooth="yes"/>
      <point x="515" y="1113" type="line" smooth="yes"/>
      <point x="515" y="1079"/>
      <point x="522" y="1052"/>
    </contour>
    <contour>
      <point x="714" y="382" type="curve" smooth="yes"/>
      <point x="1057" y="382"/>
      <point x="1240" y="498"/>
      <point x="1240" y="682" type="curve" smooth="yes"/>
      <point x="1240" y="694" type="line" smooth="yes"/>
      <point x="1240" y="798"/>
      <point x="1180" y="874"/>
      <point x="1062" y="908" type="curve"/>
      <point x="944" y="829" type="line"/>
      <point x="1017" y="807"/>
      <point x="1056" y="767"/>
      <point x="1056" y="704" type="curve" smooth="yes"/>
      <point x="1056" y="697" type="line" smooth="yes"/>
      <point x="1056" y="604"/>
      <point x="958" y="539"/>
      <point x="722" y="539" type="curve" smooth="yes"/>
      <point x="413" y="539"/>
      <point x="268" y="680"/>
      <point x="268" y="929" type="curve" smooth="yes"/>
      <point x="268" y="948" type="line" smooth="yes"/>
      <point x="268" y="1099"/>
      <point x="302" y="1216"/>
      <point x="386" y="1356" type="curve"/>
      <point x="204" y="1356" type="line"/>
      <point x="124" y="1225"/>
      <point x="90" y="1096"/>
      <point x="90" y="937" type="curve" smooth="yes"/>
      <point x="90" y="913" type="line" smooth="yes"/>
      <point x="90" y="571"/>
      <point x="304" y="382"/>
    </contour>
    <contour>
      <point x="397" y="321" type="curve" smooth="yes"/>
      <point x="397" y="330" type="line" smooth="yes"/>
      <point x="397" y="378"/>
      <point x="411" y="418"/>
      <point x="440" y="450" type="curve"/>
      <point x="289" y="528" type="line"/>
      <point x="240" y="469"/>
      <point x="215" y="400"/>
      <point x="215" y="328" type="curve" smooth="yes"/>
      <point x="215" y="311" type="line" smooth="yes"/>
      <point x="215" y="108"/>
      <point x="346" y="-1"/>
      <point x="602" y="-1" type="curve" smooth="yes"/>
      <point x="775" y="-1"/>
      <point x="886" y="43"/>
      <point x="940" y="136" type="curve"/>
      <point x="947" y="136" type="line"/>
      <point x="942" y="35" type="line"/>
      <point x="942" y="-48" type="line"/>
      <point x="1120" y="-48" type="line"/>
      <point x="1120" y="509" type="line"/>
      <point x="944" y="504" type="line"/>
      <point x="944" y="237" type="line"/>
      <point x="950" y="301" type="line"/>
      <point x="912" y="214"/>
      <point x="803" y="149"/>
      <point x="648" y="149" type="curve" smooth="yes"/>
      <point x="479" y="149"/>
      <point x="397" y="212"/>
    </contour>
  </outline>
</glyph>
<glyph name="onequarter.or" format="2">
  <advance width="458"/>
  <unicode hex="0B72"/>
  <outline>
    <contour>
      <point x="140" y="1172" type="line"/>
      <point x="318" y="1172" type="line"/>
      <point x="318" y="0" type="line"/>
      <point x="140" y="0" type="line"/>
    </contour>
  </outline>
</glyph>
<glyph name="onehalf.or" format="2">
  <advance width="929"/>
  <unicode hex="0B73"/>
  <outline>
    <contour>
      <point x="264" y="1172" type="curve"/>
      <point x="87" y="1172" type="line"/>
      <point x="87" y="1126"/>
      <point x="87" y="1029"/>
      <point x="87" y="974" type="curve" smooth="yes"/>
      <point x="87" y="876" type="line" smooth="yes"/>
      <point x="87" y="667"/>
      <point x="184" y="553"/>
      <point x="381" y="553" type="curve" smooth="yes"/>
      <point x="506" y="553"/>
      <point x="579" y="602"/>
      <point x="606" y="676" type="curve"/>
      <point x="647" y="676" type="line"/>
      <point x="615" y="841" type="line"/>
      <point x="600" y="757"/>
      <point x="535" y="703"/>
      <point x="438" y="703" type="curve" smooth="yes"/>
      <point x="318" y="703"/>
      <point x="264" y="768"/>
      <point x="264" y="888" type="curve" smooth="yes"/>
      <point x="264" y="996" type="line" smooth="yes"/>
      <point x="264" y="1044"/>
      <point x="264" y="1120"/>
    </contour>
    <contour>
      <point x="611" y="0" type="line"/>
      <point x="789" y="0" type="line"/>
      <point x="789" y="1172" type="line"/>
      <point x="612" y="1172" type="line"/>
      <point x="612" y="775" type="line"/>
      <point x="614" y="736" type="line"/>
      <point x="611" y="453" type="line"/>
    </contour>
  </outline>
</glyph>
<glyph name="threequarter.or" format="2">
  <advance width="1433"/>
  <unicode hex="0B74"/>
  <outline>
    <contour>
      <point x="779" y="1172" type="curve"/>
      <point x="602" y="1172" type="line"/>
      <point x="602" y="1127"/>
      <point x="602" y="1027"/>
      <point x="602" y="975" type="curve" smooth="yes"/>
      <point x="602" y="872" type="line" smooth="yes"/>
      <point x="602" y="667"/>
      <point x="697" y="553"/>
      <point x="891" y="553" type="curve" smooth="yes"/>
      <point x="1013" y="553"/>
      <point x="1084" y="602"/>
      <point x="1110" y="676" type="curve"/>
      <point x="1151" y="676" type="line"/>
      <point x="1119" y="841" type="line"/>
      <point x="1105" y="757"/>
      <point x="1042" y="703"/>
      <point x="948" y="703" type="curve" smooth="yes"/>
      <point x="831" y="703"/>
      <point x="779" y="768"/>
      <point x="779" y="888" type="curve" smooth="yes"/>
      <point x="779" y="996" type="line" smooth="yes"/>
      <point x="779" y="1043"/>
      <point x="779" y="1121"/>
    </contour>
    <contour>
      <point x="1115" y="0" type="line"/>
      <point x="1293" y="0" type="line"/>
      <point x="1293" y="1172" type="line"/>
      <point x="1116" y="1172" type="line"/>
      <point x="1116" y="775" type="line"/>
      <point x="1118" y="736" type="line"/>
      <point x="1115" y="479" type="line"/>
    </contour>
    <contour>
      <point x="264" y="1172" type="curve"/>
      <point x="87" y="1172" type="line"/>
      <point x="87" y="1127"/>
      <point x="87" y="1027"/>
      <point x="87" y="973" type="curve" smooth="yes"/>
      <point x="87" y="868" type="line" smooth="yes"/>
      <point x="87" y="660"/>
      <point x="187" y="553"/>
      <point x="386" y="553" type="curve" smooth="yes"/>
      <point x="526" y="553"/>
      <point x="600" y="603"/>
      <point x="638" y="679" type="curve"/>
      <point x="667" y="679" type="line"/>
      <point x="616" y="839" type="line"/>
      <point x="598" y="754"/>
      <point x="532" y="703"/>
      <point x="436" y="703" type="curve" smooth="yes"/>
      <point x="320" y="703"/>
      <point x="264" y="765"/>
      <point x="264" y="883" type="curve" smooth="yes"/>
      <point x="264" y="998" type="line" smooth="yes"/>
      <point x="264" y="1045"/>
      <point x="264" y="1122"/>
    </contour>
  </outline>
</glyph>
<glyph name="onesixteenth.or" format="2">
  <advance width="818"/>
  <unicode hex="0B75"/>
  <outline>
    <contour>
      <point x="12" y="0" type="line"/>
      <point x="607" y="1172" type="line"/>
      <point x="806" y="1172" type="line"/>
      <point x="211" y="0" type="line"/>
    </contour>
  </outline>
</glyph>
<glyph name="oneeigth.or" format="2">
  <advance width="1847"/>
  <unicode hex="0B76"/>
  <outline>
    <contour>
      <point x="442" y="-26" type="curve" smooth="yes"/>
      <point x="213" y="-26"/>
      <point x="64" y="89"/>
      <point x="64" y="335" type="curve" smooth="yes"/>
      <point x="64" y="370" type="line" smooth="yes"/>
      <point x="64" y="632"/>
      <point x="258" y="814"/>
      <point x="584" y="814" type="curve" smooth="yes"/>
      <point x="930" y="814"/>
      <point x="1154" y="654"/>
      <point x="1154" y="336" type="curve" smooth="yes"/>
      <point x="1154" y="285"/>
      <point x="1149" y="218"/>
      <point x="1139" y="169" type="curve"/>
      <point x="1146" y="169" type="line"/>
      <point x="1192" y="285"/>
      <point x="1253" y="421"/>
      <point x="1310" y="532" type="curve" smooth="yes"/>
      <point x="1636" y="1172" type="line"/>
      <point x="1837" y="1172" type="line"/>
      <point x="1242" y="0" type="line"/>
      <point x="940" y="0" type="line"/>
      <point x="964" y="66"/>
      <point x="977" y="146"/>
      <point x="977" y="238" type="curve" smooth="yes"/>
      <point x="977" y="314" type="line" smooth="yes"/>
      <point x="977" y="554"/>
      <point x="831" y="663"/>
      <point x="584" y="663" type="curve" smooth="yes"/>
      <point x="354" y="663"/>
      <point x="238" y="553"/>
      <point x="238" y="377" type="curve" smooth="yes"/>
      <point x="238" y="365" type="line"/>
      <point x="240" y="314" type="line"/>
      <point x="240" y="306" type="line" smooth="yes"/>
      <point x="240" y="181"/>
      <point x="316" y="122"/>
      <point x="441" y="122" type="curve" smooth="yes"/>
      <point x="547" y="122"/>
      <point x="596" y="162"/>
      <point x="596" y="239" type="curve" smooth="yes"/>
      <point x="596" y="250" type="line" smooth="yes"/>
      <point x="596" y="321"/>
      <point x="550" y="361"/>
      <point x="456" y="361" type="curve" smooth="yes"/>
      <point x="360" y="361"/>
      <point x="283" y="314"/>
      <point x="238" y="244" type="curve"/>
      <point x="206" y="376" type="line"/>
      <point x="246" y="376" type="line"/>
      <point x="286" y="457"/>
      <point x="377" y="508"/>
      <point x="504" y="508" type="curve" smooth="yes"/>
      <point x="685" y="508"/>
      <point x="781" y="419"/>
      <point x="781" y="254" type="curve" smooth="yes"/>
      <point x="781" y="241" type="line" smooth="yes"/>
      <point x="781" y="72"/>
      <point x="659" y="-26"/>
    </contour>
  </outline>
</glyph>
<glyph name="threesixteenth.or" format="2">
  <advance width="1876"/>
  <unicode hex="0B77"/>
  <outline>
    <contour>
      <point x="366" y="678" type="curve" smooth="yes"/>
      <point x="510" y="678"/>
      <point x="590" y="616"/>
      <point x="617" y="520" type="curve"/>
      <point x="623" y="520" type="line"/>
      <point x="650" y="616"/>
      <point x="734" y="678"/>
      <point x="888" y="678" type="curve" smooth="yes"/>
      <point x="1081" y="678"/>
      <point x="1176" y="573"/>
      <point x="1176" y="379" type="curve" smooth="yes"/>
      <point x="1176" y="335"/>
      <point x="1173" y="240"/>
      <point x="1165" y="167" type="curve"/>
      <point x="1171" y="169" type="line"/>
      <point x="1217" y="285"/>
      <point x="1278" y="421"/>
      <point x="1335" y="532" type="curve" smooth="yes"/>
      <point x="1661" y="1172" type="line"/>
      <point x="1862" y="1172" type="line"/>
      <point x="1267" y="0" type="line"/>
      <point x="999" y="0" type="line"/>
      <point x="999" y="356" type="line" smooth="yes"/>
      <point x="999" y="471"/>
      <point x="954" y="528"/>
      <point x="852" y="528" type="curve" smooth="yes"/>
      <point x="754" y="528"/>
      <point x="707" y="469"/>
      <point x="707" y="354" type="curve" smooth="yes"/>
      <point x="707" y="0" type="line"/>
      <point x="530" y="0" type="line"/>
      <point x="530" y="354" type="line" smooth="yes"/>
      <point x="530" y="469"/>
      <point x="482" y="528"/>
      <point x="386" y="528" type="curve" smooth="yes"/>
      <point x="285" y="528"/>
      <point x="238" y="471"/>
      <point x="238" y="353" type="curve" smooth="yes"/>
      <point x="238" y="257" type="line" smooth="yes"/>
      <point x="238" y="162"/>
      <point x="245" y="92"/>
      <point x="270" y="0" type="curve"/>
      <point x="93" y="0" type="line"/>
      <point x="70" y="86"/>
      <point x="60" y="160"/>
      <point x="60" y="260" type="curve" smooth="yes"/>
      <point x="60" y="349" type="line" smooth="yes"/>
      <point x="60" y="562"/>
      <point x="165" y="678"/>
    </contour>
  </outline>
</glyph>
<glyph name="BaBa.or" format="2">
  <advance width="1677"/>
  <anchor x="1308" y="47" name="bottom"/>
  <anchor x="1654" y="24" name="rasmall"/>
  <anchor x="825" y="1777" name="top1"/>
  <anchor x="1301" y="1431" name="top2"/>
  <outline>
    <contour>
      <point x="301" y="400" type="curve"/>
      <point x="383" y="547" type="line"/>
      <point x="309" y="592"/>
      <point x="273" y="653"/>
      <point x="273" y="764" type="curve" smooth="yes"/>
      <point x="273" y="819" type="line" smooth="yes"/>
      <point x="273" y="1073"/>
      <point x="457" y="1215"/>
      <point x="824" y="1215" type="curve" smooth="yes"/>
      <point x="1212" y="1215"/>
      <point x="1407" y="1061"/>
      <point x="1407" y="764" type="curve" smooth="yes"/>
      <point x="1407" y="674" type="line" smooth="yes"/>
      <point x="1407" y="598"/>
      <point x="1396" y="530"/>
      <point x="1374" y="456" type="curve"/>
      <point x="1554" y="477" type="line"/>
      <point x="1578" y="547"/>
      <point x="1591" y="623"/>
      <point x="1591" y="711" type="curve" smooth="yes"/>
      <point x="1591" y="775" type="line" smooth="yes"/>
      <point x="1591" y="1165"/>
      <point x="1321" y="1379"/>
      <point x="825" y="1379" type="curve" smooth="yes"/>
      <point x="350" y="1379"/>
      <point x="87" y="1171"/>
      <point x="87" y="818" type="curve" smooth="yes"/>
      <point x="87" y="757" type="line" smooth="yes"/>
      <point x="87" y="566"/>
      <point x="167" y="456"/>
    </contour>
    <contour>
      <point x="573" y="226" type="curve" smooth="yes"/>
      <point x="490" y="226"/>
      <point x="448" y="274"/>
      <point x="448" y="366" type="curve" smooth="yes"/>
      <point x="448" y="457" type="line" smooth="yes"/>
      <point x="448" y="552"/>
      <point x="491" y="602"/>
      <point x="574" y="602" type="curve" smooth="yes"/>
      <point x="657" y="602"/>
      <point x="701" y="551"/>
      <point x="701" y="457" type="curve" smooth="yes"/>
      <point x="701" y="364" type="line" smooth="yes"/>
      <point x="701" y="276"/>
      <point x="653" y="226"/>
    </contour>
    <contour>
      <point x="1130" y="0" type="line"/>
      <point x="1308" y="0" type="line"/>
      <point x="1308" y="453" type="line" smooth="yes"/>
      <point x="1308" y="651"/>
      <point x="1210" y="751"/>
      <point x="1031" y="751" type="curve" smooth="yes"/>
      <point x="894" y="751"/>
      <point x="814" y="692"/>
      <point x="788" y="596" type="curve"/>
      <point x="781" y="596" type="line"/>
      <point x="757" y="693"/>
      <point x="679" y="751"/>
      <point x="549" y="751" type="curve" smooth="yes"/>
      <point x="415" y="751"/>
      <point x="333" y="680"/>
      <point x="299" y="556" type="curve"/>
      <point x="285" y="536" type="line"/>
      <point x="273" y="508"/>
      <point x="268" y="474"/>
      <point x="268" y="438" type="curve" smooth="yes"/>
      <point x="268" y="357" type="line" smooth="yes"/>
      <point x="268" y="179"/>
      <point x="354" y="77"/>
      <point x="533" y="77" type="curve" smooth="yes"/>
      <point x="656" y="77"/>
      <point x="718" y="123"/>
      <point x="744" y="197" type="curve"/>
      <point x="751" y="197" type="line"/>
      <point x="777" y="123"/>
      <point x="837" y="77"/>
      <point x="944" y="77" type="curve" smooth="yes"/>
      <point x="1050" y="77"/>
      <point x="1104" y="121"/>
      <point x="1126" y="198" type="curve"/>
      <point x="1171" y="198" type="line"/>
      <point x="1130" y="365" type="line"/>
      <point x="1129" y="275"/>
      <point x="1079" y="226"/>
      <point x="1002" y="226" type="curve" smooth="yes"/>
      <point x="919" y="226"/>
      <point x="877" y="274"/>
      <point x="877" y="366" type="curve" smooth="yes"/>
      <point x="877" y="457" type="line" smooth="yes"/>
      <point x="877" y="552"/>
      <point x="920" y="602"/>
      <point x="1003" y="602" type="curve" smooth="yes"/>
      <point x="1086" y="602"/>
      <point x="1130" y="551"/>
      <point x="1130" y="457" type="curve" smooth="yes"/>
      <point x="1130" y="263" type="line"/>
      <point x="1136" y="254" type="line"/>
      <point x="1130" y="79" type="line"/>
    </contour>
  </outline>
</glyph>
<glyph name="BaDa.or" format="2">
  <advance width="1674"/>
  <anchor x="1286" y="47" name="bottom"/>
  <anchor x="1634" y="24" name="rasmall"/>
  <anchor x="834" y="1777" name="top1"/>
  <anchor x="1309" y="1431" name="top2"/>
  <outline>
    <contour>
      <point x="301" y="400" type="curve"/>
      <point x="383" y="547" type="line"/>
      <point x="309" y="592"/>
      <point x="273" y="653"/>
      <point x="273" y="764" type="curve" smooth="yes"/>
      <point x="273" y="819" type="line" smooth="yes"/>
      <point x="273" y="1073"/>
      <point x="457" y="1215"/>
      <point x="823" y="1215" type="curve" smooth="yes"/>
      <point x="1210" y="1215"/>
      <point x="1404" y="1061"/>
      <point x="1404" y="764" type="curve" smooth="yes"/>
      <point x="1404" y="674" type="line" smooth="yes"/>
      <point x="1404" y="598"/>
      <point x="1393" y="530"/>
      <point x="1371" y="456" type="curve"/>
      <point x="1551" y="477" type="line"/>
      <point x="1575" y="547"/>
      <point x="1588" y="623"/>
      <point x="1588" y="711" type="curve" smooth="yes"/>
      <point x="1588" y="775" type="line" smooth="yes"/>
      <point x="1588" y="1165"/>
      <point x="1319" y="1379"/>
      <point x="824" y="1379" type="curve" smooth="yes"/>
      <point x="350" y="1379"/>
      <point x="87" y="1171"/>
      <point x="87" y="818" type="curve" smooth="yes"/>
      <point x="87" y="757" type="line" smooth="yes"/>
      <point x="87" y="566"/>
      <point x="167" y="456"/>
    </contour>
    <contour>
      <point x="576" y="226" type="curve" smooth="yes"/>
      <point x="491" y="226"/>
      <point x="448" y="274"/>
      <point x="448" y="366" type="curve" smooth="yes"/>
      <point x="448" y="457" type="line" smooth="yes"/>
      <point x="448" y="552"/>
      <point x="492" y="602"/>
      <point x="577" y="602" type="curve" smooth="yes"/>
      <point x="662" y="602"/>
      <point x="707" y="551"/>
      <point x="707" y="457" type="curve" smooth="yes"/>
      <point x="707" y="364" type="line" smooth="yes"/>
      <point x="707" y="276"/>
      <point x="657" y="226"/>
    </contour>
    <contour>
      <point x="528" y="77" type="curve" smooth="yes"/>
      <point x="652" y="77"/>
      <point x="714" y="123"/>
      <point x="740" y="197" type="curve"/>
      <point x="747" y="197" type="line"/>
      <point x="772" y="123"/>
      <point x="829" y="77"/>
      <point x="931" y="77" type="curve" smooth="yes"/>
      <point x="1033" y="77"/>
      <point x="1082" y="118"/>
      <point x="1104" y="198" type="curve"/>
      <point x="1148" y="198" type="line"/>
      <point x="1113" y="353" type="line"/>
      <point x="1104" y="268"/>
      <point x="1061" y="228"/>
      <point x="999" y="228" type="curve" smooth="yes"/>
      <point x="919" y="228"/>
      <point x="883" y="273"/>
      <point x="883" y="362" type="curve" smooth="yes"/>
      <point x="883" y="457" type="line" smooth="yes"/>
      <point x="883" y="644"/>
      <point x="779" y="751"/>
      <point x="587" y="751" type="curve" smooth="yes"/>
      <point x="426" y="751"/>
      <point x="335" y="679"/>
      <point x="299" y="556" type="curve"/>
      <point x="286" y="536" type="line"/>
      <point x="274" y="508"/>
      <point x="268" y="474"/>
      <point x="268" y="438" type="curve" smooth="yes"/>
      <point x="268" y="357" type="line" smooth="yes"/>
      <point x="268" y="179"/>
      <point x="353" y="77"/>
    </contour>
    <contour>
      <point x="1108" y="0" type="line"/>
      <point x="1286" y="0" type="line"/>
      <point x="1286" y="711" type="line"/>
      <point x="1108" y="711" type="line"/>
      <point x="1108" y="263" type="line"/>
      <point x="1114" y="254" type="line"/>
      <point x="1108" y="79" type="line"/>
    </contour>
  </outline>
</glyph>
